<?xml version="1.0" encoding="UTF-8"?><svg id="a" xmlns="http://www.w3.org/2000/svg" xmlns:xlink="http://www.w3.org/1999/xlink" viewBox="0 0 2224.52 2211.55"><defs><style>.v{fill:url(#u);}.w{fill:url(#t);}.x{fill:url(#e);}.y{fill:url(#d);}.a`{fill:url(#g);}.aa{fill:url(#f);}.ab{fill:url(#p);}.ac{fill:url(#o);}.ad{fill:url(#s);}.ae{fill:url(#q);}.af{fill:url(#r);}.ag{fill:url(#i);}.ah{fill:url(#h);}.ai{fill:url(#k);}.aj{fill:url(#j);}.ak{fill:url(#m);}.al{fill:url(#l);}.am{fill:url(#n);}.an{fill:url(#c);}.ao{fill:url(#b);}.ap,.aq{fill:none;}.ar{fill:#005e98;}.as{fill:#006fb2;}.at{fill:#008388;}.au{fill:#fdb683;}.av{fill:#00999e;}.aq{stroke:#000;stroke-linecap:round;stroke-linejoin:round;stroke-width:4px;}</style><linearGradient id="b" x1="1143.37" y1="690.59" x2="1196.26" y2="690.59" gradientTransform="matrix(1, 0, 0, 1, 0, 0)" gradientUnits="userSpaceOnUse"><stop offset="0" stop-color="#fdb683"/><stop offset="1" stop-color="#cb946e"/></linearGradient><linearGradient id="c" x1="691.45" y1="1810.56" x2="1259" y2="1810.56" gradientTransform="matrix(1, 0, 0, 1, 0, 0)" gradientUnits="userSpaceOnUse"><stop offset="0" stop-color="#cb946e"/><stop offset="1" stop-color="#fdb683"/></linearGradient><linearGradient id="d" x1="796.89" y1="1632.61" x2="1329.25" y2="1632.61" xlink:href="#b"/><linearGradient id="e" x1="645.49" y1="1535.94" x2="597.92" y2="1211.94" xlink:href="#b"/><linearGradient id="f" x1="935.59" y1="508.75" x2="1199.71" y2="508.75" xlink:href="#b"/><linearGradient id="g" x1="1209.99" y1="476.76" x2="1212.57" y2="65.33" gradientTransform="matrix(1, 0, 0, 1, 0, 0)" gradientUnits="userSpaceOnUse"><stop offset="0" stop-color="#291805"/><stop offset="1" stop-color="#190800"/></linearGradient><linearGradient id="h" x1="1351.29" y1="1209.21" x2="1613.57" y2="1436.78" gradientTransform="matrix(1, 0, 0, 1, 0, 0)" gradientUnits="userSpaceOnUse"><stop offset="0" stop-color="#cb946e"/><stop offset=".34" stop-color="#dda075"/><stop offset="1" stop-color="#fdb683"/></linearGradient><linearGradient id="i" x1="996.69" y1="349.02" x2="997.45" y2="227.77" xlink:href="#g"/><linearGradient id="j" x1="995.17" y1="248.03" x2="995.25" y2="236.03" xlink:href="#g"/><linearGradient id="k" x1="986.83" y1="339.79" x2="987.62" y2="214.18" xlink:href="#g"/><linearGradient id="l" x1="995.17" y1="270.25" x2="995.25" y2="258.26" xlink:href="#g"/><linearGradient id="m" x1="998.27" y1="254.24" x2="998.35" y2="242.24" xlink:href="#g"/><linearGradient id="n" x1="991.77" y1="297.31" x2="992.33" y2="208.11" xlink:href="#g"/><linearGradient id="o" x1="1005.41" y1="313.17" x2="1005.73" y2="261.7" xlink:href="#g"/><linearGradient id="p" x1="1018.54" y1="259.42" x2="1018.62" y2="247.42" xlink:href="#g"/><linearGradient id="q" x1="987.16" y1="260.74" x2="987.17" y2="258.1" xlink:href="#g"/><linearGradient id="r" x1="989.54" y1="252.64" x2="989.65" y2="234.75" xlink:href="#g"/><linearGradient id="s" x1="981.01" y1="308.2" x2="981.08" y2="296.2" xlink:href="#g"/><linearGradient id="t" x1="1014.18" y1="267.61" x2="1014.26" y2="255.61" xlink:href="#g"/><linearGradient id="u" x1="1007.95" y1="248.91" x2="1008.02" y2="236.91" xlink:href="#g"/></defs><g><path class="au" d="M977.79,493.64c-.33,.71-6.61,13.96-18.85,3.4-12.57-10.86-20-38.29-22.29-76.57-2.28-38.29-1.14-66.86,5.72-67.43,6.85-.57,19.43-9.72,26.57,6.28,0,0,6.86-93.43,26.57-161.14,0,0,.43,21.43,9.86,36.86s25.71,42.43,36.43,76.28c10.71,33.86,28.71,129.43,116.14,141.43,0,0-1.72,18.43,12.43,27.86,14.14,9.43,69.43,9.86,130.71-12.86,61.28-22.71,84.73-61.89,113.93-97.37-2.58,13.59-5.37,24.93-8.64,36.37-8,28-19.43,51.43-32.57,78.29-13.15,26.85-50.29,119.43-72.58,166.85-1,2.13-1.99,4.21-2.97,6.25-20.85,43.44-37.35,67.56-56.45,93.75-20,27.43-61.72,66.86-109.15,67.43s-89.71-62.85-109.14-110.85c-13.24-32.7-26.47-69.65-35.55-103.97-4.25-16.06-7.59-31.54-9.59-45.75-6.16-43.67-.8-64.3-.58-65.11Z"/><path class="ao" d="M1176.29,697.9c-3.38,6.38-7.1,12.8-12.71,17.35-5.61,4.55-13.54,6.89-20.21,4.13,5.43,3.32,10.98,6.68,17.19,8.09,6.2,1.41,13.29,.54,17.94-3.8,4.42-4.13,5.85-10.46,7.06-16.39l5.99-29.31c1.44-7.03,5.9-17.96,4.41-24.86-6,15.25-11.97,30.28-19.67,44.79Z"/><path class="av" d="M1475.47,2229.18H616.65c-3.13-150.48,30.01-223.32,45.43-301.29,15.43-78,21-125.14,21-139.36s9.5-.58,9.9-.02c.44,2.9,1,5.65,1.67,8.24,0,0,108,87.43,205.72,128.57,97.71,41.15,221.14,40.29,290.57,10.29s68.57-46.29,91.71-57.43c23.15-11.14,88.65-39.43,103.9-83.14,1.3-.52,2.53-1.01,3.69-1.48,0,0,26.98,142.91,34.7,202.05,7.57,58.1,49.07,227.63,50.53,233.57Z"/><path class="at" d="M814.86,2229.18h-198.21c-3.13-150.48,30.01-223.32,45.43-301.29,15.43-78,21-125.14,21-139.36s9.5-.58,9.9-.02c.44,2.9,1,5.65,1.67,8.24,0,0,29.14,23.59,70.85,52.04,4.07,19.03,5.84,38.74,5.95,57.95,.29,54.77-10.52,109.33-7.58,164.03,3,56.01,20.94,111.06,50.99,158.41Z"/><path class="at" d="M1475.47,2229.18h-19.27c-14.45-125.72-44.02-249.68-87.91-368.36-44.39,27.45-89.1,55.06-137.72,74.07-34.97,13.67-72.19,22.79-109.86,23.46-9.12,.16-15.38-.77-19.36-2.48,34.22-2.8,65.23-9.73,89.59-20.26,69.43-30,68.57-46.29,91.71-57.43,23.15-11.14,88.65-39.43,103.9-83.14,1.3-.52,2.53-1.01,3.69-1.48,0,0,26.98,142.91,34.7,202.05,7.57,58.1,49.07,227.63,50.53,233.57Z"/><path class="av" d="M1032.65,1713.04c-5.71,31.14-2,101.71-2,101.71,0,0-218.44-35.65-325.61-150.9-5.54-5.96-10.79-12.13-15.69-18.53,5.31-1.49,10.49-2.83,15.48-3.48,.14-.01,.21-.02,.21-.02,3.2-.4,6.31-.52,9.33-.21,18.16,1.88,50.52,1.92,74.65-14.24,2.74-1.84,5.38-3.88,7.87-6.16,0,0,128.33,82.11,235.76,91.83Z"/><path class="av" d="M1175.51,1717.41c13.71,30.37,3.43,114.48,3.43,114.48,0,0,1.71,5.58-9,6.43-10.72,.86-46.29-2.57-78.86,1.72-32.57,4.28-57.43,3-60.43-2.57-3-5.58,0-22.72,0-22.72,0,0-3.71-70.57,2-101.71,57.04,5.16,103.77,5.32,142.75,2.71l.11,1.66Z"/><path class="av" d="M1409.63,1682.39c.02,.98,1.26,66.65-4.98,104.93,0,0-5.08,2.47-14.41,6.24-1.16,.47-2.39,.96-3.69,1.48-34.12,13.41-113.09,39.41-207.61,36.85,0,0,10.28-84.11-3.43-114.48l-.11-1.66c34.44-2.3,62.84-6.76,86.97-11.86,51.43-10.85,103.27-42.42,115.22-54.1,2.07,1.9,3.94,4.06,5.35,6.68,7.46,13.91,16.05,24.12,26.69,25.92Z"/><path class="as" d="M1666.65,1038.18s-2.89,3.87-8.64,10.22c-21.2,23.42-81.31,80.67-179.07,102.92l-4.29-11.14s-18.57,45.43-36.85,67.14c-18.29,21.72-17.15,32.57-18.29,54.29-1.07,20.44,4.94,175.16,5.64,193.15-14.45,3.21-29.34,7.66-42.64,11.56-32.14,9.43-37.71,12.86-51.86,9.43-14.14-3.43-33,5.57-23.57,20.57,9.07,14.43,28.78,17.36,30.26,17.56-.99-.08-10.07-.45-9.26,13.73,.35,6.09,3.5,10.59,7.12,13.78-1.42,1.75-3.1,3.37-5,4.86-27.74,21.94-103.38,19.15-142.69,26.58-42,7.94-105,10.06-165.86,4.64-60.85-5.41-112.71-6.15-145.28-1.89-31.89,4.17-58.85,.17-59.95,.01h-.01c-1.05-.59-2.03-1.15-2.9-1.7-6.29-4-70-18.85-90.57-42.42-20.25-23.21-37.18-54.3-37.71-55.27,.45,.39,29.78,26.21,56.57,37.69,27,11.58,51.42,21.43,72,19.72,20.57-1.72,36.42-18.86,31.28-30.43-5.14-11.57-39-14.14-66.86-29.57-27.85-15.43-61.71-34.29-68.57-44.57-3.87-5.81-8.96-9.43-16.06-11.17l.21-.83c6.85-23.15,14.57-87.43,10.28-200.57-4.28-113.15,3.43-123.43,3.43-123.43-29.14-1.72-76.29,34.28-76.29,34.28,0,0-1.4,1.55-4.61,3.29-10.5,5.69-40.33,13.45-103.39-24.43-82.28-49.43-72.85-122-72.85-122,0,0,6-33.43,65.14-98.57,59.14-65.14,165.14-145.43,184-158.86,18.86-13.43,30.86-23.43,48.57-24.86,17.72-1.42,20.29-4.57,41.43-13.14s44.29-8.28,89.43-19.14c45.14-10.86,71.43-41.14,82.28-55.56,10.86-14.41,26.74-9.55,26.74-9.55,9.08,34.32,22.31,71.27,35.55,103.97,19.43,48,61.71,111.42,109.14,110.85s89.15-40,109.15-67.43c19.1-26.19,35.6-50.31,56.45-93.75h.01s24.68,15.18,47.82,28.32c23.14,13.15,62.57,26.86,108,52.15,45.43,25.28,63.43,27.86,82.29,35.57,18.85,7.71,33.43,36,45.43,68.57s41.14,89.14,53.14,105.43c12,16.29,31.71,78.86,31.71,90Z"/><path class="ar" d="M1320.06,671.29c-10.82,5.62-20.78,13.13-29.21,21.77-23.14,23.72-36.92,54.79-49.99,85.25-13.06,30.46-26.3,61.67-48.66,86.13-22.37,24.45-56.12,41.24-88.54,34.36-40.57-8.59-65.56-49.89-77.21-89.69-11.66-39.8-15.38-82.75-36.48-118.45-9.18-15.55-23.69-30.33-41.74-30.74-10.64-.24-20.64,4.56-30.44,8.68-26.2,11-54.19,17.65-82.52,19.83-12.14,.94-31.01,2.6-48.15,1.3,.77-.32,1.56-.64,2.39-.98,21.14-8.57,44.29-8.28,89.43-19.14,45.14-10.86,71.43-41.14,82.28-55.56,10.86-14.41,26.74-9.55,26.74-9.55,9.08,34.32,22.31,71.27,35.55,103.97,19.43,48,61.71,111.42,109.14,110.85,47.43-.57,89.15-40,109.15-67.43,19.1-26.19,35.6-50.31,56.45-93.75h0s9.28,5.71,21.8,13.15Z"/><path class="ar" d="M1341.09,1373.41c-84.46,55.45-177.84,97.29-275.44,123.43,7.27-18.51,22.23-33.85,40.54-41.59-66.09,16.71-135.84-1.05-203.82,4.08-34.25,2.58-68.04,11.05-99.47,24.91-8.17-2.83-16.67-6.2-24.68-10.63-4.21-2.33-8.56-4.74-12.93-7.19,2.38-1.6,4.98-2.98,7.46-4.18,34.26-16.66,68.52-33.32,102.78-49.97-36.43-26.45-72.85-52.89-109.28-79.34-20.96-15.22-42.72-31.36-54.11-54.62-3.15-6.42-5.38-13.14-6.96-20.04v-.02c-.18-13.11-.54-27.02-1.1-41.78-4.28-113.15,3.43-123.43,3.43-123.43-29.14-1.72-76.29,34.28-76.29,34.28,0,0-1.4,1.55-4.61,3.29-10.5,5.69-40.33,13.45-103.39-24.43-5.12-3.08-9.89-6.24-14.32-9.48,80.5-16.28,157.48-49.81,224.21-97.71,23.89,21.43,26.31,57.37,27.04,89.45,1.65,72.03,4.08,145.65,5.73,217.68,83.01,47.29,179.73,70.17,275.13,65.08-24.13,7.14-48.27,14.28-72.41,21.42-19.36,5.73-38.94,11.55-56.36,21.76,88.59-2.12,176.83-18.01,260.59-46.93-38.61,37.11-89.56,58.04-139.2,78.15,103.73-10.41,205.19-42.97,295.6-94.87,7.28-4.18,17.54-8.09,23.07-1.78,6.74,7.7-2.65,18.85-11.21,24.46Z"/><path class="au" d="M692.98,1788.51c-6.95-45.15,12.06-124.66,12.06-124.66,107.17,115.25,325.61,150.9,325.61,150.9,0,0-3,17.14,0,22.72,3,5.57,27.86,6.85,60.43,2.57,32.57-4.29,68.14-.86,78.86-1.72,10.71-.85,9-6.43,9-6.43,94.52,2.56,173.49-23.44,207.61-36.85-15.25,43.71-80.75,72-103.9,83.14-23.14,11.14-22.28,27.43-91.71,57.43s-192.86,30.86-290.57-10.29c-97.72-41.14-205.72-128.57-205.72-128.57-.67-2.59-1.23-5.34-1.67-8.24Z"/><path class="au" d="M1364.94,1639.32c3.35,3.67,8.4,6.54,12.65,10.47-11.95,11.68-63.79,43.25-115.22,54.1-24.13,5.1-52.53,9.56-86.97,11.86-38.98,2.61-85.71,2.45-142.75-2.71-107.43-9.72-235.76-91.83-235.76-91.83,5.6-5.1,10.5-11.37,14.33-19.03,0,0,18-.86,19.43-10.29,1.23-8.12-7.71-12.64-14.23-16.3,1.1,.16,28.06,4.16,59.95-.01,32.57-4.26,84.43-3.52,145.28,1.89,60.86,5.42,123.86,3.3,165.86-4.64,39.31-7.43,114.95-4.64,142.69-26.58l.09,.11c-2,1.67-3.49,4.85-4.21,10.39-2,15.43,6.57,19.72,6.57,19.72-16.28-.29-13.14,13.14,0,28,9.46,10.69,19.5,20.88,32.29,34.85Z"/><path class="an" d="M1259,1895.76c-11.37,9.82-28.04,22.56-68.06,39.85-69.43,30-192.86,30.86-290.57-10.29-97.72-41.14-205.72-128.57-205.72-128.57-.67-2.59-1.23-5.34-1.67-8.24-6.95-45.15,12.06-124.66,12.06-124.66,14.08,15.14,30.08,28.91,47.25,41.4-1.46,13.07-3.41,26.11-2.61,36.59,2.04,26.73,9.88,53.69,26.74,74.53,17.19,21.24,42.19,34.45,66.93,46.04,68.96,32.29,142.41,56.66,218.26,63.28,66.99,5.86,136.1-2.74,197.39-29.93Z"/><path class="y" d="M1328.51,1548.18c1.97,1.56-.34,7.81-2.73,13.07-35.63,14.82-89.88,33.77-157.98,43.07-113.56,15.51-190.46-6.05-196.71,14.14-5.72,18.44,52.71,54.81,97.98,72.94,63.5,25.43,121.8,23.28,155.6,19.18-14.94,2.17-31.28,3.96-49.26,5.16-38.98,2.61-85.71,2.45-142.75-2.71-107.43-9.72-235.76-91.83-235.76-91.83,5.6-5.1,10.5-11.37,14.33-19.03,0,0,18-.86,19.43-10.29,1.23-8.12-7.71-12.64-14.23-16.3,1.1,.16,28.06,4.16,59.95,0,32.57-4.26,84.43-3.52,145.28,1.89,44.91,3.99,78,3.93,105,2.2,28.31-1.82,19.54-3.23,60.86-6.84,53.87-4.7,110.56-5.91,130.71-20.36,1.55-1.11,8.08-6.03,10.29-4.29Z"/><path class="au" d="M685.23,1476.2c.53,.97,17.46,32.06,37.71,55.27,20.57,23.57,84.28,38.42,90.57,42.42,.87,.55,1.85,1.11,2.9,1.7h.01c6.52,3.66,15.46,8.18,14.23,16.3-1.43,9.43-19.43,10.29-19.43,10.29-3.83,7.66-8.73,13.93-14.33,19.03-2.49,2.28-5.13,4.32-7.87,6.16-24.13,16.16-56.49,16.12-74.65,14.24-3.02-.31-6.13-.19-9.33,.21,0,0-.07,.01-.21,.02-4.99,.65-10.17,1.99-15.48,3.48-19.27,5.4-40.14,12.78-58.98-3.71-27.43-24-47.15-55.72-63.43-69.43-16.29-13.71-95.14-73.71-146.57-115.71-51.43-42-89.15-96.86-108.86-129.43-19.71-32.57-31.71-54.86,0-148.29s138.86-194.57,138.86-194.57c0,0-9.43,72.57,72.85,122,63.06,37.88,92.89,30.12,103.39,24.43,0,0-16.81,38.43-51.1,55.57-28.59,14.29-55.19,32.16-91.07,35.39l1.93,.61-9.15,35.43c8.58,14.28,13.72,66.28,31.43,100.57,17.72,34.29,35.43,52.57,60.36,58.86,24.94,6.28,85.36,1.71,104.21,0,8.22-.75,14.9-.52,20.37,.83,7.1,1.74,12.19,5.36,16.06,11.17,6.86,10.28,40.72,29.14,68.57,44.57,27.86,15.43,61.72,18,66.86,29.57,5.14,11.57-10.71,28.71-31.28,30.43-20.58,1.71-45-8.14-72-19.72-26.79-11.48-56.12-37.3-56.57-37.69Z"/><path class="x" d="M828.92,1492.78c-1.79,.35-3.57,.59-5.28,.71-29.64,2-59.87-5.87-84.76-22.09-14.51-9.45-31.47-22.24-47.18-14.96-14.1,6.53-16.87,24.75-21.69,39.52-9.3,28.48-31.69,50.43-53.3,71.18-9.63,9.24-20.42,18.95-32.64,23.26-6.17-7.39-11.83-13.76-17.13-18.22-11.22-9.44-52.11-40.84-93.28-73.19,3.87-4.3,11.68-5.37,17.51-3.07,7.52,2.97,13.13,9.36,20.05,13.54,12.44,7.51,28.35,7.29,42.18,2.8,13.82-4.5,26.02-12.81,38.01-21.02,27.34-18.72,54.68-37.44,82.02-56.16-41.98,3.16-86.68,5.76-123.59-14.49-46.93-25.76-68.14-80.71-85.75-131.27-6.95-19.95-12.8-45.09,2.42-59.74-23.15-4.51-44.77-16.58-60.75-33.93,59.29,11,123.36-7.95,167.14-49.41-20.92-5.26-57.94-24.92-63.84-49.42,4.39,3.19,9.1,6.32,14.16,9.36,63.06,37.88,92.89,30.12,103.39,24.43,0,0-16.81,38.43-51.1,55.57-28.59,14.29-55.19,32.16-91.07,35.39l1.93,.61-9.15,35.43c8.58,14.28,13.72,66.28,31.43,100.57,17.72,34.29,35.43,52.57,60.36,58.86,24.94,6.28,85.36,1.71,104.21,0,8.22-.75,14.9-.52,20.37,.83,7.1,1.74,12.19,5.36,16.06,11.17,6.86,10.28,40.72,29.14,68.57,44.57,17.37,9.62,37.08,14.24,50.7,19.17Z"/><path class="au" d="M1344.37,1547.04c-2.31-.98-5.93-2.79-9.17-5.65-3.62-3.19-6.77-7.69-7.12-13.78-.81-14.18,8.27-13.81,9.26-13.73-1.48-.2-21.19-3.13-30.26-17.56-9.43-15,9.43-24,23.57-20.57,14.15,3.43,19.72,0,51.86-9.43,13.3-3.9,28.19-8.35,42.64-11.56,20.46-4.53,40.06-6.58,53.07-1.06,22.2,9.43,12.15,13.62,25.58,13.62s23.42-5.43,25.71-14.28c2.29-8.86,13.43-53.72,12.86-98.57-.5-39.46,.32-68.97,5.58-89.89l-.44-.11c-42.86-24-68.57-113.15-68.57-113.15,97.76-22.25,157.87-79.5,179.07-102.92,0,0,3.21,41.78,20.36,78.92,17.14,37.15,34.28,94.29,36.57,133.72,2.28,39.43-6.86,113.14-38.86,168-32,54.85-69.71,65.14-105.14,132-35.43,66.85-129.14,110.28-146.86,118.85-5.22,2.53-10.01,3.24-14.45,2.5-10.64-1.8-19.23-12.01-26.69-25.92-1.41-2.62-3.28-4.78-5.35-6.68-4.25-3.93-9.3-6.8-12.65-10.47-12.79-13.97-22.83-24.16-32.29-34.85-13.14-14.86-16.28-28.29,0-28,0,0-8.57-4.29-6.57-19.72,.72-5.54,2.21-8.72,4.21-10.39,3.57-2.99,8.77-1.15,14.08,.68Z"/><path class="au" d="M2093.38,1646.31c-.2-.16-.4-.31-.6-.45,.02-.02,.03-.05,.05-.07,.18,.18,.36,.35,.55,.52Z"/><path class="aa" d="M1199.71,794.1c-19.31,14.14-42.42,24.92-67.06,25.22-47.43,.57-89.71-62.85-109.14-110.85-13.24-32.7-26.47-69.65-35.55-103.97-4.25-16.06-7.59-31.54-9.59-45.75-6.16-43.67-.8-64.3-.58-65.11-.33,.71-6.61,13.96-18.85,3.4-12.57-10.86-20-38.29-22.29-76.57-2.28-38.29-1.14-66.86,5.72-67.43,6.85-.57,19.43-9.72,26.57,6.28,0,0,6.86-93.43,26.57-161.14,0,0,.43,21.43,9.86,36.86,3.55,5.81,8.07,13.26,12.9,22.1-6.89,32.86-12.53,65.73-15.52,99.22-5.95,66.59-3.2,133.95,8.17,199.83,6.58,38.11,16.03,75.72,28.36,112.37,12.5,37.17,28.71,74.59,57.61,101.1,27.39,25.11,68.71,38.03,102.82,24.44Z"/><path class="a`" d="M1157.94,452.75c-87.43-12-105.43-107.57-116.14-141.43-10.72-33.85-27-60.85-36.43-76.28s-9.86-36.86-9.86-36.86c19.71-67.71,73.71-128.57,186.29-143.43,112.57-14.86,200.57,60.57,220,97.14,19.42,36.58,30.28,77.15,24,138.29-3.72,36.16-7.04,60.52-10.78,80.19h-.01c-29.2,35.49-52.65,74.67-113.93,97.38-61.28,22.72-116.57,22.29-130.71,12.86-14.15-9.43-12.43-27.86-12.43-27.86Z"/><path class="at" d="M1032.65,1713.04c-1.82,9.95-2.68,23.94-3.01,38.36-65.03-21.89-130.06-43.77-195.09-65.65-8.84-2.98-17.83-5.98-27.15-6.37-9.32-.39-19.18,2.18-25.64,8.91-8.05,8.39-8.85,20.27-6.99,32.2-25.7-16.28-49.67-35.06-69.73-56.64-5.54-5.96-10.79-12.13-15.69-18.53,5.31-1.49,10.49-2.83,15.48-3.48,.14,0,.21-.02,.21-.02,3.2-.4,6.31-.52,9.33-.21,18.16,1.88,50.52,1.92,74.65-14.24,2.74-1.84,5.38-3.88,7.87-6.16,0,0,128.33,82.11,235.76,91.83Z"/><path class="at" d="M1178.94,1831.89s1.71,5.58-9,6.43c-7.53,.6-27.31-.91-49.7-.37-7.4-5.03-14.36-11.98-12.48-20.31,1.59-7.1,9.18-11.17,16.3-12.66,7.13-1.48,14.71-1.39,21.28-4.51,12.39-5.88,17.3-22.4,12.69-35.32-4.61-12.91-16.72-22.07-29.78-26.26-13.05-4.19-27.07-4.09-40.76-3.35-11.09,.6-23.55,2.34-30.15,11.26-5.1,6.89-5.19,16.14-5.07,24.7,.19,13.32,.37,26.64,.56,39.96,.05,3.95,.15,8.08,2.06,11.54,3.09,5.62,9.91,7.82,16.09,9.55,8.28,2.31,16.56,4.62,24.84,6.93-1.58,.16-3.17,.35-4.74,.56-31.33,4.12-55.53,3.09-59.99-1.96-.18-.19-.33-.4-.44-.61-2.41-4.48-.95-16.4-.28-20.93,.16-1.12,.28-1.79,.28-1.79,0,0-.07-1.37-.18-3.82-.42-9.49-1.39-35.14-.83-59.53,.33-14.42,1.19-28.41,3.01-38.36,57.04,5.16,103.77,5.32,142.75,2.71l.11,1.66c13.71,30.37,3.43,114.48,3.43,114.48Z"/><path class="at" d="M1393.23,1671.95c-.85,2.07-1.91,4.04-3.14,5.87-5.78,8.57-14.71,14.45-23.65,19.65-37.14,21.59-78.8,35.38-121.49,40.23-15.87,1.81-34.34,3.79-42.8,17.34-4.73,7.57-4.99,16.99-5.11,25.91-.16,11.84-.32,23.68-.48,35.52-.07,5.18-.19,10.52-1.2,15.58-5.41,.04-10.89-.01-16.42-.16,0,0,10.28-84.11-3.43-114.48l-.11-1.66c34.44-2.3,62.84-6.76,86.97-11.86,51.43-10.85,103.27-42.42,115.22-54.1,2.07,1.9,3.94,4.06,5.35,6.68,3.2,5.96,6.6,11.25,10.29,15.48Z"/><path class="ah" d="M1660.18,1065.1c-6.73,21.21-21.12,40.08-40.05,52.75-13.29,8.9-28.54,14.35-42.89,21.4-14.36,7.06-28.42,16.32-36.35,30.21-10.26,17.97-7.78,42.32,5.87,57.86,13.66,15.53,37.5,21.1,56.63,13.23-8.8,80.07-33.06,158.26-67.07,231.28-4.32,9.27-8.9,18.71-9.81,28.91-1.88,21,11.93,39.85,17.7,60.14,3.21,11.3,3.76,23.07,2.09,34.61-42.7,47.2-107.76,77.41-122.22,84.4-5.22,2.53-10.01,3.24-14.45,2.5-10.64-1.8-19.23-12.01-26.69-25.92-1.34-2.5-3.1-4.58-5.06-6.41,19.06,14.05,47.27,13.81,67.86,1.49,22.5-13.45,36.19-38.74,40.21-64.64,4.02-25.9-.64-52.45-8.19-77.55-6.72-22.31-17.49-45.77-36.95-57.54,14.53-2.14,27.78-2.21,37.41,1.88,22.2,9.43,12.15,13.62,25.58,13.62s23.42-5.43,25.71-14.28c2.29-8.86,13.43-53.72,12.86-98.57-.5-39.46,.32-68.97,5.58-89.89l-.44-.11c-42.86-24-68.57-113.15-68.57-113.15,97.76-22.25,157.87-79.5,179.07-102.92,0,0,.5,6.52,2.17,16.7Z"/><g><path class="aq" d="M968.94,359.32c1.25-14.94,3.32-36.24,6.78-61.75,6.34-46.84,9.78-71.26,19.8-99.39,4.38-12.31,14.84-44.02,37.41-70.62,30.51-35.96,78.12-63.47,148.88-72.81,112.57-14.86,200.57,60.57,220,97.14,19.43,36.57,30.29,77.14,24,138.29-6.29,61.14-11.43,88.57-19.43,116.57s-19.43,51.43-32.57,78.29c-13.14,26.86-50.29,119.43-72.57,166.86-22.29,47.43-39.43,72.57-59.43,100-20,27.43-61.71,66.86-109.14,67.43-47.43,.57-89.71-62.86-109.14-110.86-19.43-48-38.86-105.14-45.14-149.71-6.29-44.57-.57-65.14-.57-65.14,0,0-6.29,14.29-18.86,3.43-12.57-10.86-20-38.29-22.29-76.57-2.29-38.29-1.14-66.86,5.71-67.43,6.86-.57,19.43-9.71,26.57,6.29Z"/><path d="M977.23,395.89c-.6,6.91-1.19,13.75-1.69,20.6-.51,6.84-.87,13.68-1.14,20.51-.18,3.42-.2,6.84-.32,10.26-.04,1.71-.04,3.42-.06,5.13-.02,1.71-.04,3.42-.02,5.14-.06,6.86,.29,13.7,.38,20.65-.44-1.68-.83-3.37-1.21-5.06-.2-.85-.37-1.7-.55-2.55l-.44-2.56-.78-5.15c-.21-1.72-.34-3.45-.52-5.18l-.25-2.6-.12-2.6c-.07-1.73-.17-3.47-.22-5.21-.03-3.47-.05-6.95,.12-10.42,.27-6.94,.95-13.86,2.05-20.71,1.1-6.85,2.56-13.65,4.78-20.24Z"/><path class="aq" d="M995.51,198.18s.43,21.43,9.86,36.86c9.43,15.43,25.71,42.43,36.43,76.29,10.71,33.86,28.71,129.43,116.14,141.43,0,0-1.71,18.43,12.43,27.86,14.14,9.43,69.43,9.86,130.71-12.86,61.29-22.71,84.73-61.9,113.93-97.38"/><path d="M1158.26,450.78c1.65,.32,3.44,.59,5.18,.83,1.76,.24,3.52,.44,5.29,.63,3.54,.37,7.1,.65,10.66,.87,.57,.03,1.01,.53,.98,1.1-.03,.54-.48,.96-1.01,.98-3.6,.1-7.2,.14-10.81,.08-1.81-.03-3.61-.08-5.42-.16-1.82-.09-3.6-.19-5.49-.38-1.1-.11-1.9-1.1-1.78-2.2,.11-1.1,1.1-1.9,2.2-1.78,.06,0,.12,.01,.17,.03h.04Z"/><path d="M1126.23,599.32c-5.5,1.23-11.19,1.25-16.77,.75-5.59-.53-11.14-1.67-16.49-3.44l-2.01-.66-1.97-.76c-1.3-.54-2.63-1.01-3.9-1.61-2.54-1.23-5.09-2.41-7.47-3.94-4.86-2.83-9.26-6.42-13.1-10.49,5.21,2.16,10.04,4.58,15.09,6.53,2.47,1.08,5.01,1.96,7.5,2.95,1.25,.48,2.53,.89,3.79,1.33l1.89,.69,1.92,.6c5.08,1.69,10.25,3.14,15.49,4.45,5.25,1.33,10.54,2.5,16.03,3.6Z"/><path d="M1217.94,608.32c4.76,1.03,9.29,2.15,13.82,3.22,4.52,1.09,9.01,2.09,13.5,3.03,2.24,.52,4.5,.88,6.75,1.37,2.26,.35,4.52,.87,6.8,1.19,4.57,.87,9.17,1.36,13.98,2.32-4.6,1.55-9.47,2.38-14.32,2.42l-1.82,.04c-.61,0-1.21-.05-1.82-.08-1.21-.05-2.42-.14-3.64-.23-2.41-.3-4.82-.6-7.18-1.14-4.74-1-9.38-2.47-13.79-4.47-4.39-2-8.64-4.43-12.29-7.7Z"/><path d="M1198.66,645.61c-.9,4.34-1.65,8.65-2.34,12.98l-2.06,12.96-3.97,25.94c-.7,4.34-1.43,8.69-2.36,13.06-.49,2.18-1,4.38-1.69,6.58-.69,2.2-1.51,4.43-2.86,6.6-.7,1.07-1.51,2.14-2.61,3.01-1.08,.87-2.35,1.52-3.65,1.87-2.61,.64-5.03,.39-7.28-.04-4.49-.93-8.63-2.43-12.74-4.11,4.41,.43,8.8,1.17,13.04,1.26,2.11,.06,4.17-.12,5.79-.76,1.58-.69,2.64-1.85,3.47-3.52,.82-1.66,1.39-3.64,1.87-5.66,.46-2.04,.86-4.14,1.22-6.27,.71-4.26,1.35-8.59,2.04-12.93,1.37-8.68,3.05-17.39,5.25-25.95,1.12-4.28,2.35-8.54,3.78-12.73,1.48-4.18,2.99-8.37,5.11-12.29Z"/><path d="M1142.51,721.04c-.57,.83-1.14,1.26-1.71,1.57-.57,.29-1.14,.43-1.71,.43-.57,0-1.14-.13-1.71-.43-.57-.31-1.14-.74-1.71-1.57,.57-.83,1.14-1.26,1.71-1.57,.57-.29,1.14-.43,1.71-.43,.57,0,1.14,.14,1.71,.43,.57,.31,1.14,.74,1.71,1.57Z"/><path d="M1102.66,738.61c3.65,2.51,7.2,4.71,10.93,6.71,3.75,1.94,7.72,3.43,11.74,4.64l3.05,.82c1.01,.29,2.06,.45,3.08,.69,2.04,.49,4.15,.74,6.22,1.06,1.03,.19,2.09,.23,3.14,.34l3.14,.31,6.32,.29h.14c1.49,.08,2.65,1.34,2.58,2.83-.07,1.49-1.34,2.65-2.83,2.58h-.03c-2.22-.13-4.44-.26-6.66-.46l-3.31-.44c-1.1-.15-2.21-.28-3.3-.54-2.18-.47-4.37-.86-6.52-1.51-1.07-.31-2.16-.56-3.21-.93l-3.16-1.11c-4.17-1.6-8.2-3.56-11.94-5.99-.92-.63-1.87-1.2-2.74-1.91l-1.32-1.03c-.43-.36-.83-.75-1.24-1.12-1.6-1.54-3.11-3.24-4.11-5.25Z"/><path class="aq" d="M987.96,604.5s-15.88-4.85-26.74,9.56c-10.86,14.41-37.14,44.7-82.29,55.55-45.14,10.86-68.29,10.57-89.43,19.14-21.14,8.57-23.71,11.71-41.43,13.14-17.71,1.43-29.71,11.43-48.57,24.86-18.86,13.43-124.86,93.71-184,158.86-59.14,65.14-65.14,98.57-65.14,98.57,0,0-9.43,72.57,72.86,122,82.29,49.43,108,21.14,108,21.14,0,0,47.14-36,76.29-34.29,0,0-7.71,10.29-3.43,123.43,4.29,113.14-3.43,177.43-10.29,200.57"/><path class="aq" d="M450.37,984.18s-107.14,101.14-138.86,194.57c-31.71,93.43-19.71,115.71,0,148.29,19.71,32.57,57.43,87.43,108.86,129.43,51.43,42,130.29,102,146.57,115.71,16.29,13.71,36,45.43,63.43,69.43,27.43,24,59.14-2.57,84,0,24.86,2.57,76.29,1.71,96.86-39.43,0,0,18-.86,19.43-10.29s-10.86-14-17.14-18c-6.29-4-70-18.86-90.57-42.43-20.57-23.57-37.71-55.29-37.71-55.29,0,0,29.57,26.14,56.57,37.71,27,11.57,51.43,21.43,72,19.71,20.57-1.71,36.43-18.86,31.29-30.43-5.14-11.57-39-14.14-66.86-29.57-27.86-15.43-61.71-34.29-68.57-44.57-6.86-10.29-17.57-13.71-36.43-12-18.86,1.71-79.28,6.29-104.21,0-24.93-6.29-42.65-24.57-60.36-58.86-17.71-34.29-22.86-86.29-31.43-100.57l9.14-35.43"/><path d="M628.44,1131.41c-1.75,3.92-3.69,7.58-5.82,11.2-2.09,3.63-4.42,7.1-6.81,10.55-4.84,6.84-10.34,13.23-16.46,19.01-6.12,5.78-12.97,10.85-20.43,14.88l-21.95,11.45c-14.6,7.66-29.56,15.24-45.67,19.88-2,.6-4.05,1.04-6.07,1.57-2.02,.55-4.08,.91-6.14,1.3-2.06,.38-4.11,.78-6.19,.98-2.08,.23-4.14,.54-6.23,.7l-6.25,.35c-1.04,.09-2.08,.07-3.13,.04l-3.12-.06-3.12-.06c-1.04-.03-2.07-.16-3.11-.24l-6.2-.57c-.42-.04-.74-.41-.7-.84,.04-.41,.38-.71,.78-.7h.04c8.21,.19,16.38-.03,24.47-1.07,2.02-.25,4.02-.65,6.03-.97,2.01-.29,3.99-.77,5.97-1.23,1.98-.45,3.97-.85,5.92-1.45,1.95-.57,3.92-1.06,5.85-1.7,15.53-4.9,30.18-12.27,44.68-20.05l10.93-5.82c1.82-.97,3.66-1.92,5.51-2.87l2.76-1.42c.92-.47,1.76-.98,2.65-1.45,7.06-3.77,13.62-8.56,19.51-14.07,5.9-5.51,11.22-11.67,16.04-18.2,2.36-3.3,4.68-6.64,6.76-10.13,2.09-3.46,4.14-7.04,5.83-10.61l.03-.07c.47-1,1.67-1.42,2.66-.95,.98,.47,1.41,1.63,.97,2.62Z"/><path class="aq" d="M1298.26,658.14s24.68,15.18,47.82,28.32c23.14,13.15,62.57,26.86,108,52.15,45.43,25.29,63.43,27.86,82.29,35.57,18.86,7.71,33.43,36,45.43,68.57,12,32.57,41.14,89.14,53.14,105.43,12,16.29,31.71,78.86,31.71,90,0,0-63.43,84.86-187.71,113.14l-4.29-11.14s-18.57,45.43-36.86,67.14c-18.29,21.71-17.14,32.57-18.29,54.29-1.14,21.71,5.64,193.15,5.64,193.15"/><path d="M771.8,1308.18c6.8,7.12,14.36,13.44,22.19,19.33,7.84,5.89,16.03,11.28,24.47,16.22,8.47,4.9,17.17,9.39,26.11,13.32,8.94,3.95,18.03,7.56,27.35,10.5,2.3,.82,4.67,1.44,7,2.18l3.51,1.06c1.17,.35,2.36,.63,3.54,.95l7.09,1.86,7.15,1.61c1.19,.26,2.38,.57,3.58,.8l3.6,.69c2.4,.45,4.8,.94,7.21,1.35l7.26,1.11c1.21,.18,2.42,.4,3.63,.56l3.65,.43c19.45,2.39,39.11,3.12,58.81,2.59-19.59,2.19-39.44,2.34-59.15,.51-19.72-1.74-39.24-5.86-58.12-11.9-18.84-6.19-37.02-14.46-53.84-24.97-8.41-5.23-16.46-11.05-24.08-17.35-3.78-3.2-7.5-6.45-11.01-9.93-3.52-3.46-6.91-7.07-9.97-10.93Z"/><path d="M825.8,1470.18c8.59-7.73,18.44-13.96,28.65-19.42,10.28-5.37,21.23-9.53,32.56-12.27,5.66-1.39,11.43-2.38,17.24-2.96,2.9-.22,5.86-.5,8.71-.67l8.57-.54c11.43-.9,22.84-2.28,34.21-3.89,11.38-1.6,22.73-3.47,34.05-5.5,11.32-2.02,22.62-4.23,33.88-6.58,11.26-2.35,22.5-4.85,33.67-7.61,11.2-2.67,22.32-5.65,33.32-9.13l-8.08,3.09-8.19,2.8c-5.49,1.77-10.99,3.53-16.53,5.14-5.53,1.65-11.12,3.09-16.69,4.62-5.59,1.42-11.19,2.85-16.81,4.15-11.22,2.73-22.54,5.01-33.87,7.26-5.68,1.07-11.35,2.11-17.06,3.04-5.69,.99-11.41,1.83-17.12,2.69-11.46,1.54-22.94,2.92-34.51,3.7l-8.69,.4c-2.9,.13-5.68,.35-8.53,.51-5.66,.5-11.3,1.31-16.87,2.51-5.58,1.17-11.06,2.77-16.48,4.57-1.37,.4-2.69,.97-4.03,1.45l-4.01,1.51c-2.62,1.14-5.27,2.23-7.86,3.45-5.21,2.4-10.28,5.09-15.23,8l-3.66,2.27c-1.22,.76-2.4,1.58-3.61,2.36-2.38,1.61-4.76,3.24-7.01,5.04Z"/><path d="M1156.66,1449.61c13.21-10.9,27.43-20.55,42.11-29.43,14.75-8.77,30.04-16.72,46.03-23.1,16.02-6.25,32.17-11.73,48.2-17.63,7.99-2.98,15.96-5.99,23.57-9.74,7.6-3.68,14.82-8.43,20.09-15.24-2.26,3.64-5.19,6.87-8.49,9.66-3.27,2.84-6.96,5.14-10.68,7.31-7.53,4.22-15.43,7.67-23.36,10.91-7.92,3.28-15.94,6.26-23.93,9.33l-12,4.5-6,2.26-5.92,2.35-2.97,1.16-2.93,1.25-5.85,2.51c-1.94,.86-3.86,1.79-5.79,2.68-1.93,.9-3.86,1.78-5.76,2.73-7.68,3.65-15.17,7.71-22.67,11.76-14.88,8.31-29.48,17.17-43.67,26.74Z"/><path d="M810.91,1604.15c-6.77-.91-13.48-2.06-20.2-3.18-6.71-1.22-13.4-2.51-20.08-3.88-6.69-1.36-13.33-2.97-19.96-4.72-3.31-.89-6.61-1.88-9.9-2.98l-2.46-.88-1.23-.45-1.23-.53-2.46-1.07-2.33-1.29c-.79-.42-1.53-.88-2.26-1.36l-2.21-1.42c-1.43-.99-2.83-2-4.24-3.01l-4.09-3.15-3.98-3.27c-5.23-4.43-10.27-9.04-15.15-13.82-4.88-4.77-9.66-9.63-14.29-14.63-4.58-5.05-9.11-10.14-13.32-15.49,4.73,4.9,9.54,9.69,14.49,14.34,4.92,4.68,9.92,9.27,15.03,13.72,5.12,4.43,10.28,8.83,15.6,12.97,5.33,4.09,10.76,8.18,16.53,11.26l2.16,1.12,2.24,.92,1.12,.46,1.17,.4,2.36,.79c3.17,1,6.41,1.9,9.68,2.72,6.52,1.69,13.13,3.15,19.75,4.58,6.62,1.43,13.27,2.77,19.93,4.04,6.64,1.35,13.33,2.57,19.98,3.86h.01c1.08,.21,1.79,1.26,1.58,2.35-.2,1.04-1.19,1.74-2.23,1.6Z"/><path d="M644.57,1557.02c3.33,1.15,6.31,3.08,9.15,5.11,2.84,2.05,5.54,4.26,8.18,6.55,5.23,4.61,10.24,9.45,15.24,14.25,5,4.81,9.93,9.67,15.05,14.25,2.55,2.29,5.15,4.52,7.85,6.56,.68,.49,1.35,1.01,2.04,1.47l1.03,.7,1.02,.61c1.36,.81,2.87,1.5,4.4,2.15,6.19,2.54,12.87,4.27,19.54,5.9,6.69,1.6,13.45,2.94,20.23,4.24,6.79,1.28,13.61,2.4,20.44,3.48,6.82,1.12,13.68,2.11,20.51,3.09h.02c1.09,.16,1.85,1.17,1.69,2.27-.15,1.06-1.11,1.8-2.17,1.71-6.95-.65-13.84-1.57-20.74-2.49-6.89-.97-13.76-2.1-20.62-3.33-6.86-1.23-13.7-2.63-20.49-4.32-3.4-.84-6.79-1.74-10.15-2.79-3.37-1.05-6.72-2.19-10.02-3.63-1.65-.74-3.29-1.51-4.9-2.51l-1.19-.76-1.1-.79c-.74-.52-1.42-1.09-2.14-1.63-2.79-2.23-5.39-4.59-7.93-7.01-5.06-4.85-9.84-9.9-14.59-14.96-4.74-5.07-9.45-10.15-14.37-14.99-2.45-2.43-4.93-4.83-7.57-7.04-2.64-2.19-5.39-4.31-8.52-5.75h0c-.09-.04-.12-.14-.08-.23,.04-.08,.13-.12,.21-.09Z"/><path d="M705.3,1643.8c-1.44,.17-2.56,.14-3.82,.13-1.2-.09-2.41-.15-3.59-.33-1.17-.19-2.37-.34-3.52-.6l-3.46-.81c-4.53-1.31-8.97-2.93-13.15-5.01-2.1-1.02-4.22-2.02-6.2-3.24l-3.02-1.75-1.51-.88c-.49-.31-.96-.65-1.45-.97l-5.75-3.91c-1.85-1.39-3.67-2.82-5.49-4.25-.91-.72-1.83-1.42-2.72-2.15l-2.6-2.29c-1.73-1.52-3.46-3.05-5.17-4.59-3.28-3.23-6.57-6.44-9.72-9.78l-4.57-5.15-2.27-2.58c-.75-.86-1.53-1.7-2.22-2.62-2.81-3.62-5.67-7.19-8.42-10.84,3.28,3.2,6.43,6.49,9.64,9.73,3.24,3.2,6.61,6.26,9.86,9.43,1.64,1.57,3.42,2.99,5.1,4.51,1.71,1.49,3.38,3.01,5.11,4.47,1.78,1.4,3.54,2.81,5.3,4.23l2.64,2.12c.9,.68,1.83,1.32,2.74,1.98l5.48,3.94,5.67,3.63,1.42,.91,1.46,.83,2.91,1.66c1.91,1.16,3.95,2.07,5.93,3.07,1.97,1.05,4.04,1.84,6.08,2.7,.51,.21,1.01,.45,1.53,.64l1.56,.54c1.04,.35,2.08,.74,3.13,1.06l3.17,.88c1.06,.29,2.13,.45,3.19,.7,1.06,.22,2.13,.33,3.2,.49l1.58,.13c.26,.02,.51,.01,.76,.02h.9c1.1-.02,2.01,.86,2.03,1.96,.02,1.03-.76,1.89-1.75,2.01Z"/><path class="aq" d="M1478.94,1151.32s25.71,89.14,68.57,113.14"/><path d="M1660.01,1048.25c.86,9.4,2.41,18.89,4.32,28.21,1.93,9.34,4.3,18.58,7.22,27.64,1.47,4.53,3.06,9.01,4.83,13.42,.82,2.23,1.83,4.38,2.77,6.56l2.91,6.58c3.92,8.83,7.47,17.8,10.77,26.86,6.52,18.15,12.11,36.62,16.51,55.41,2.23,9.39,4.07,18.87,5.49,28.44,1.43,9.56,2.32,19.26,2.41,28.95,.19,19.37-1.73,38.64-4.79,57.7-3.22,19.03-7.81,37.85-14.03,56.15-6.2,18.3-14.35,36.01-24.67,52.43l-1.91,3.09c-.67,1.01-1.38,1.99-2.06,2.99l-4.15,5.97-4.43,5.76-2.23,2.87-2.35,2.77c-6.17,7.47-12.92,14.41-19.69,21.24-13.61,13.6-27.42,26.85-39.11,41.93l-4.35,5.67c-1.46,1.88-2.75,3.89-4.13,5.83l-2.04,2.93c-.68,.98-1.38,1.94-1.99,2.97l-3.79,6.06-1.9,3.03c-.63,1.01-1.18,2.07-1.77,3.11l-3.5,6.24-3.54,6.31c-.6,1.06-1.18,2.13-1.8,3.17l-1.94,3.09c-10.41,16.46-23.66,30.86-38.04,43.75-14.42,12.89-30.07,24.31-46.32,34.69-16.26,10.38-33.19,19.68-50.5,28.13l-6.49,3.14c-.52,.26-1.1,.52-1.7,.76l-1.77,.74c-.3,.12-.58,.26-.89,.35l-.93,.27-1.86,.53c-5.03,1.32-10.65,.63-15.34-1.59-.61-.24-1.17-.57-1.72-.9l-1.67-.98c-1.03-.75-2.09-1.48-3.06-2.29-1.93-1.65-3.71-3.42-5.32-5.32-3.24-3.79-5.94-7.91-8.4-12.13l-1.78-3.2-.83-1.42-.94-1.35c-1.33-1.75-2.95-3.33-4.72-4.82-3.51-3.01-7.69-5.48-11.31-9.3-6.47-7.07-13.06-14.04-19.63-21.05-3.28-3.51-6.57-7.03-9.79-10.61-3.21-3.54-6.52-7.27-9.23-11.43-1.37-2.08-2.61-4.28-3.61-6.65-.95-2.38-1.79-4.97-1.55-7.94,.12-1.46,.59-3.04,1.55-4.35,.95-1.31,2.26-2.25,3.59-2.85,2.69-1.19,5.36-1.34,7.92-1.34l-.93,3.79h0c-.38-.2-.57-.33-.82-.49-.25-.15-.46-.32-.68-.49-.43-.34-.85-.68-1.22-1.06-.78-.73-1.43-1.56-2.03-2.42-1.2-1.72-2-3.65-2.56-5.6-1.09-3.93-1.16-7.96-.7-11.8l.45-2.9c.25-.98,.41-1.95,.76-2.94l.53-1.48c.19-.49,.48-.98,.72-1.47,.22-.49,.57-.97,.93-1.44l.53-.7c.2-.22,.44-.43,.66-.64l.69-.62c.25-.19,.53-.35,.8-.52,.27-.17,.54-.33,.82-.48l.88-.34c.59-.25,1.19-.36,1.78-.45,.61-.13,1.17-.12,1.74-.14,2.27,0,4.26,.49,6.13,1.01,.94,.26,1.83,.56,2.72,.86l1.31,.45,1.23,.39c1.65,.51,3.39,.93,5.12,1.32,3.49,.76,7.03,1.33,10.59,1.79,7.13,.9,14.34,1.19,21.51,.9,14.36-.51,28.61-3.56,41.85-9.21,1.66-.67,3.24-1.48,4.84-2.27l2.32-1.31c.77-.45,1.51-.93,2.27-1.4,3-1.91,5.8-4.24,8.82-6.41,5.97-4.45,12.65-7.85,19.49-10.49-6.38,3.66-12.49,7.65-17.92,12.46-2.72,2.4-5.44,4.91-8.46,7.19-3,2.29-6.31,4.2-9.69,5.83-13.47,6.54-28.38,9.89-43.28,10.68-7.47,.36-14.96,.1-22.38-.79-3.71-.47-7.41-1.09-11.08-1.9-1.84-.42-3.67-.87-5.52-1.45l-1.39-.44-1.29-.44c-.85-.28-1.69-.57-2.51-.82-1.64-.5-3.26-.87-4.66-.88-1.41,0-2.45,.34-3.32,1.15-.87,.82-1.62,2.11-2.13,3.64-.29,.73-.45,1.58-.68,2.36l-.46,2.52c-.51,3.41-.51,6.85,.28,10.03,.4,1.58,1,3.08,1.83,4.42,.42,.66,.88,1.31,1.41,1.85,.25,.29,.54,.54,.82,.79,.14,.12,.28,.24,.42,.34l.34,.24h0l.53,.61c.7,.8,.61,2.01-.18,2.71-.37,.32-.83,.48-1.28,.47-2.22-.02-4.46,.19-6.18,.97-1.74,.79-2.67,2.05-2.81,3.92-.17,1.85,.43,4.01,1.26,6.05,.87,2.05,1.99,4.06,3.26,5.99,2.54,3.89,5.62,7.38,8.86,10.94,3.2,3.55,6.47,7.06,9.74,10.56,6.56,6.99,13.17,13.98,19.66,21.08,2.99,3.2,7.14,5.73,10.94,8.95,1.9,1.6,3.75,3.39,5.33,5.46,.38,.53,.75,1.07,1.12,1.61l.99,1.68,1.72,3.09c2.36,4.08,4.96,8.01,7.96,11.52,3.01,3.48,6.43,6.65,10.44,8.48,3.97,1.84,8.43,2.43,12.73,1.32l1.6-.46,.8-.22c.27-.08,.52-.21,.78-.31l1.55-.65,.78-.32,.81-.39,6.48-3.13c17.2-8.4,33.99-17.62,50.1-27.91,16.11-10.29,31.59-21.59,45.81-34.3,14.18-12.71,27.18-26.86,37.32-42.9l1.89-3.01c.61-1.02,1.17-2.06,1.75-3.09l3.51-6.25,3.55-6.33c.6-1.05,1.16-2.12,1.8-3.15l1.92-3.08,3.85-6.15c.62-1.04,1.33-2.02,2.02-3.01l2.07-2.98c1.4-1.97,2.71-4.01,4.2-5.92l4.42-5.76c11.88-15.32,25.89-28.75,39.42-42.28,6.74-6.8,13.4-13.65,19.46-20.99l2.31-2.72,2.19-2.82,4.35-5.65,4.07-5.85c.67-.98,1.37-1.94,2.03-2.93l1.88-3.03c10.11-16.11,18.14-33.52,24.26-51.59,6.14-18.07,10.68-36.68,13.87-55.51,3.03-18.85,4.93-37.94,4.74-56.99-.09-9.52-.96-18.98-2.37-28.41-1.4-9.43-3.22-18.81-5.43-28.11-4.35-18.61-9.9-36.96-16.37-54.96-3.28-8.98-6.8-17.87-10.67-26.6l-2.92-6.59c-.95-2.23-1.99-4.43-2.83-6.71-1.8-4.5-3.42-9.07-4.92-13.68-2.98-9.22-5.38-18.6-7.34-28.07-1.94-9.49-3.5-18.99-4.39-28.71-.1-1.1,.71-2.07,1.81-2.17,1.1-.1,2.07,.71,2.17,1.81v.06Z"/><path d="M1346.2,1549.85c-2.15-.7-4.02-1.54-5.92-2.56-1.87-1.02-3.66-2.18-5.35-3.52-3.33-2.7-6.25-6.24-7.74-10.5l-.46-1.62c-.16-.54-.31-1.08-.35-1.64-.13-1.1-.35-2.23-.31-3.29l-.02-1.62c0-.54,.08-1.1,.12-1.64,.05-1.09,.32-2.21,.56-3.32,.61-2.19,1.76-4.52,3.8-6.09,.98-.82,2.15-1.37,3.34-1.74,.6-.18,1.21-.3,1.83-.38,.31-.02,.62-.06,.94-.06,.33,0,.59,0,1.05,.04h0c1.1,.12,1.89,1.11,1.77,2.2-.12,1.1-1.11,1.89-2.2,1.77-.02,0-.05,0-.06,0-2.74-.38-5.23-.99-7.78-1.73-2.53-.73-5-1.7-7.41-2.78-4.79-2.24-9.41-5.15-13.09-9.18l-1.36-1.53c-.46-.5-.82-1.09-1.23-1.64-.39-.56-.8-1.1-1.18-1.68-.34-.62-.74-1.19-1.03-1.85-.66-1.26-1.13-2.66-1.48-4.1-.3-1.47-.39-3.02-.18-4.56,.38-3.12,2.14-5.9,4.25-7.9,2.16-2,4.67-3.39,7.28-4.36,5.22-1.92,10.84-2.34,16.3-1.28l1.91,.41c.6,.12,1.19,.27,1.79,.37l1.78,.29c.59,.09,1.18,.13,1.78,.19,2.36,.2,4.72,.13,7.1-.17,4.76-.68,9.59-2.08,14.44-3.53l14.58-4.47c9.78-2.93,19.51-5.82,29.36-8.59,9.84-2.74,19.77-5.28,29.88-7.2,5.06-.96,10.16-1.74,15.33-2.24,5.16-.51,10.4-.7,15.67-.36,2.64,.2,5.28,.51,7.91,1.06,2.62,.56,5.26,1.35,7.76,2.42l3.58,1.6c1.18,.6,2.36,1.18,3.53,1.81,2.32,1.3,4.64,2.74,6.77,4.59,1.07,.91,2.06,1.99,2.91,2.96l.59,.66,.49,.49c.15,.09,.28,.22,.42,.31,.16,.06,.29,.15,.45,.23,1.48,.54,4.15,.61,6.5,.56,2.41-.04,4.8-.28,7.1-.77,2.31-.48,4.55-1.17,6.61-2.17,4.13-1.95,7.41-5.22,8.48-9.31,1.26-4.87,2.42-9.81,3.49-14.75,4.29-19.77,7.34-39.85,8.75-60.01,.14-2.52,.33-5.04,.43-7.56l.25-7.57,.04-7.56-.06-7.64c-.06-10.19-.04-20.39,.22-30.61,.26-10.21,.79-20.44,1.89-30.66,.59-5.1,1.23-10.22,2.3-15.28,1.13-5.03,2.79-10.04,5.65-14.47,.13-.2,.4-.26,.61-.13,.14,.09,.21,.26,.2,.41-.48,5.19-1.26,10.09-2.08,15.04-.92,4.92-1.6,9.91-2.14,14.92-1.04,10.03-1.53,20.15-1.75,30.28-.22,10.14-.21,20.29-.11,30.45l.09,7.63v7.7l-.23,7.69c-.09,2.56-.28,5.12-.41,7.68-1.35,20.46-4.37,40.75-8.63,60.77-1.07,5.01-2.22,9.99-3.49,14.97-.75,2.89-2.29,5.57-4.29,7.71-2,2.15-4.4,3.79-6.92,5.01-2.53,1.22-5.17,2.06-7.84,2.61-2.67,.56-5.37,.82-8.05,.86-.67,.02-1.34,.03-2.01,0-.68-.03-1.32,0-2.04-.08-.71-.07-1.38-.09-2.17-.25-.39-.08-.74-.11-1.15-.24l-1.23-.4c-.42-.19-.84-.42-1.25-.64-.39-.25-.74-.55-1.1-.83-.3-.28-.58-.57-.86-.85l-.68-.76c-.83-.94-1.56-1.74-2.43-2.48-3.46-2.96-7.93-5.2-12.48-7.15-2.18-.93-4.43-1.61-6.78-2.13-2.35-.5-4.77-.78-7.2-.98-4.89-.32-9.86-.16-14.82,.32-4.97,.47-9.93,1.22-14.87,2.15-9.89,1.86-19.7,4.34-29.47,7.05-9.76,2.72-19.54,5.6-29.27,8.5l-14.64,4.38c-4.91,1.42-9.89,2.87-15.22,3.59-2.67,.33-5.43,.39-8.13,.14-.67-.08-1.35-.13-2.02-.23l-1.98-.34c-.66-.11-1.3-.28-1.95-.42l-1.82-.4c-4.51-.93-9.43-.59-13.77,.99-2.16,.79-4.18,1.91-5.77,3.37-1.56,1.47-2.67,3.26-2.92,5.23-.13,.98-.1,2,.1,3.03,.25,1.02,.57,2.06,1.09,3.06,.21,.51,.55,.99,.81,1.49,.31,.49,.67,.96,1,1.45,.35,.47,.64,.99,1.05,1.42l1.17,1.33c3.16,3.55,7.28,6.23,11.66,8.35,2.21,1.02,4.49,1.95,6.84,2.66,2.32,.71,4.79,1.33,7.08,1.68l-.49,3.97s-.3-.01-.46,0c-.18,0-.38,.03-.57,.04-.38,.05-.76,.12-1.13,.23-.72,.24-1.42,.55-1.99,1.04-1.19,.9-1.97,2.37-2.44,4.03-.17,.86-.41,1.71-.44,2.64-.03,.46-.1,.91-.1,1.37l.02,1.41c.03,1.87,.36,3.6,.9,5.33,1.19,3.39,3.57,6.34,6.47,8.7,1.47,1.17,3.07,2.2,4.74,3.12,1.65,.9,3.49,1.7,5.17,2.25l.1,.03c1.05,.34,1.62,1.47,1.28,2.52-.34,1.05-1.47,1.62-2.52,1.28Z"/><path d="M1333.69,1574.76c5.56,3.1,11.41,6,17.32,8.58,5.9,2.64,11.92,5.01,18.03,7.08,3.05,1.05,6.14,1.98,9.23,2.91l4.67,1.27c1.56,.42,3.13,.74,4.7,1.11,1.56,.39,3.15,.68,4.73,.97,1.57,.27,3.19,.65,4.72,.8,1.54,.24,3.11,.3,4.67,.39,1.57-.01,3.13,.02,4.7-.11,6.28-.37,12.5-2.03,18.48-4.32,5.98-2.34,11.71-5.35,17.35-8.57,5.64-3.23,11.11-6.78,16.69-10.21,2.8-1.69,5.62-3.37,8.54-4.88,2.91-1.5,5.94-2.86,9.13-3.59-3.12,1-5.99,2.56-8.78,4.23-2.78,1.69-5.47,3.53-8.14,5.4-5.36,3.72-10.67,7.54-16.2,11.1-5.51,3.59-11.29,6.82-17.4,9.46-6.12,2.59-12.61,4.58-19.37,5.21-3.37,.36-6.8,.31-10.18-.1-1.72-.14-3.3-.5-4.95-.75-1.64-.26-3.27-.54-4.88-.91-6.49-1.31-12.89-3.05-19.14-5.18-6.26-2.12-12.4-4.55-18.42-7.26-3-1.38-5.97-2.82-8.9-4.34-2.94-1.52-5.81-3.09-8.68-4.86-.94-.58-1.23-1.81-.65-2.75,.56-.91,1.74-1.22,2.67-.7l.06,.03Z"/><path d="M1337.99,1511.98c.36,.05,.95,.11,1.45,.15,.53,.03,1.05,.09,1.59,.1,1.07,.07,2.16,.06,3.24,.07,1.09,0,2.18-.01,3.27-.07,1.09-.02,2.19-.08,3.29-.17,4.39-.27,8.8-.78,13.2-1.39,8.82-1.3,17.53-3.4,26.23-5.8,4.35-1.2,8.69-2.46,13.02-3.73,4.33-1.3,8.64-2.65,12.96-4.03,4.32-1.38,8.65-2.77,13.11-3.79,2.22-.54,4.5-.88,6.77-1.08,2.28-.18,4.57-.04,6.82,.22-2.27-.05-4.53,.06-6.75,.41-2.21,.38-4.4,.89-6.53,1.6-4.28,1.36-8.46,3.1-12.69,4.72-8.44,3.3-16.94,6.56-25.59,9.37-8.62,2.89-17.47,5.4-26.52,7.12-4.54,.82-9.13,1.42-13.79,1.59-2.33,.09-4.67,.04-7.02-.14-1.18-.11-2.35-.24-3.53-.44-.59-.09-1.18-.23-1.77-.35-.62-.15-1.15-.29-1.88-.53-1.05-.35-1.61-1.47-1.27-2.52,.3-.92,1.22-1.47,2.14-1.35l.25,.03Z"/><path d="M1352.17,1621.31c2.25,1.17,4.63,2.31,6.98,3.41,2.37,1.09,4.77,2.11,7.18,3.12,4.81,2.02,9.7,3.87,14.67,5.44,4.96,1.61,9.97,3.06,15.04,4.2,1.26,.32,2.54,.55,3.82,.81,1.28,.23,2.55,.54,3.83,.71l3.85,.6c1.29,.22,2.55,.25,3.83,.39,5.09,.41,10.24,.22,15.15-1.07,4.92-1.28,9.53-3.65,13.93-6.46,4.41-2.81,8.65-6.02,13.21-8.76,4.55-2.75,9.37-5.09,14.43-6.65-4.88,2.05-9.47,4.65-13.73,7.72-4.29,3.03-8.33,6.41-12.65,9.55-1.07,.8-2.21,1.52-3.32,2.28-1.12,.74-2.32,1.39-3.48,2.08-1.2,.63-2.45,1.19-3.68,1.78-1.27,.49-2.57,.95-3.86,1.42-5.26,1.66-10.82,2.07-16.23,1.82-5.46-.2-10.71-1.1-15.98-2.11l-3.93-.83-3.89-.99c-1.3-.32-2.58-.7-3.87-1.07-1.28-.38-2.58-.73-3.84-1.16-10.19-3.33-20.04-7.39-29.43-12.74-.96-.55-1.29-1.77-.75-2.73,.53-.94,1.71-1.28,2.65-.79l.07,.04Z"/><path class="aq" d="M816.38,1575.58s27.41,4.26,59.99,0,84.43-3.53,145.29,1.89c60.86,5.42,123.86,3.3,165.86-4.64,42-7.94,125.49-4.21,147.69-31.44"/><path class="aq" d="M796.89,1621.21s128.33,82.11,235.76,91.83c107.43,9.71,178.29,1.71,229.71-9.14,51.43-10.86,103.28-42.43,115.22-54.11"/><path class="aq" d="M1409.63,1682.38s1.31,66.37-4.98,104.94c0,0-98.86,48-225.71,44.57,0,0,1.71,5.57-9,6.43-10.71,.86-46.29-2.57-78.86,1.71-32.57,4.29-57.43,3-60.43-2.57s0-22.71,0-22.71c0,0-241.63-39.43-341.31-169.43"/><path class="aq" d="M1030.66,1814.75s-3.71-70.57,2-101.71"/><path class="aq" d="M1178.94,1831.89s10.29-84.11-3.43-114.49"/><path class="aq" d="M705.05,1663.85s-21.53,90.05-10.39,132.91c0,0,108,87.43,205.71,128.57,97.71,41.14,221.14,40.29,290.57,10.29,69.43-30,68.57-46.29,91.71-57.43,23.14-11.14,88.65-39.43,103.9-83.14"/><path class="aq" d="M1390.24,1793.56s26.99,142.9,34.7,202.04c7.71,59.14,50.57,233.73,50.57,233.73"/><path class="aq" d="M692.99,1788.53s-9.91-14.22-9.91,0-5.57,61.36-21,139.36c-15.43,78-48.58,150.86-45.43,301.44"/></g><polygon class="ap" points="801.23 2229.18 2245.23 2229.18 2245.23 -16.82 -17.77 -16.82 -17.77 2229.18 119.52 2229.18 412.66 2229.18 493.66 2229.18 801.23 2229.18"/></g><path class="ag" d="M983.12,350.32c7.04-19.81,9.33-40.98,16.87-60.62,3.84-10,10.27-18.7,14.1-28.7,3.88-10.14,5.12-21.06,8.53-31.35,2.43-7.35-9.15-10.5-11.57-3.19-3.31,10.02-4.53,20.64-8.21,30.54-3.82,10.26-10.47,19.24-14.41,29.52-7.54,19.64-9.83,40.82-16.87,60.62-2.59,7.29,9,10.43,11.57,3.19h0Z"/><path class="aj" d="M995.21,248.03c7.72,0,7.73-12,0-12s-7.73,12,0,12h0Z"/><path class="ai" d="M992.29,212.81c-2.93,8.72-4.4,17.74-4.51,26.94l11.79-1.6c-.8-3.17-1.5-5.8-4.9-7-2.91-1.03-5.78-.03-7.74,2.29-1.83,2.17-2.25,4.82-2.09,7.56,.11,1.88,.41,3.76,.62,5.64,.1,.92,.08,5.43,.78,4.09l3.59-2.76-.79,.11,4.62,.6-.64-.48,2.97,5.18,.07-.66c.81-7.68-11.17-7.6-12,0-3.14,28.65-7.71,57.1-13.64,85.3-1.58,7.53,9.98,10.76,11.57,3.19,6.15-29.25,10.81-58.78,14.07-88.49h-12c-.64,6.08,7.4,9.31,11.61,5.27,2.44-2.34,2.37-5.47,2.11-8.54-.14-1.57-.34-3.13-.51-4.7l-.31-2.82c.17-2.51-.37-2.53-1.6-.08l-4.62,.6,.75,.26-4.19-4.19,.71,2.81c1.67,6.63,11.71,5.13,11.79-1.6,.1-8.18,1.48-15.99,4.08-23.75,2.46-7.34-9.12-10.49-11.57-3.19h0Z"/><path class="al" d="M995.21,270.25c7.72,0,7.73-12,0-12s-7.73,12,0,12h0Z"/><path class="ak" d="M998.31,254.24c7.72,0,7.73-12,0-12s-7.73,12,0,12h0Z"/><path class="am" d="M981.6,265.74c-1.79,10.42-3.28,20.88-4.5,31.38-.8,6.85,10.02,7.93,11.79,1.6,4.25-15.2,10.38-29.37,15.88-44.1,2.5-6.7,2.1-14,1.96-21.04-.15-7.7-.84-15.39-2.88-22.84-1.76-6.4-12.08-5.3-11.79,1.6,.26,6.1,.22,12.19-.22,18.28-.22,2.98-.51,5.97-.93,8.93-.18,1.27-.38,2.54-.6,3.8-.12,.85-.28,1.7-.48,2.54-.78,2.55,1.35,2.79,6.39,.71-4.03-6.57-14.42-.55-10.36,6.06,2.1,3.41,5.94,4.98,9.78,3.57,4.59-1.69,5.68-6.29,6.4-10.63,1.81-11.01,2.5-22.1,2.02-33.25l-11.79,1.6c1.85,6.76,2.36,13.57,2.47,20.55,.11,7.5-.09,13.53-3.08,20.5-5.66,13.21-10.49,26.71-14.35,40.55l11.79,1.6c1.1-9.44,2.46-18.83,4.07-28.19,1.3-7.55-10.26-10.8-11.57-3.19h0Z"/><path class="ac" d="M1022.94,256.53c-5.14,1.14-9.05,4.47-12.67,8.12-4.28,4.31-6.02,8.09-7.11,13.97-1,5.43-5.51,9.94-8.73,14.25l-12.57,16.86c-4.62,6.2,5.79,12.18,10.36,6.06,6.53-8.76,14.12-17.34,19.74-26.72,1.01-1.7,1.94-3.59,2.48-5.5,.66-2.35,.31-4.97,1.49-7.13,1.87-3.42,6.41-7.49,10.2-8.33,7.54-1.67,4.35-13.24-3.19-11.57h0Z"/><path class="ab" d="M1018.58,259.42c7.72,0,7.73-12,0-12s-7.73,12,0,12h0Z"/><path class="ae" d="M982.05,256.63c-.05,.17-.1,.34-.17,.51l.6-1.43c-.16,.37-.36,.72-.61,1.04l.94-1.21c-.17,.21-.35,.4-.56,.58-.59,.54-1,1.19-1.24,1.93-.38,.72-.55,1.49-.52,2.31,0,1.47,.65,3.23,1.76,4.24s2.64,1.83,4.24,1.76l1.6-.21c1.02-.29,1.9-.8,2.65-1.54,.17-.15,.32-.31,.47-.48,.46-.53,.92-1.1,1.29-1.7,.5-.79,.86-1.7,1.11-2.6,.42-1.49,.18-3.29-.6-4.62-.38-.7-.89-1.26-1.55-1.68-.58-.53-1.26-.89-2.04-1.07-1.54-.35-3.26-.27-4.62,.6s-2.33,2.05-2.76,3.59h0Z"/><path class="af" d="M993.46,254.12l2.16-9.31c.28-1.2,.61-2.42,.82-3.64,.05-.3,.3-4.99,.01-3.75l-1.54,2.65,.66-.59c5.75-5.18-2.76-13.64-8.49-8.49-1.28,1.16-2.04,2.47-2.41,4.16s0,3.64-.16,4.47c-.72,3.79-1.75,7.55-2.62,11.3-1.74,7.51,9.82,10.72,11.57,3.19h0Z"/><path class="ad" d="M981.05,308.2c7.72,0,7.73-12,0-12s-7.73,12,0,12h0Z"/><path class="w" d="M1014.22,267.61c7.72,0,7.73-12,0-12s-7.73,12,0,12h0Z"/><path class="v" d="M1007.99,248.91c7.72,0,7.73-12,0-12s-7.73,12,0,12h0Z"/></svg>