<?xml version="1.0" encoding="UTF-8"?><svg id="a" xmlns="http://www.w3.org/2000/svg" xmlns:xlink="http://www.w3.org/1999/xlink" viewBox="0 0 2263 2246"><defs><style>.f{fill:url(#e);}.g{fill:url(#d);}.h{fill:url(#c);}.i{fill:url(#b);}.j,.k,.l,.m{fill:none;}.n{fill:#f4b98c;}.o{fill:#c49774;}.p{fill:#235e94;}.q{fill:#138287;}.r{fill:#17979d;}.s{fill:#2a6fae;}.k{stroke-width:40px;}.k,.t,.u,.l,.m{stroke-linecap:round;}.k,.t,.l,.m{stroke:#000;stroke-linejoin:round;}.t{fill:#fff;}.t,.l{stroke-width:10px;}.u{fill:#271908;stroke:#221f20;stroke-miterlimit:10;}.m{stroke-width:4px;}.v{opacity:.15;}</style><linearGradient id="b" x1="549.57" y1="799.57" x2="549.57" y2="672.61" gradientTransform="matrix(1, 0, 0, 1, 0, 0)" gradientUnits="userSpaceOnUse"><stop offset=".36" stop-color="#f4b98c"/><stop offset="1" stop-color="#c49774"/></linearGradient><linearGradient id="c" x1="358.44" y1="402.3" x2="682.91" y2="402.3" gradientTransform="matrix(1, 0, 0, 1, 0, 0)" gradientUnits="userSpaceOnUse"><stop offset="0" stop-color="#271908"/><stop offset="1" stop-color="#170900"/></linearGradient><linearGradient id="d" x1="773.53" y1="1512.36" x2="1016.51" y2="1512.36" xlink:href="#b"/><linearGradient id="e" x1="45.57" y1="1074.29" x2="481.44" y2="1142.22" xlink:href="#b"/></defs><path class="n" d="M673.29,505.29s16.85,21.28-6.72,56.85c-18.06,27.25-23.28,37.9-32.65,42.17,0,0,0,.01-.01,.01-.65,1.16-21.76,39.07-21.2,63.82,.36,15.68,.72,38.24,2.32,57.71,.97,11.76,2.39,22.41,4.54,29.72,0,0-61.06,72.37-149.09,61.9,11.41-38.22,7.02-66.13,7.02-66.13,2.37,.85,4.12,.99,5.5-.91,4.57-6.29,1.14-16-9.14-19.6-4.12-1.45-9.33-4.18-14.72-6.5,1.15,.25,27.39,5.99,31.86,.96,4.57-5.15,3.43-12-5.14-15.43s-40-10.86-63.43-14.29c-5.3-.78-9.55-1.17-13.02-1.19l.02-1.09c2.14-12,9.86-27.43,43.71-41.58,33.86-14.14,41.57-15.85,42.86-22.28s-16.29-10.72-36.86-4.72-68.14,28.29-73.71,41.58c-5.57,13.28-12,16.28-20.14,19.71-1.02,.43-1.92,1.03-2.73,1.74l-.13-.74c-4.57-10.86,0-14.86-6.86-45.14-1.93-8.54-5.68-14.13-9.97-17.54-10.63-26.76-4.15-64.7-.31-91.03,4-27.43-.58-34.29-7.43-50.86-6.86-16.57,7.43-30.29,20.57-52,13.14-21.72,11.27-63.91,11.27-63.91,15.95-5.14,47.74-11.32,88.16,1.62,58.85,18.86,114.28,36.57,145.14,37.15,0,0,14.29,66.85,0,110.28,0,0,47.43-40,70.29-10.28Z"/><path class="i" d="M493.53,720.29s75.19-37.29,97.47-88.15c22.29-50.86,18.51-37.96,18.51-37.96,0,0-4.72,20.3,22.31,10.95,0,0-3.23,9.2-5.65,14.66-2.42,5.46-13.3,27.13-13.27,42.91s1.5,54.41,1.54,55.05,3.15,29.68,3.84,32.67,2.87,4.02-3.06,9.85c-5.93,5.83-44.23,39.01-76.23,49.58-32,10.57-68.52,7.61-68.52,7.61,0,0,9.72-35.19,7.83-49.55-1.89-14.35,.02-16.31,.02-16.31,0,0,6.25,.41,6.32-4.68,.07-5.1-.76-11.29-6.32-13.9-5.56-2.61-13.61-6.11-10.19-6.32,3.42-.21,15.26,.84,19.35,.21s5.95-5.92,6.04-6.63Z"/><path class="o" d="M368.95,395.14c23.74-10.34,48.77-20.9,74.56-18.52,24.1,2.22,45.54,15.44,67.85,24.84,22.28,9.39,46.09,15.13,70.19,16.92,10.54,10.61,15.07,25.99,16.14,40.9,1.08,14.91-1.06,29.84-2.2,44.74-.2,2.57-.35,5.23,.53,7.64,.89,2.42,3.1,4.54,5.68,4.49,2.57-.05,4.86-3.06,3.63-5.32,13.32-27.86,17.93-60.82,11.9-91.11-1.34-6.74-3.5-13.9-9-18.02-2.79-2.09-6.17-3.19-9.49-4.25l-48.95-15.69-80.53-25.81c-25.74-8.25-53.76-16.5-79.23-7.44-9.98,3.55-20.02,11.46-19.99,22.05,.01,4.1-.92,7.81-.23,11.86s.68,10.16-.84,12.71Z"/><path class="h" d="M664.14,367c36,74.29,9.15,138.29,9.15,138.29-22.86-29.72-70.29,10.28-70.29,10.28,14.29-43.43,0-110.28,0-110.28-30.86-.58-86.29-18.29-145.14-37.15-40.42-12.94-72.21-6.76-88.16-1.62-7.03,2.27-10.99,4.33-11.26,4.47,.2-.84,10.37-40.3,73.13-69.13,63.43-29.15,196.57-9.15,232.57,65.14Z"/><path class="o" d="M362.14,553.92c-2.84,8.92-5.47,17.15-2,22.37,4.75,7.14,20.27,7.62,37.71,.43-1.93-.39-17.32-3.72-20.86-14.86-1.4-4.41-.5-8.67,.57-13.72,1.58-7.44,4.28-11.89,7.43-18.14,2.56-5.09,6.03-12.58,9.43-22.29-9.95,9.23-16.73,18.06-21.13,24.56-7.68,11.36-10.26,18.82-11.16,21.65Z"/><path class="r" d="M812.71,2091.91s9.15,81.66,6.29,154.09H511.43s-3.43-14.14-15.86-31.29c-12.43-17.14-25.71-48.85-25.71-48.85-2.15,9.85-12,22.28-22.29,39.85-10.28,17.58-17.14,40.29-17.14,40.29H137.29c6-36.43,0-81-6.86-141.86-6.86-60.85,4-157.71,7.43-216,3.4-57.82,17.11-90.33,17.33-90.83,9.87-3.16,26.81-8.29,47.24-5.74,32,4,81.71,30.86,130.28,23.43,48.58-7.43,86.29,2.58,113.72,1.29,27.43-1.29,85.14-3.62,118.28,.12,33.15,3.73,113.15-41.98,147.43-51.7,23.9-6.77,44.47-10.76,57.06-11.59,0,0,1.73,15.75,4.33,36.47,3.58,28.63,8.83,66.76,13.47,85.98,0,0-9.14,4-37.71,38.86-24.54,29.93-48.22,64.07-67.09,76.02-4.6,2.91-4.14,8.76-.26,12.59,6.49,6.39,20.15,8.99,38.2-.04,32-16,53.72-66.86,74.86-72,0,0,7,18.86-7.14,50.57-14.15,31.72-20.15,43.72-30,61.72-9.86,18-45.44,72.55-33.43,82.28,15.55,12.61,51.68-46.04,53.1-48.36-.97,1.93-20.5,41-9.82,47.93,15.86,10.29,35.58-33.43,40.29-39.85,1.31-1.79,4.3-5.68,8.35-10.87-.33,.49-6.81,10.27-3.64,17.49Z"/><path class="s" d="M108.7,1045.87c-13.94,1.29-26.19,3.44-34.84,6.81,0,0,15.43-81.68,39.43-138.82,24-57.15,26.85-68.57,62.85-88,35.99-19.43,143.5-47.27,153.19-65.06,1.57,10.09,3.98,19.43,6.75,26.2,2.54,6.19,4.38,15.41,5.69,24.53-.49,1.63-19.24,63.86-54.2,136.04-16.8,34.69-33.1,68.62-50.09,100.67,0,0-76.39-7.24-128.78-2.37Z"/><path class="s" d="M155.19,1797.31c-5.59,1.78-8.92,2.93-9.33,1.69-1.15-3.43,18-32.57,19.71-58.29,1.72-25.71,3.43-84.85,12-144.85,8.52-59.65-3.97-112.19-4.12-112.8,27.33-4.27,55.97-20.28,77.41-54.77,52.71-84.86,69.43-180,85.22-289.29,15.79-109.29,69.06-229.71,69.06-229.71,0,0,15.86,6.42,48-51,8.02-14.31,13.55-28.14,17.34-40.82,88.03,10.47,149.09-61.9,149.09-61.9-2.15-7.31-3.57-17.96-4.54-29.72,0,0,69.11,23.44,122.83,45.72,53.71,22.29,131.43,46,151.14,58s24.86,42.86,51.43,79.72c26.57,36.85,87.43,139.71,87.43,139.71,0,0-3.47,5.27-10.52,13.56-21.97,25.86-78.67,81.1-172.92,97.14-2.4,.42-4.83,.8-7.28,1.16,0,0-12-34.3-12-27.43,0,10.28-34.28,99.43-48.43,216.43-14.14,117-11.42,344.57-6.85,372,4.57,27.43,17.71,34.85,10.85,32-2.08-.87-6.04-1.1-11.51-.74-12.59,.83-33.16,4.82-57.06,11.59-34.28,9.72-114.28,55.43-147.43,51.7-33.14-3.74-90.85-1.41-118.28-.12-27.43,1.29-65.14-8.72-113.72-1.29-48.57,7.43-98.28-19.43-130.28-23.43-20.43-2.55-37.37,2.58-47.24,5.74Z"/><path class="n" d="M777.53,2077.21c-1.42,2.32-37.55,60.97-53.1,48.36-12.01-9.73,23.57-64.28,33.43-82.28,9.85-18,15.85-30,30-61.72,14.14-31.71,7.14-50.57,7.14-50.57-21.14,5.14-42.86,56-74.86,72-18.05,9.03-31.71,6.43-38.2,.04-3.88-3.83-4.34-9.68,.26-12.59,18.87-11.95,42.55-46.09,67.09-76.02,28.57-34.86,37.71-38.86,37.71-38.86-4.64-19.22-9.89-57.35-13.47-85.98l.18-.02c11.58,5.57,32.58-4.71,50.58,2,18,6.72,37.57,0,37.57,0,57.14-85.71,64.43-210.28,70-238.14,5.57-27.86,13.28-111.86,4.71-150.86s-4.28-55.71-4.28-55.71c0,0-20.15-15.86-36.86-51-16.72-35.15-51.01-136.15-51.01-136.15h0c94.25-16.05,150.95-71.29,172.92-97.15,10.91,36.13,31.37,161.58,39.37,208.68s22.86,71.19,22.29,107.76-7.43,115.43-26.86,186.86c-19.43,71.43-61.14,181.71-62.28,214.85-1.15,33.15-4.57,42.86-20,69.72-15.43,26.86-36.57,90.86-52.57,138.28-16,47.43-31.43,64.58-48,79.43-16.58,14.86-49.72,33.15-55.43,25.72-.48-.62-.86-1.27-1.15-1.95-3.17-7.22,3.31-17,3.64-17.49-4.05,5.19-7.04,9.08-8.35,10.87-4.71,6.42-24.43,50.14-40.29,39.85-10.68-6.93,8.85-46,9.82-47.93Z"/><path class="n" d="M409.41,694.38c3.47,.02,7.72,.41,13.02,1.19,23.43,3.43,54.86,10.86,63.43,14.29s9.71,10.28,5.14,15.43c-4.47,5.03-30.71-.71-31.86-.96,5.39,2.32,10.6,5.05,14.72,6.5,10.28,3.6,13.71,13.31,9.14,19.6-1.38,1.9-3.13,1.76-5.5,.91,0,0,4.39,27.91-7.02,66.13-3.79,12.68-9.32,26.51-17.34,40.82-32.14,57.42-48,51-48,51,0,0-53.27,120.42-69.06,229.71-15.79,109.29-32.51,204.43-85.22,289.29-21.44,34.49-50.08,50.5-77.41,54.77-39.9,6.22-76.96-12.6-84.59-35.49-12.86-38.57-33.43-66.86-39.86-84.86s-19.29-37.28,0-92.57c19.24-55.14,58.37-148.95,59.7-224.27,52.39-4.87,128.78,2.37,128.78,2.37,16.99-32.05,33.29-65.98,50.09-100.67,34.96-72.18,53.71-134.41,54.2-136.04-1.31-9.12-3.15-18.34-5.69-24.53-2.77-6.77-5.18-16.11-6.75-26.2-2.25-14.6-2.75-30.77-.04-42.94,4.57-20.57-1.15-81.15-5.72-90.29-3.28-6.56,11.11-11.95,22.03-3.25,4.29,3.41,8.04,9,9.97,17.54,6.86,30.28,2.29,34.28,6.86,45.14l.13,.74c.81-.71,1.71-1.31,2.73-1.74,8.14-3.43,14.57-6.43,20.14-19.71,5.57-13.29,53.14-35.58,73.71-41.58s38.15-1.71,36.86,4.72-9,8.14-42.86,22.28c-33.85,14.15-41.57,29.58-43.71,41.58l-.02,1.09Z"/><path class="o" d="M603.96,515.7c10.41-6.78,20.95-13.62,32.68-17.72,9.87-3.45,21.48-4.66,30.26,1.02,8.14,5.27,12.01,15.52,11.82,25.21-.19,9.69-3.85,18.97-8.03,27.72-6.52,13.65-14.43,26.64-23.57,38.69-3.84,5.07-8.03,10.08-13.56,13.23-5.52,3.15-12.68,4.12-18.2,.96s-8.2-11.16-4.48-16.31c1.6,5.04,7.59,7.77,12.88,7.75s10.28-2.74,14.1-6.4c3.82-3.66,6.64-8.21,9.42-12.71,5.94-9.61,11.97-19.43,14.6-30.41,1.45-6.02,1.82-12.44,.02-18.37-2.04-6.74-6.93-12.57-13.22-15.75-6.74-3.41-14.7-3.74-22.13-2.37s-15.65,2.55-22.61,5.48Z"/><g class="v"><path class="o" d="M649.61,376.71c-3.28-3.68-6.78-7.15-10.36-10.5-3.58-3.36-7.28-6.58-11.08-9.68-7.55-6.24-15.55-11.91-23.79-17.12-8.25-5.21-16.88-9.75-25.71-13.79-8.83-4.03-17.98-7.32-27.28-9.94-18.6-5.33-37.99-7.46-57.25-6.72-9.63,.45-19.24,1.57-28.71,3.46-9.48,1.82-18.85,4.31-28.03,7.4l-.88-7.54c6,.65,11.86,1.42,17.76,2.38,5.88,.96,11.74,2.06,17.58,3.32,5.84,1.28,11.66,2.72,17.42,4.5,5.75,1.83,11.47,3.92,16.97,6.96l12.68,7.01-14.37-1.25c-7.98-.69-16.15-.94-24.24-1.1-8.11-.12-16.23,.06-24.32,.58-8.1,.49-16.17,1.42-24.13,2.95-3.98,.76-7.92,1.74-11.8,2.96-3.87,1.22-7.67,2.72-11.28,4.65,6.8-4.61,14.66-7.51,22.58-9.72,7.95-2.21,16.1-3.6,24.26-4.67,8.18-1.02,16.4-1.58,24.63-1.9,4.11-.16,8.23-.23,12.35-.2,4.13,.03,8.21,.1,12.41,.31l-1.69,5.76c-4.94-2.51-10.44-4.3-15.97-5.86-5.55-1.57-11.23-2.85-16.95-3.96-5.72-1.11-11.49-2.05-17.27-2.86-5.77-.8-11.62-1.59-17.36-2.15l-17.78-1.72,16.89-5.82c9.47-3.26,19.16-5.92,29.01-7.89,9.85-1.96,19.89-3.01,29.93-3.42,20.11-.76,40.32,2.09,59.49,8.01,19.14,6.03,37.2,15.15,53.46,26.62,8.16,5.7,15.81,12.08,23.05,18.84,7.15,6.85,13.96,14.09,19.77,22.08Z"/></g><path class="p" d="M291.57,1445.86c-25.71,72-35.14,65.14-33,78.85,2.14,13.72-8.14,241.72-8.14,246.86s46.28,16.83,101.14,22.99c54.86,6.15,49.71-14.35,105.43,2.74,55.72,17.09,126.74,9.71,129.84,12.84,.81,.82,4.44,1.22,9.36,1.35-12.41,3.77-23.36,5.84-31.49,4.92-33.14-3.74-90.85-1.41-118.28-.12-27.43,1.29-65.14-8.72-113.72-1.29-48.57,7.43-98.28-19.43-130.28-23.43-20.43-2.55-37.37,2.58-47.24,5.74-5.59,1.78-8.92,2.93-9.33,1.69-1.15-3.43,18-32.57,19.71-58.29,1.72-25.71,3.43-84.85,12-144.85,8.52-59.65-3.97-112.19-4.12-112.8,27.33-4.27,55.97-20.28,77.41-54.77,52.71-84.86,69.43-180,85.22-289.29,15.79-109.29,69.06-229.71,69.06-229.71,0,0,15.86,6.42,48-51,8.02-14.31,13.55-28.14,17.34-40.82,.04,0,.08,.01,.12,.01,21.85,2.58,42.03,.06,60.04-5.18,.06-.02,.13-.04,.19-.05,8.31-2.44,16.16-5.45,23.48-8.81,.02-.01,.04-.02,.05-.02,30.58-14.05,52.12-34.12,60.87-43.14,.06-.06,.12-.12,.18-.18,.49-.52,.95-1,1.37-1.44,.02-.03,.05-.06,.09-.1,1.78-1.9,2.7-2.99,2.7-2.99-.11-.39-.23-.79-.33-1.2-.34-1.23-.65-2.54-.95-3.93-.03-.12-.05-.24-.07-.36-1.38-6.51-2.37-14.59-3.11-23.33-.03-.3-.05-.6-.08-.9,0,0,.09,.03,.28,.1,.04,.35,.08,.71,.12,1.07,5.85,5.04,14.71,15.01,23.28,33.78,14.58,31.91-36,73.91-80.57,85.91-44.57,12-80.58,16.29-114.43,79.72-33.85,63.43-61.28,185.14-70.71,220.28-9.43,35.15-55.71,227.15-81.43,299.15Z"/><path class="t" d="M697.86,391.57s138-22.71,198.43-115.28c60.42-92.58,74.57-145.29,240.42-178.72,165.86-33.43,507.43-35.14,692.58-45.43,185.14-10.28,240-8.57,317.14,60,77.14,68.57,73.71,186.86,72,372-1.72,185.15-12,327.43-20.57,401.15-8.57,73.71-65.15,229.98-243.43,274.42-178.29,44.43-689.14,118.15-846.86-84.14-157.71-202.28-228-306.86-240-438.86s27.43-260.57,27.43-260.57c0,0-101.14,68.57-197.14,15.43Z"/><path class="q" d="M819,2246h-110.37c-2.38-40.88-9.35-116.74-29.74-210.43-23.6-108.42-22.12-207.89-20.08-249.09,20.97-9.32,40.4-18.1,53.33-21.77,23.9-6.77,44.47-10.76,57.06-11.59,0,0,1.73,15.75,4.33,36.47,3.58,28.63,8.83,66.76,13.47,85.98,0,0-9.14,4-37.71,38.86-24.54,29.93-48.22,64.07-67.09,76.02-4.6,2.91-4.14,8.76-.26,12.59,6.49,6.39,20.15,8.99,38.2-.04,32-16,53.72-66.86,74.86-72,0,0,7,18.86-7.14,50.57-14.15,31.72-20.15,43.72-30,61.72-9.86,18-45.44,72.55-33.43,82.28,15.55,12.61,51.68-46.04,53.1-48.36-.97,1.93-20.5,41-9.82,47.93,15.86,10.29,35.58-33.43,40.29-39.85,1.3-1.78,4.28-5.65,8.3-10.81-.63,.97-6.67,10.41-3.59,17.43,0,0,9.15,81.66,6.29,154.09Z"/><path class="q" d="M515.14,2246h-3.71s-3.43-14.14-15.86-31.29c-12.43-17.14-25.71-48.85-25.71-48.85-2.15,9.85-12,22.28-22.29,39.85-10.28,17.58-17.14,40.29-17.14,40.29h-40.61c8.35-58.99,23.08-148.23,40.61-189.86,27.43-65.14,29.14-133.71,29.14-164.57s6.33,90.86,14.31,138.86,2.83,82.28,13.12,116.57c8.86,29.52,22.79,74.91,28.14,99Z"/><path class="g" d="M978.32,1363.29c8.94,163.64-32.31,326.36-115.64,467.48,35.59,31.83,51.19,84.33,38.77,130.43-26.11-27.97-61.05-47.56-98.53-55.24,12.34-10.93,8.85-31.75-1-44.98-6.09-8.18-13.97-14.75-21.55-21.62-2.53-16.41-4.92-34.45-6.84-49.77l.18-.02c11.58,5.57,32.58-4.71,50.58,2,18,6.72,37.57,0,37.57,0,57.14-85.71,64.43-210.28,70-238.14,5.57-27.86,13.28-111.86,4.71-150.86-8.57-39-4.28-55.71-4.28-55.71,0,0-20.15-15.86-36.86-51-16.72-35.15-51.01-136.15-51.01-136.15h0c93.09-15.85,149.55-69.93,172.09-96.18-9.92,34.78-29.93,66.62-56.97,90.63-13.98,12.42-30.55,23.84-36.71,41.5-4.58,13.16-2.49,27.69,1.25,41.11,6.92,24.89,19.39,48.22,36.22,67.82,7.37,8.58,15.7,16.64,20.51,26.87,4.82,10.23,5.25,23.59-2.49,31.83Z"/><path class="f" d="M477.5,751.34s4.39,27.91-7.02,66.13c-3.79,12.68-9.32,26.51-17.34,40.82-32.14,57.42-48,51-48,51,0,0-53.27,120.42-69.06,229.71-15.79,109.29-32.51,204.43-85.22,289.29-21.44,34.49-50.08,50.5-77.41,54.77-39.9,6.22-76.96-12.6-84.59-35.49-12.86-38.57-33.43-66.86-39.86-84.86-2.52-7.06-6.04-14.33-8.21-23.88,21.83,22.59,43.65,45.17,65.48,67.76,11.68,12.08,24.28,24.71,40.63,28.63,21.95,5.26,45.07-7.23,58.97-25.01,13.89-17.78,20.47-40.04,26.76-61.71,38.53-132.8,45.89-283.01,123.73-397.29,23-33.76,27.08-79.56,10.42-116.86-8.95-20.03-43.69-47.35-34.07-108.5,10.18-2.99,19.29,27.66,27.01,34.94,7.72,7.27,56.61,14.45,63.85,22.21,7.24,7.76-12.62,38.37-2.06,37.4,10.66-.98,19.22-9.25,25.24-18.1,10.65-15.65,16.27-34.66,15.84-53.59,3.24-2.04,11.24-.37,19.33,2.76-1.19,.75-2.63,.51-4.42-.13Z"/><polygon class="j" points="819 2246 2263 2246 2263 0 0 0 0 2246 137.29 2246 430.43 2246 511.43 2246 819 2246"/><path class="p" d="M949.46,1120.26c-27.51,16.93-62.44,32.19-105.04,39.44-2.4,.42-4.83,.8-7.28,1.16,0,0-12-34.3-12-27.43,0,10.28-34.28,99.43-48.43,216.43-6.69,55.37-9.61,135.49-10.34,207.46-7.51-22.77-9-52.76-11.13-72.96-3.37-31.82-2.5-63.23-2.5-95.13,3.1-70.03,15.59-139.26,28.04-208.24,9.77-54.1,19.54-108.2,29.31-162.3,16.34,35.45,32.68,70.91,49.02,106.36,30.04,4.39,60.94,2.69,90.35-4.79Z"/><g><path class="m" d="M358.43,371h.01c.27-.15,4.23-2.21,11.26-4.48,15.95-5.14,47.74-11.32,88.16,1.62,58.85,18.86,114.28,36.57,145.14,37.15,0,0,14.29,66.85,0,110.28,0,0,47.43-40,70.29-10.28,0,0,26.85-64-9.15-138.29s-169.14-94.29-232.57-65.14c-62.76,28.83-72.93,68.29-73.13,69.13"/><path d="M634.73,606.14c-3.31,1.72-6.93,2.48-10.39,2.83-3.51,.34-7.34,.42-11.09-1.3-1.83-.86-3.59-2.35-4.57-4.25-.49-.94-.83-1.93-1.02-2.92-.19-.99-.22-1.96-.19-2.91,.21-3.8,1.62-7.15,3.48-10.1,.25-.39,.76-.51,1.15-.26,.34,.21,.47,.63,.34,.99v.02c-1.1,3.08-1.79,6.34-1.58,9.32,.13,1.47,.51,2.84,1.22,3.88,.71,1.03,1.68,1.8,2.93,2.28,2.5,.99,5.69,.96,8.83,.66,3.24-.34,6.35-.8,9.21-1.86h.03c1.04-.4,2.19,.13,2.58,1.17,.36,.96-.07,2.01-.95,2.47Z"/><path class="m" d="M673.29,505.29s16.85,21.28-6.72,56.85c-18.06,27.25-23.28,37.9-32.65,42.17"/><path class="m" d="M369.7,366.52s1.87,42.19-11.27,63.91c-13.14,21.71-27.43,35.43-20.57,52,6.85,16.57,11.43,23.43,7.43,50.86-3.84,26.33-10.32,64.27,.31,91.03"/><path class="l" d="M425.86,486.43s21.28-5.72,50.57,2.86"/><path class="l" d="M394.71,485.92s-26-7.56-44.28-2.92"/><path d="M391,510.71c-2.93,7.15-6.47,13.73-10.04,20.24-3.6,6.47-7.34,12.79-10.89,19.07-.9,1.56-1.76,3.13-2.59,4.69l-1.24,2.33-1.14,2.33c-.77,1.54-1.36,3.07-1.91,4.53l-.33,1.05c-.11,.35-.14,.64-.23,.97l-.06,.24-.02,.19-.06,.39c-.04,.12-.04,.29-.02,.47l.02,.54,.03,1.1,.17,1.04,.08,.53c.03,.17,.1,.33,.15,.5,.11,.33,.2,.67,.3,1.02,.55,1.29,1.3,2.57,2.38,3.73,2.21,2.3,5.46,4.09,9.1,5.33-1.89,.49-3.89,.6-5.9,.4-2.02-.2-4.07-.74-6.04-1.72-1.95-1.02-3.74-2.52-5.19-4.39-.32-.48-.64-.97-.95-1.48-.15-.25-.32-.5-.45-.77l-.35-.8-.68-1.62c-.17-.55-.29-1.1-.43-1.66l-.2-.84c-.07-.27-.13-.56-.15-.91l-.08-1.01-.03-.51v-.46c.04-.6,.06-1.24,.13-1.8l.25-1.68c.4-2.15,1.02-4.15,1.71-6.04,.68-1.91,1.5-3.7,2.32-5.49,.87-1.75,1.77-3.47,2.7-5.15,3.81-6.7,8.26-12.85,13.16-18.62,4.95-5.73,10.24-11.17,16.48-15.76Z"/><path d="M344.71,841.86c-2.76-12.83-4.45-25.62-6.77-38.23-.6-3.14-1.29-6.25-2.12-9.29-.42-1.51-.88-3.01-1.4-4.46-.26-.74-.53-1.4-.83-2.16-.32-.78-.62-1.57-.92-2.35-2.31-6.3-3.89-12.73-5.15-19.21-2.42-12.98-3.58-26.19-2.42-39.53,.15-1.67,.36-3.33,.61-5,.14-.83,.25-1.67,.43-2.5l.48-2.43c.59-2.96,.91-6.12,1.12-9.27,.41-6.33,.4-12.77,.24-19.2-.33-12.86-1.29-25.77-2.85-38.54-.4-3.19-.85-6.37-1.36-9.52-.52-3.14-1.1-6.3-1.92-9.19-.21-.69-.44-1.42-.67-1.92l-.26-.62c-.12-.3-.25-.58-.33-.92-.18-.64-.28-1.34-.25-2.05,.04-1.43,.61-2.79,1.36-3.78,.75-1.01,1.63-1.74,2.53-2.32,1.81-1.14,3.7-1.7,5.58-2.02,1.88-.29,3.76-.33,5.6-.11,3.68,.43,7.21,1.78,10.22,3.84,3.02,2.05,5.52,4.76,7.41,7.75,1.91,2.99,3.24,6.25,4.19,9.55,.49,1.66,.83,3.33,1.15,4.91,.32,1.61,.69,3.2,.96,4.82,1.21,6.45,2.15,13,2.53,19.59,.21,3.29,.22,6.58,.42,9.7,.2,3.11,.82,5.98,1.97,8.83,.41,1.02-.08,2.19-1.1,2.6-1,.41-2.14-.06-2.58-1.04h0c-1.39-3.14-2.24-6.67-2.53-10.04-.3-3.36-.4-6.56-.67-9.75-.48-6.36-1.49-12.68-2.77-18.97-.3-1.57-.68-3.14-1.02-4.71-.36-1.59-.68-3.1-1.14-4.55-.9-2.91-2.1-5.71-3.73-8.16-3.19-4.94-8.31-8.42-13.91-9.01-1.38-.15-2.78-.11-4.1,.11-1.31,.23-2.58,.66-3.51,1.27-.46,.3-.83,.64-1.04,.94-.22,.31-.28,.53-.28,.72,0,.1,0,.21,.05,.35,0,.06,.05,.15,.09,.23l.06,.15,.16,.35c.45,.97,.7,1.8,.97,2.66,.97,3.35,1.58,6.58,2.15,9.84,.56,3.25,1.01,6.5,1.43,9.75,1.62,13,2.62,26.02,2.98,39.11,.15,6.55,.14,13.11-.31,19.73-.24,3.32-.57,6.64-1.26,10.04l-.47,2.34c-.16,.76-.27,1.53-.4,2.3-.24,1.54-.44,3.1-.59,4.66-.6,6.27-.58,12.65-.2,19.01,.39,6.36,1.13,12.72,2.28,19,1.15,6.27,2.63,12.5,4.74,18.42,.27,.74,.54,1.47,.83,2.19,.29,.75,.62,1.59,.89,2.39,.56,1.61,1.04,3.23,1.47,4.84,.85,3.23,1.53,6.47,2.12,9.71,1.18,6.48,1.91,12.99,2.25,19.52,.18,3.26,.2,6.54,.18,9.81-.07,3.27-.18,6.54-.58,9.82Z"/><path d="M356.29,703.57c-.15-1.52-.14-3.06-.02-4.6,.1-1.54,.36-3.08,.74-4.62,.38-1.54,.9-3.06,1.65-4.54,.39-.73,.81-1.46,1.34-2.15,.27-.34,.54-.67,.85-.99l.84-.84c.24-.22,.4-.4,.59-.64,.19-.24,.4-.52,.61-.81l1.43-1.82c.98-1.2,1.97-2.37,3-3.51,2.05-2.28,4.18-4.46,6.35-6.59,4.34-4.26,8.83-8.3,13.35-12.3l3.4-2.98,1.7-1.49c.61-.51,1.21-1.02,1.83-1.49,2.47-1.92,5.02-3.6,7.6-5.23,10.36-6.42,21.17-11.85,32.21-16.83,5.53-2.46,11.13-4.79,16.85-6.85,5.72-2.07,11.62-3.82,17.65-5,3.02-.59,6.08-1.04,9.18-1.27,3.11-.22,6.27-.24,9.48,.25,1.61,.25,3.23,.64,4.84,1.31,1.59,.67,3.23,1.66,4.48,3.23,1.27,1.55,1.9,3.64,1.88,5.51,0,.96-.15,2.04-.56,3.03-.41,1-1.03,1.84-1.69,2.53-1.33,1.37-2.76,2.21-4.15,3.01-1.4,.78-2.8,1.44-4.2,2.08-2.8,1.27-5.6,2.4-8.39,3.53l-16.73,6.74-8.33,3.42c-2.74,1.16-5.46,2.33-8.12,3.63-5.33,2.57-10.5,5.47-15.27,8.87-4.75,3.4-9.15,7.31-12.56,11.93-3.44,4.59-5.74,9.9-6.73,15.56-.19,1.09-1.23,1.82-2.31,1.63-1.09-.19-1.82-1.23-1.63-2.31h0c.54-3.11,1.42-6.17,2.67-9.09,1.25-2.92,2.85-5.67,4.71-8.21,3.73-5.09,8.43-9.29,13.42-12.9,5.01-3.61,10.36-6.64,15.84-9.31,2.74-1.36,5.53-2.57,8.32-3.77l8.35-3.46,16.75-6.72c2.78-1.12,5.55-2.25,8.24-3.46,1.34-.61,2.66-1.23,3.89-1.91,1.21-.68,2.39-1.42,3.15-2.23,.78-.82,1.05-1.48,1.06-2.56,0-1.13-.31-2.07-.95-2.87-1.28-1.63-3.94-2.58-6.63-2.99-2.73-.42-5.63-.42-8.51-.22-2.89,.21-5.79,.63-8.68,1.19-11.56,2.24-22.67,6.72-33.6,11.52-10.88,4.89-21.62,10.28-31.72,16.52-2.5,1.57-4.98,3.2-7.26,4.98-.58,.44-1.12,.9-1.66,1.35l-1.7,1.48-3.38,2.97c-4.49,3.97-8.94,7.97-13.2,12.14-2.12,2.08-4.2,4.21-6.17,6.4-.99,1.09-1.94,2.21-2.87,3.34l-1.36,1.72c-.25,.31-.5,.62-.79,.96-.29,.33-.66,.7-.98,.97l-.83,.67c-.24,.2-.47,.42-.69,.65-.47,.44-.91,.95-1.32,1.49-.85,1.07-1.57,2.3-2.22,3.58-1.27,2.6-2.26,5.43-3.04,8.37Z"/><path d="M379.98,750.42c-.28-8.42,.33-16.81,1.56-25.18,.65-4.18,1.43-8.37,2.75-12.52l.49-1.56,.61-1.55c.21-.52,.4-1.03,.66-1.55l.82-1.54,.41-.77,.42-.67,.84-1.34c.57-.9,1.16-1.8,1.8-2.7,1.27-1.78,2.75-3.6,4.66-5.11,1.9-1.53,4.21-2.6,6.49-3.15,2.29-.58,4.55-.75,6.75-.79,2.21-.06,4.37,.06,6.51,.24,4.28,.35,8.45,1.01,12.6,1.65,4.15,.68,8.29,1.39,12.41,2.18,8.25,1.55,16.45,3.32,24.61,5.28,4.08,.99,8.15,2.02,12.21,3.14,2.03,.57,4.06,1.16,6.09,1.8,2.02,.67,4.1,1.32,6.22,2.45,2.07,1.12,4.08,2.7,5.5,4.93,.65,1.15,1.2,2.4,1.39,3.76,.18,1.34,.17,2.73-.19,4.01-.33,1.28-.86,2.48-1.55,3.52-.33,.54-.71,1.02-1.11,1.5-.11,.12-.18,.23-.31,.37l-.48,.45c-.33,.32-.65,.47-.99,.69-1.32,.73-2.52,.99-3.69,1.2-1.17,.21-2.29,.28-3.4,.33-4.43,.13-8.66-.34-12.86-.92-4.2-.6-8.34-1.36-12.48-2.28-1.08-.24-1.76-1.31-1.52-2.39,.24-1.07,1.29-1.75,2.36-1.53h.01c4.03,.83,8.12,1.53,12.19,2.05,4.07,.5,8.19,.89,12.11,.71,.97-.05,1.94-.14,2.82-.31,.88-.16,1.73-.41,2.24-.72,.09-.08,.26-.14,.29-.21,.03-.03,.06-.06,.1-.08,.05-.05,.13-.16,.19-.24,.27-.33,.54-.67,.74-1.03,.46-.7,.76-1.45,.94-2.19,.37-1.49,.1-2.96-.69-4.27-.84-1.3-2.19-2.42-3.79-3.26-1.57-.83-3.49-1.46-5.44-2.08-1.95-.61-3.94-1.17-5.93-1.71-4-1.08-8.03-2.07-12.07-3.03-8.1-1.87-16.24-3.62-24.41-5.18-4.08-.79-8.18-1.49-12.27-2.17-4.11-.64-8.19-1.29-12.24-1.62-2.02-.17-4.04-.28-6.01-.23-1.97,.04-3.91,.19-5.67,.64-1.78,.43-3.33,1.17-4.7,2.26-1.37,1.08-2.58,2.52-3.73,4.13-.57,.81-1.14,1.64-1.7,2.5l-.84,1.3-.42,.65-.33,.61-.67,1.22c-.22,.41-.38,.89-.59,1.33l-.59,1.34-.51,1.41c-1.34,3.77-2.43,7.75-3.38,11.76-1.84,8.06-3.28,16.27-4.9,24.5-.02,.09-.1,.15-.19,.13-.08-.01-.13-.08-.14-.16Z"/><path d="M402.43,757.86c3.8-4.74,7.62-9.46,11.56-14.08,3.95-4.61,7.93-9.22,12.12-13.65,2.11-2.21,4.22-4.41,6.51-6.51,.58-.52,1.12-1.06,1.76-1.56l.92-.76,.46-.38c.17-.13,.37-.25,.55-.37,1.47-1.01,3.18-1.7,4.89-2.03,3.45-.65,6.82-.21,9.9,.6,3.1,.83,6.01,2,8.78,3.37h0l-.79-.16c.48-.02,1.12,.24,1.45,.59l-.62-.42c3.09,1.15,6.1,2.46,9.05,3.71,1.47,.63,2.94,1.24,4.39,1.76,.36,.13,.72,.26,1.08,.37,.33,.1,.82,.3,1.23,.45,.42,.17,.85,.31,1.27,.51l1.23,.62c.42,.19,.81,.44,1.2,.69,.39,.25,.79,.49,1.17,.76,.73,.58,1.5,1.12,2.16,1.81,1.39,1.29,2.55,2.86,3.42,4.61,.86,1.75,1.48,3.68,1.58,5.71,.12,2.02-.21,4.11-1.04,5.99-.39,.97-.93,1.8-1.54,2.69-.36,.49-.85,1-1.46,1.43-.6,.44-1.36,.78-2.11,.94-1.51,.3-2.74,.04-3.71-.22-1-.27-1.79-.61-2.6-.93-1.57-.64-2.97-1.3-4.4-1.83-1.42-.52-2.84-1-4.28-1.28-2.87-.66-5.83-.67-8.8-.32-.74,.09-1.49,.19-2.22,.37-.74,.16-1.48,.3-2.21,.53-1.49,.35-2.94,.88-4.41,1.39l.29-.16c-1.34,.83-2.78,1.74-4.13,2.68-1.35,.96-2.71,1.93-4.02,2.96-1.29,1.05-2.59,2.1-3.8,3.26-1.21,1.15-2.36,2.38-3.43,3.73,.58-1.62,1.42-3.15,2.35-4.62,.97-1.44,2.03-2.84,3.18-4.14,1.15-1.31,2.36-2.57,3.64-3.75,1.29-1.18,2.55-2.34,4.01-3.42,.06-.04,.12-.08,.18-.11l.11-.05c1.53-.72,3.07-1.46,4.7-2.03,.79-.33,1.64-.53,2.47-.77,.83-.26,1.69-.42,2.55-.58,3.43-.67,7.07-.71,10.55-.03,3.48,.61,6.83,1.96,9.71,3.15,.7,.27,1.41,.55,1.98,.7,.59,.17,1.01,.16,1.1,.13,.06-.03,.09,0,.35-.33,.28-.46,.65-.99,.85-1.54,.45-1.09,.66-2.28,.61-3.5-.04-1.22-.42-2.45-.97-3.61-.25-.59-.64-1.13-.99-1.68-.43-.51-.8-1.06-1.3-1.52-.44-.51-1.01-.91-1.52-1.36-.28-.21-.57-.39-.86-.59-.28-.2-.57-.4-.89-.55l-.93-.5c-.31-.16-.65-.28-.98-.43-.35-.14-.6-.28-1.04-.44-.41-.16-.8-.32-1.2-.48-1.57-.66-3.06-1.38-4.54-2.1l-8.65-4.38-.62-.42c.31,.34,.91,.6,1.37,.57l-.79-.16h0c-2.8-1.01-5.56-2.06-8.32-2.77-2.75-.74-5.53-1.2-8.09-.89-1.28,.16-2.47,.57-3.54,1.21-.14,.08-.27,.15-.41,.24l-.43,.32-.87,.64c-.59,.4-1.15,.9-1.73,1.36-2.3,1.86-4.52,3.9-6.73,5.95-4.39,4.13-8.74,8.36-13,12.66-4.26,4.31-8.55,8.61-12.74,12.99Z"/><path class="m" d="M477.5,751.34s4.39,27.91-7.02,66.13c-3.79,12.68-9.32,26.51-17.34,40.82-32.14,57.42-48,51-48,51,0,0-53.27,120.42-69.06,229.71-15.79,109.29-32.51,204.43-85.22,289.29-21.44,34.49-50.08,50.5-77.41,54.77-39.9,6.22-76.96-12.6-84.59-35.49-12.86-38.57-33.43-66.86-39.86-84.86s-19.29-37.28,0-92.57c19.24-55.14,58.37-148.95,59.7-224.27,0-.19,0-.39,0-.58"/><path d="M343.78,811.5c0,.31-.08,.65-.22,.92l.12-.32c-6.81,22.22-14.67,44.01-23.1,65.62-4.19,10.81-8.63,21.52-13.2,32.17-4.64,10.62-9.35,21.22-14.36,31.68-2.47,5.25-4.98,10.46-7.5,15.66l-7.56,15.62c-5.04,10.41-10.11,20.82-15.24,31.2-10.26,20.75-20.77,41.41-31.94,61.73-11.16,20.32-23.01,40.3-35.98,59.58-6.5,9.63-13.28,19.06-20.49,28.22-7.23,9.12-14.83,17.93-22.6,26.53-7.76,8.62-15.64,17.09-23.45,25.59-7.8,8.51-15.41,17.15-22.46,26.2-7.05,9.04-13.37,18.66-18.19,29-2.38,5.18-4.38,10.53-5.93,16.03-1.53,5.51-2.63,11.16-3.25,16.93-.7-11.61,1.82-23.41,6.39-34.2,2.31-5.4,5.08-10.57,8.1-15.58,3.02-5.01,6.31-9.85,9.79-14.52,6.92-9.39,14.55-18.18,22.23-26.86,7.68-8.69,15.57-17.14,23.24-25.76,7.69-8.6,15.17-17.36,22.27-26.4,7.05-9.06,13.75-18.45,20.22-27.97,12.89-19.09,24.69-38.93,35.83-59.15,11.15-20.21,21.65-40.79,31.93-61.5,5.13-10.35,10.21-20.74,15.27-31.14l7.57-15.61c2.53-5.2,5.05-10.41,7.51-15.62,4.99-10.4,9.69-20.94,14.33-31.51,4.53-10.61,9.07-21.23,13.31-31.96,8.54-21.44,16.54-43.15,23.45-65.12l.13-.32c-.13,.26-.21,.57-.2,.86,0-1.1,.9-2,2-2s2,.9,2,2Z"/><path class="m" d="M237.48,1048.24s-76.39-7.24-128.78-2.37c-13.94,1.29-26.19,3.44-34.84,6.81,0,0,15.43-81.68,39.43-138.82,24-57.15,26.85-68.57,62.85-88,35.99-19.43,143.5-47.27,153.19-65.06,.01,0,.01,0,.01,0"/><path class="m" d="M633.93,604.29s0,0-.01,.02c0,0,0,.01-.01,.01-.65,1.16-21.76,39.07-21.2,63.82,.36,15.68,.72,38.24,2.32,57.71,.97,11.76,2.39,22.41,4.54,29.72,0,0-61.06,72.37-149.09,61.9h0"/><path class="m" d="M173.45,1483.05h0c.15,.62,12.64,53.16,4.12,112.81-8.57,60-10.28,119.14-12,144.85-1.71,25.72-20.86,54.86-19.71,58.29,.41,1.24,3.74,.09,9.33-1.69,9.87-3.16,26.81-8.29,47.24-5.74,32,4,81.71,30.86,130.28,23.43,48.58-7.43,86.29,2.58,113.72,1.29,27.43-1.29,85.14-3.62,118.28,.12,33.15,3.73,113.15-41.98,147.43-51.7,23.9-6.77,44.47-10.76,57.06-11.59,5.47-.36,9.43-.13,11.51,.74,6.86,2.85-6.28-4.57-10.85-32-4.57-27.43-7.29-255,6.85-372,14.15-117,48.43-206.15,48.43-216.43,0-6.87,12,27.43,12,27.43,2.45-.36,4.88-.74,7.28-1.16,94.25-16.04,150.95-71.28,172.92-97.14,7.05-8.29,10.52-13.56,10.52-13.56,0,0-60.86-102.86-87.43-139.71-26.57-36.86-31.72-67.72-51.43-79.72s-97.43-35.71-151.14-58c-53.72-22.28-122.83-45.72-122.83-45.72"/><path class="m" d="M844.42,1159.71s34.29,101,51.01,136.15c16.71,35.14,36.86,51,36.86,51,0,0-4.29,16.71,4.28,55.71s.86,123-4.71,150.86c-5.57,27.86-12.86,152.43-70,238.14,0,0-19.57,6.72-37.57,0-18-6.71-39,3.57-50.58-2"/><path class="m" d="M155.19,1797.3h0c-.22,.51-13.93,33.02-17.33,90.84-3.43,58.29-14.29,155.15-7.43,216,6.86,60.86,12.86,105.43,6.86,141.86"/><path class="m" d="M430.43,2246s6.86-22.71,17.14-40.29c10.29-17.57,20.14-30,22.29-39.85,0,0,13.28,31.71,25.71,48.85,12.43,17.15,15.86,31.29,15.86,31.29"/><path d="M814.78,2073.17c6.03-8.52,12.44-16.76,18.96-24.9,6.52-8.14,13.28-16.1,20.15-23.96,3.49-3.95,6.81-7.74,9.87-11.87,3.05-4.11,5.79-8.45,8.14-13.01,2.4-4.54,4.29-9.35,6.22-14.2,1.91-4.84,3.84-9.77,6.58-14.22-2.17,4.76-3.66,9.71-5.09,14.73-1.44,5.01-3.05,10.04-5.16,14.89-2.13,4.84-4.63,9.56-7.59,13.96-2.92,4.4-6.24,8.65-9.52,12.62l-19.51,24.35c-6.55,8.09-13.1,16.17-19.89,24.07-.72,.84-1.98,.94-2.82,.22-.79-.68-.91-1.84-.33-2.68Z"/><path class="m" d="M777.57,2077.14l-.03,.06s0,0,0,0c-.97,1.93-20.5,41-9.82,47.93,15.86,10.29,35.58-33.43,40.29-39.85,1.31-1.79,4.3-5.68,8.35-10.87"/><path class="m" d="M769.2,1753.12s1.73,15.75,4.33,36.47c3.58,28.63,8.83,66.76,13.47,85.98,0,0-9.14,4-37.71,38.86-24.54,29.93-48.22,64.07-67.09,76.02-4.6,2.91-4.14,8.76-.26,12.59,6.49,6.39,20.15,8.99,38.2-.04,32-16,53.72-66.86,74.86-72,0,0,7,18.86-7.14,50.57-14.15,31.72-20.15,43.72-30,61.72-9.86,18-45.44,72.55-33.43,82.28,15.55,12.61,51.68-46.04,53.1-48.36"/><path class="m" d="M816.36,2074.4s0,.01-.01,.02c-.33,.49-6.81,10.27-3.64,17.49,.29,.68,.67,1.33,1.15,1.95,5.71,7.43,38.85-10.86,55.43-25.72,16.57-14.85,32-32,48-79.43,16-47.42,37.14-111.42,52.57-138.28,15.43-26.86,18.85-36.57,20-69.72,1.14-33.14,42.85-143.42,62.28-214.85,19.43-71.43,26.29-150.29,26.86-186.86s-14.29-60.66-22.29-107.76-28.46-172.55-39.37-208.68"/><path d="M775.93,2075.99c6.53-10.33,13-20.78,19.25-31.3,6.29-10.51,12.33-21.16,18.15-31.92,2.94-5.43,5.9-10.85,9.01-16.16l4.61-7.98c1.53-2.64,3.07-5.28,4.47-7.97,1.43-2.67,2.76-5.38,3.99-8.14,1.16-2.79,2.31-5.6,3.3-8.48,2.01-5.76,3.68-11.68,5.42-17.6-.66,6.14-1.6,12.25-3.01,18.31-.69,3.03-1.55,6.04-2.54,9.01-1.06,2.94-2.14,5.9-3.47,8.72-1.28,2.85-2.67,5.63-4.06,8.39l-4.3,8.18c-2.85,5.44-5.75,10.84-8.55,16.29-2.83,5.49-5.77,10.94-8.83,16.3-3.02,5.39-6.21,10.68-9.44,15.94-6.52,10.5-13.31,20.78-20.73,30.71-.66,.89-1.91,1.07-2.8,.41-.84-.63-1.05-1.79-.5-2.67l.02-.03Z"/><path class="m" d="M812.71,2091.91s9.15,81.66,6.29,154.09"/></g><g><line class="l" x1="1061.1" y1="962.19" x2="2061.1" y2="962.19"/><line class="l" x1="1061.1" y1="795.52" x2="2061.1" y2="795.52"/><line class="l" x1="1061.1" y1="628.86" x2="2061.1" y2="628.86"/><line class="l" x1="1061.1" y1="462.19" x2="2061.1" y2="462.19"/><line class="l" x1="1061.1" y1="295.52" x2="2061.1" y2="295.52"/><line class="l" x1="1894.43" y1="128.86" x2="1894.43" y2="1128.86"/><line class="l" x1="1727.76" y1="128.86" x2="1727.76" y2="1128.86"/><line class="l" x1="1561.1" y1="128.86" x2="1561.1" y2="1128.86"/><line class="l" x1="1394.43" y1="128.86" x2="1394.43" y2="1128.86"/><line class="l" x1="1227.76" y1="128.86" x2="1227.76" y2="1128.86"/></g><g><line class="l" x1="1061.1" y1="962.19" x2="2061.1" y2="962.19"/><line class="l" x1="1061.1" y1="795.52" x2="2061.1" y2="795.52"/><line class="l" x1="1061.1" y1="628.86" x2="2061.1" y2="628.86"/><line class="l" x1="1061.1" y1="295.52" x2="2061.1" y2="295.52"/><line class="l" x1="1894.43" y1="128.86" x2="1894.43" y2="1128.86"/><line class="l" x1="1727.76" y1="128.86" x2="1727.76" y2="1128.86"/><line class="l" x1="1561.1" y1="128.86" x2="1561.1" y2="1128.86"/><line class="l" x1="1394.43" y1="128.86" x2="1394.43" y2="1128.86"/><line class="k" x1="1227.76" y1="628.86" x2="1227.76" y2="962.19"/></g><line class="k" x1="1727.76" y1="295.52" x2="1727.76" y2="639.37"/><line class="k" x1="1226" y1="629" x2="1728" y2="639"/><ellipse class="u" cx="1729.61" cy="284.97" rx="62.86" ry="62.53"/><ellipse class="u" cx="1226" cy="966.27" rx="62.86" ry="62.53"/></svg>