<?xml version="1.0" encoding="UTF-8"?><svg id="a" xmlns="http://www.w3.org/2000/svg" xmlns:xlink="http://www.w3.org/1999/xlink" viewBox="0 0 2263 2246"><defs><style>.i{fill:url(#e);}.j{fill:url(#d);}.k{fill:url(#g);}.l{fill:url(#f);}.m{fill:url(#h);}.n{fill:url(#c);}.o{fill:url(#b);}.p,.q{fill:none;}.r{opacity:.1;}.s{fill:#005e98;}.t{fill:#006fb2;}.u{fill:#008388;}.v{fill:#fdb683;}.w{fill:#00999e;}.x{fill:#cb946e;}.q{stroke:#000;stroke-linecap:round;stroke-linejoin:round;stroke-width:4px;}</style><linearGradient id="b" x1="1376.87" y1="1245.18" x2="1452.76" y2="1245.18" gradientTransform="matrix(1, 0, 0, 1, 0, 0)" gradientUnits="userSpaceOnUse"><stop offset="0" stop-color="#fdb683"/><stop offset="1" stop-color="#cb946e"/></linearGradient><linearGradient id="c" x1="1247.38" y1="877.74" x2="1335.91" y2="877.74" xlink:href="#b"/><linearGradient id="d" x1="759.15" y1="1263.43" x2="824.87" y2="1263.43" xlink:href="#b"/><linearGradient id="e" x1="796.32" y1="938.58" x2="889.91" y2="938.58" xlink:href="#b"/><linearGradient id="f" x1="974.34" y1="171.31" x2="1182.32" y2="171.31" gradientTransform="matrix(1, 0, 0, 1, 0, 0)" gradientUnits="userSpaceOnUse"><stop offset="0" stop-color="#190800"/><stop offset="1" stop-color="#291805"/></linearGradient><linearGradient id="g" x1="980.9" y1="292.57" x2="1184.35" y2="292.57" xlink:href="#b"/><linearGradient id="h" x1="1126.81" y1="251.59" x2="1157.66" y2="283.59" gradientTransform="matrix(1, 0, 0, 1, 0, 0)" gradientUnits="userSpaceOnUse"><stop offset=".36" stop-color="#fdb683"/><stop offset="1" stop-color="#cb946e"/></linearGradient></defs><path class="t" d="M931,1087.86c-8.11-1.66-23.82-.7-36.02,1.26-6.72,1.08-12.38,2.46-15.12,3.88-7.71,4-4-12.86,0-28.86s29.72-74.85,36.86-105.14c7.14-30.29,8.57-81.14,3.71-107.71-.4-2.19-.94-4.74-1.59-7.57h0c-7.21-31.44-28.21-97.81-29.26-106.72,0,0-.22,.21,.33-2.14,0,0-30.33-14.15-39.19-20.72-8.86-6.57-29.72-13.71-42.86-17.71-9.69-2.95-18.77-11.66-23.89-18.54-1.83-2.45-3.15-4.67-3.82-6.32,0,0,13.43-64.57,35.43-96.57s38.85-54.86,78.28-79.71c39.43-24.86,36.86-18.86,59.43-33.72,22.57-14.86,34.29-12.28,45.71-20,11.43-7.71,16.92-32,29.46-28.14,0,0,60.26,44.57,133.54,11.14,0,0,5.58,15.57,18.72,24.14,13.14,8.58,50.86,29.15,73.14,41.72,22.29,12.57,33.07,16,41.22,20.07,8.14,4.07,21.64,13.93,31.5,49.07,9.85,35.14,11.57,39.43,16.14,58.57,4.57,19.15,4.86,41.15,0,56,0,0-1.35,.58-3.7,1.49-9.85,3.84-37.21,13.57-54.87,10.8,0,0-5.57,12.86-6.43,27s1.71,30.43-12.86,63c-7.48,16.71-13.04,38.06-17.48,59.68-4.23,20.51-7.46,41.28-10.38,58.6-6,35.58-7.71,80.86-2,120.86,5.72,40,8,50.86-3.14,54.29-11.14,3.43-41.14-9.15-71.43-8-30.28,1.14-44.85,2.57-99.14,12-54.29,9.43-48.86-.57-72.29,10.57-23.42,11.14-45.42,6-58,3.43Z"/><path class="w" d="M1026.43,1580.71c1.72,7.9,3.23,14.86,4.53,22.29,0,0-20.81,38-42.53,68.29-12.42,17.33-32.43,44.85-49.41,65.98-12.69,15.8-23.7,28.02-28.59,29.73-11.43,4-10.57-4.86-19.43-10-8.85-5.14-11.71-12.57-15.71-22.57s-1.71-11.29-7.5-22.86c-1.24-2.48-2.04-4.63-2.52-6.48-1.79-6.79,.59-9.52,.59-9.52,23.43-32.57,60.43-101.86,76.72-142.14,16.28-40.29,33.88-105.31,33.88-105.31,4.36,15.15,8.37,29.2,11.69,40.59,13.14,45.15,32.57,65.72,38.28,92Z"/><path class="w" d="M1191.5,2084.51c-4.54,.6-10.39,1.56-17.92,3.56-20.15,5.36-35.58,4.72-47.79,1.07-12.21-3.64-25.93,4.72-25.93,4.72-32.57-123.43-62-356.57-63.14-413.72-.8-39.99-2.72-59.83-5.76-77.14-1.3-7.43-2.81-14.39-4.53-22.29-5.71-26.28-25.14-46.85-38.28-92-3.32-11.39-7.33-25.44-11.69-40.59-12.92-44.89-28.92-99.48-39.17-123.41-13.71-32-44.57-85.14-47.71-138.85-3.15-53.72,5.4-96.74,5.4-96.74,12.2-1.96,27.91-2.92,36.02-1.26,12.58,2.57,34.58,7.71,58-3.43,23.43-11.14,18-1.14,72.29-10.57,54.29-9.43,68.86-10.86,99.14-12,30.29-1.15,60.29,11.43,71.43,8,4.86,43.43-19.71,158.28-42.57,218.28s-57.79,114.91-57.79,114.91c12.38,40.43,25.96,84.04,36.65,125.09,14.28,54.86,18.28,116.57,10.85,173.15-7.42,56.57-21.71,88.57-17.71,194.28,4,105.72,27.93,146,32,159.93s14.57,21.64,11.57,25.5c-1.87,2.41-5.76,2.48-13.32,3.5-.02,0-.03,0-.04,.01Z"/><path class="u" d="M1030.96,1603s-20.81,38-42.53,68.29c-7.73,10.79-18.41,25.54-29.47,40.23-6.7,8.89-13.53,17.77-19.94,25.75-12.69,15.8-23.7,28.02-28.59,29.73-11.37,3.98-10.58-4.77-19.3-9.92,3.23-1.18,6.76-1.92,9.34-2.92,8.99-3.45,15.7-8.69,22.41-15.58,11.83-12.14,22.49-25.37,31.9-39.45,33.29-49.78,50.9-110.1,48.99-169.97,9.68,20.16,18.99,34.68,22.66,51.55,1.72,7.9,3.23,14.86,4.53,22.29Z"/><path class="u" d="M1202.48,1248.22c-4.31,14.74-8.78,28.35-13.19,39.92-22.86,60-57.79,114.91-57.79,114.91-4.16-13.59-8.18-26.82-11.92-39.48-13.23-44.78-38.26-93.65-43.57-113.49,5.73,3.81,9.97,11.87,14.36,17.21,17.3,21.01,34.6,42.03,51.91,63.05,28.75-21.27,49.6-52.99,57.72-87.82,.85,1.89,1.68,3.79,2.48,5.7Z"/><path class="t" d="M973,1862.86c9.43,13.28,19.29,23.57,11.58,38.57-7.72,15-29.58,23.57-42.86,17.57-13.29-6-31.72-20.14-45.43-33.43-13.71-13.28-7.71-46.71-10.29-74.14-2.57-27.43-23.57-35.57-32.14-52.29-8.57-16.71,10.74-54,10.74-54l.67-.05c.48,1.85,1.28,4,2.52,6.48,5.79,11.57,3.5,12.86,7.5,22.86s6.86,17.43,15.71,22.57c8.86,5.14,8,14,19.43,10,4.89-1.71,15.9-13.93,28.59-29.73,0,0,.98,28.3,5.27,58.73,4.29,30.43,19.29,53.57,28.71,66.86Z"/><path class="s" d="M963.12,1918.88c-7.48,2.56-15.33,2.86-21.4,.12-13.29-6-31.72-20.14-45.43-33.43-13.71-13.28-7.71-46.71-10.29-74.14-2.57-27.43-23.57-35.57-32.14-52.29-8.57-16.71,10.74-54,10.74-54l.67-.05c.48,1.85,1.28,4,2.52,6.48,5.79,11.57,3.5,12.86,7.5,22.86s6.86,17.43,15.71,22.57c8.86,5.14,8,14,19.43,10,4.89-1.71,15.9-13.93,28.59-29.73,0,0,.05,1.32,.16,3.69-7.87,12.65-17.1,23.21-31.99,30.24-4.71,2.21-10.01,4.26-12.57,8.79-2.43,4.31-1.67,9.64-.84,14.52,2.38,13.96,4.77,27.93,7.15,41.89,2.1,12.3,4.3,24.87,10.38,35.77,10.57,18.95,30.93,29.77,47.99,43.18,1.32,1.03,2.66,2.22,3.82,3.53Z"/><path class="t" d="M1278.15,2171.86c21.85,17.14,21.85,22.71,12.85,25.71s-34.28,25.72-62.57,22.29c-28.28-3.43-33.43-13.72-59.57-33.43-26.14-19.72-59.14-39.43-72.43-60-13.28-20.57,3.43-32.57,3.43-32.57,0,0,13.72-8.36,25.93-4.72,12.21,3.65,27.64,4.29,47.79-1.07,7.53-2,13.38-2.96,17.92-3.56,0-.01,.02-.01,.04-.01,3.69-.18,10.42,14.22,19.32,27.36,9,13.28,45.43,42.85,67.29,60Z"/><path class="s" d="M1260.27,2214.28c-9.55,4.1-20.45,6.96-31.84,5.58-28.28-3.43-33.43-13.72-59.57-33.43-26.14-19.72-59.14-39.43-72.43-60-13.28-20.57,3.43-32.57,3.43-32.57,0,0,13.72-8.36,25.93-4.72,.32,.1,.64,.19,.97,.28-5.79,4.56-10.36,11.11-10.89,18.45-.9,12.79,10.04,22.97,20.02,31.04,17.93,14.51,35.87,29.02,53.81,43.53,10.25,8.29,20.58,16.64,32.23,22.83,11.65,6.2,24.82,10.17,37.96,9.04,.13-.01,.25-.02,.38-.03Z"/><path class="v" d="M1445.86,1172.71c18.29,24,35.43,37.72,33.72,69.72-1.72,32-11.43,48.57-36,61.71-24.58,13.15-51.15,14-57.43,7.43-6.29-6.57-11.15-14-4.86-16.57,6.29-2.57,25.56-8.29,28.07-19.43,2.5-11.14-.07-20.43-12.07-39.71-12-19.29-20.14-30-20.57-49.29-.43-19.28-6.43-30,.86-35.14,0,0-39.86-75.43-58.29-96s-21.43-25.72-36-74.14c-14.57-48.43-23.57-86.15-19.29-107.58,0,0-14.82-15.64-16.62-37.6,4.44-21.62,10-42.97,17.48-59.68,14.57-32.57,12-48.86,12.86-63s6.43-27,6.43-27c17.66,2.77,45.02-6.96,54.87-10.8,0,0,29.7,109.66,18.27,161.08,0,0,18.86,48.58,29.14,100.58,10.29,52,16.57,108,27.43,159.42,10.86,51.43,13.72,52,32,76Z"/><path class="o" d="M1438.19,1279.75c-9.84,10.23-23.26,16.57-37.16,19.45-7.37,1.52-15.25,2.02-22.59,.63-.35-2.12,.42-3.84,2.85-4.83,6.29-2.57,25.56-8.29,28.07-19.43,2.5-11.14-.07-20.43-12.07-39.71-11.33-18.22-19.22-28.78-20.42-46.15,12.84,23.48,24.91,28.13,30.8,27.93,7.88-.28,12.36-5.87,18.94-7.34,13.63-3.05,24.79,19.07,25.95,30.77,1.42,14.12-4.52,28.45-14.37,38.68Z"/><path class="n" d="M1335.44,1072.09c-.4,1.15-1.04,2.14-1.87,2.97-5.34-8.22-10.31-15.2-14.28-19.63-18.43-20.57-21.43-25.72-36-74.14-14.57-48.43-23.57-86.15-19.29-107.58,0,0-14.82-15.64-16.62-37.6,4.44-21.62,10-42.97,17.48-59.68,14.57-32.57,12-48.86,12.86-63,.86-14.14,6.43-27,6.43-27,12.09,1.9,28.74-2.07,41.19-6,4.63,26.26,1,55.99-5.93,80.03-5.19,18.01-13.15,35.24-23.73,50.72-4.37,6.39-9.22,12.62-11.75,19.94-3.23,9.35-2.37,19.55-1.47,29.4,6.21,68.27,13.29,139.29,49.16,197.71,2.6,4.23,5.45,9.17,3.82,13.86Z"/><path class="v" d="M889.91,734.86c-.55,2.35-.33,2.14-.33,2.14-2.58,10.57-1.86,40.71-6.15,75.43-4.28,34.71-33,74.57-33,74.57,2.15,36.86-8.57,79.29-21,122.57-12.43,43.29-21.85,96-17.85,139.72,4,43.71,13.42,73.14,24,87.71,10.57,14.57,19.71,31.71,19.71,48.29s1.71,19.71,4.86,36.85c3.14,17.15,6.85,19.43,1.43,24.57-5.43,5.15-18.29,3.15-25.43-12.28-7.15-15.43-2.86-32-12.15-40-9.28-8-8.08-20.88-8.08-20.88h-.01c-4.07,7.11-6.05,16.78-6.05,23.74,0,10.57-1.43,9.14-6,30.28s20.14,41.86,20.14,41.86c-12.71,5.43-20.71,1.71-20.71,1.71-8.29,4.57-18-1.57-18-1.57,0,0-5.14,.86-12.43-5.14-7.28-6-18.43-21.86-21-68.57-2.57-46.72,7.72-72,9-99,1.29-27-6-66-10.28-109.72-4.29-43.71-6.43-106.71,0-157.28,4.11-32.4,14.56-58.64,21.54-73.32l-.97-.4c-16.63-52.42,12.49-176.87,12.82-178.25,5.12,6.88,14.2,15.59,23.89,18.54,13.14,4,34,11.14,42.86,17.71,8.86,6.57,39.19,20.72,39.19,20.72Z"/><path class="j" d="M824.71,1255c1.38,2.27-6.93,8.42-13.34,15.61-14.14,15.86-13.71,36.09-21.14,55.66-3.75,9.88-7.45,21.23-2.61,30.62-4.45,1.88-9.79-.37-12.92-4.06-3.13-3.68-4.52-8.5-5.72-13.18-8.06-31.45-9.52-32.59-9.82-63.21-.06-6.38,.11-11.91,.41-17.44,2.47-46.67,12.96-90.16,16.57-89.71,3.94,.49,8.92,54.62,13.77,70.36,1.25,4.06,3.34,8.33,7.38,11.35,.98,.74,2.71,1.86,5.71,2.86,11.27,3.73,20.34-1.12,21.71,1.14Z"/><path class="i" d="M889.58,737c-2.58,10.57-1.86,40.71-6.15,75.43-4.28,34.71-33,74.57-33,74.57,2.15,36.86-8.57,79.29-21,122.57-12.43,43.29-21.85,96-17.85,139.72,.64,7.04,1.43,13.72,2.34,20.02-17.15-27.75-20.03-62.93-15.97-95.6,4.43-35.64,16.19-69.94,22.84-105.23,6.64-35.29,7.78-73.32-8.07-105.54,6.11,1.37,12.21,2.75,18.32,4.13,23.85-47.01,29.44-109.78,8.25-159.23,4.6,2.08,8.62,4.22,11.43,6.3,8.86,6.57,39.19,20.72,39.19,20.72-.55,2.35-.33,2.14-.33,2.14Z"/><path class="v" d="M1162,374.73v49.84c-73.28,33.43-133.54-11.14-133.54-11.14,0,0-1.03-20.14-.31-47.57,.71-27.43,0-46.29,0-46.29-6,13.43-35.15-13.14-44.57-35.71-9.43-22.57,9.14-29.43,9.14-29.43,0,0,54.43-35.57,56.14-90.43,0,0,49.29-25.29,86.14-12,36.86,13.29,40.58,15.29,46.86,15.57,0,0,5.14,21.43,6.86,52.29,1.71,30.85,2,44.28,2,61.14s-2.29,34.57,0,50.57c1.45,10.15-2.39,34.69-28.72,43.16Z"/><path class="l" d="M1173.29,114.43s11.43,52,8.57,53.14c-6.28-.28-10-2.28-46.86-15.57-36.85-13.29-86.14,12-86.14,12-1.71,54.86-56.14,90.43-56.14,90.43,0,0-14.29-37.72-17.72-62.29-3.42-24.57,6.86-43.43,22.29-50.85,0,0,60.57-39.43,73.71-52,0,0,76.58-9.15,102.29,25.14Z"/><path class="u" d="M1124.75,2091.04c-10.03-6.54-24.89,2.82-24.89,2.82-32.57-123.43-62-356.57-63.14-413.72-.21-10.34-.49-19.33-.84-27.28-1.03-22.8-2.67-37.02-4.92-49.86-1.3-7.43-2.81-14.39-4.53-22.29-3.67-16.87-12.98-31.39-22.66-51.55h0c-5.4-11.26-10.91-24.28-15.62-40.45-3.32-11.39-7.33-25.44-11.69-40.59-12.92-44.89-28.92-99.48-39.17-123.41-13.71-32-44.57-85.14-47.71-138.85-3.15-53.72,5.4-96.74,5.4-96.74,12.2-1.96,27.91-2.92,36.02-1.26,8.68,1.77,21.85,4.77,36.88,2.8-20.17,73.19-12.16,152.33,7.47,226.03,21.1,79.23,55.01,154.39,81.52,231.98,26.5,77.59,45.75,159.8,35.93,241.21-10.91,90.39,11.47,180.44,16.46,271.36,.53,9.63,17.47,20.42,15.49,29.8Z"/><path class="s" d="M827.63,620.24c-3.72,11.24-6.62,23.4-3.5,34.82,6.27,22.95,35.16,33.21,58.24,27.49,23.09-5.72,41.45-22.69,58.71-39.05,20.72-19.63,41.44-39.27,62.15-58.9-5.36,62.86-10.72,125.72-16.08,188.58-2.56,30.05-5.05,60.91,3.39,89.86,6.18,21.24,18.16,41.2,18.92,63.3,1.21,35.3-26.53,67.73-21.77,102.73,3.32,24.39,24.85,44.21,48.78,48.31-28.45,2.9-28.43-2-47.47,7.05-23.42,11.14-45.42,6-58,3.43-8.11-1.66-23.82-.7-36.02,1.26-6.72,1.08-12.38,2.46-15.12,3.88-7.71,4-4-12.86,0-28.86s29.72-74.85,36.86-105.14c7.14-30.29,8.57-81.14,3.71-107.71-.4-2.19-.94-4.74-1.59-7.57h0c-7.21-31.44-28.21-97.81-29.26-106.72,0,0-.22,.21,.33-2.14,0,0-30.33-14.15-39.19-20.72-8.86-6.57-29.72-13.71-42.86-17.71-9.69-2.95-18.77-11.66-23.89-18.54-1.83-2.45-3.15-4.67-3.82-6.32,0,0,13.43-64.57,35.43-96.57s38.85-54.86,78.28-79.71c39.43-24.86,36.86-18.86,59.43-33.72,22.57-14.86,34.29-12.28,45.71-20,11.43-7.71,16.92-32,29.46-28.14,0,0,41.16,30.44,96.8,22.14-29.82,7.01-61.36,6.76-91.04-.9-2.88,10.56-10.95,18.87-20.34,24.51-9.38,5.64-20.01,8.79-30.51,11.88-70.58,20.8-132.67,79.31-155.74,149.18Z"/><path class="k" d="M1161.46,411.37c.18-.03,.36-.06,.54-.09v13.29c-73.28,33.43-133.54-11.14-133.54-11.14,0,0-1.03-20.14-.31-47.57,.71-27.43,0-46.29,0-46.29-6,13.43-35.15-13.14-44.57-35.71-9.43-22.57,9.14-29.43,9.14-29.43,0,0,54.43-35.57,56.14-90.43,0,0,49.29-25.29,86.14-12,36.86,13.29,40.58,15.29,46.86,15.57,0,0,1.12,4.67,2.49,12.78-36.03-18.76-79.96-21.95-118.24-8.26-4.42,25.83-19.97,50.15-41.65,64.87-5.77,3.91-11.95,7.21-17.43,11.5-5.49,4.29-10.35,9.8-12.24,16.5-2.74,9.73,1.16,20,5.51,29.12,3.65,7.65,7.94,15.44,14.95,20.2,7.01,4.77,17.48,5.48,23.4-.59-5.93,23.16,1.76,48.31,17.18,66.59,13.67,16.2,33.8,26.01,54.54,30.39,16.77,3.54,34.23,3.77,51.09,.7Z"/><path class="m" d="M1162.01,289.22c-11.03,3.76-23.87,1.68-33.16-5.36-1.96-1.49-3.94-4.01-2.74-6.16,1.09-1.95,3.84-1.88,6.03-2.33,5.02-1.04,8.39-6.01,9.44-11.02,1.18-5.65,.13-11.46,.02-17.16-.03-1.8-.73-5.61,.89-6.86,1.15-.88,2.6-.44,3.28,.67,1.05,1.73,.81,5.74,1.18,7.79,.5,2.74,1.09,5.45,1.77,8.15,1.35,5.31,3.04,10.54,5.08,15.62,2.3,5.75,5.04,11.33,8.2,16.66Z"/><g><g><path d="M1091.13,366.77c11.68,3.52,23.54,6.36,35.5,7.89,5.98,.68,11.99,1.13,17.95,.8,5.95-.28,11.83-1.23,17.38-3.08,5.56-1.83,10.64-4.84,14.86-8.73,2.06-2.01,3.91-4.22,5.5-6.62,1.55-2.43,2.83-5.03,3.83-7.74,1-2.71,1.71-5.54,2.11-8.4,.4-2.86,.49-5.78,.17-8.53-.38-3-.75-6.2-.9-9.29-.16-3.11-.24-6.22-.21-9.31,.07-12.39,1.15-24.51,.99-36.65,0-12.2-.34-24.37-.89-36.57l-.89-18.3c-.31-6.09-.69-12.14-1.27-18.2-.58-6.05-1.3-12.09-2.18-18.1-.9-5.99-1.88-12.04-3.16-17.89h0l1.2-2.33c-.78,.35-.81,.77-.86,.78-.01,.01-.02,.08-.02,.05,0-.02,0-.04,.01-.06,.02-.12,.04-.34,.05-.56,.02-.46,0-.98-.02-1.51-.06-1.06-.16-2.15-.28-3.24-.25-2.19-.57-4.4-.92-6.61-.7-4.42-1.5-8.84-2.34-13.26-1.68-8.83-3.5-17.66-5.41-26.44l.35,.77c-2.63-3.45-5.82-6.47-9.35-9.07-3.53-2.61-7.4-4.78-11.47-6.56-8.11-3.62-16.86-5.86-25.71-7.38-8.87-1.46-17.88-2.21-26.91-2.39-9.01-.17-18.12,.11-27.01,1.03l1.15-.54c-2.89,2.63-5.84,5.03-8.86,7.32-3,2.32-6.05,4.54-9.1,6.77-6.11,4.43-12.3,8.73-18.5,13.01-12.42,8.52-24.94,16.89-37.55,25.13-.06,.04-.13,.08-.2,.11h-.02c-8.81,4.31-15.53,12.44-18.8,21.8-1.68,4.67-2.62,9.62-2.91,14.61-.33,5.01,.13,10.01,.96,15.03,.82,5.03,1.92,10.04,3.19,15.02,1.24,4.98,2.64,9.94,4.13,14.87,2.97,9.86,6.28,19.66,9.85,29.31l-2.96-.97c3.65-2.48,7.26-5.33,10.71-8.25,3.45-2.94,6.78-6.03,9.97-9.25,6.38-6.44,12.22-13.42,17.24-20.94,2.53-3.74,4.82-7.64,6.88-11.66,1.06-1.99,1.97-4.05,2.91-6.1,.45-1.03,.85-2.08,1.28-3.12,.44-1.04,.82-2.09,1.18-3.16,3.06-8.46,4.73-17.38,5.08-26.33v-.05c.03-.74,.47-1.36,1.09-1.67,5.33-2.63,10.68-4.82,16.18-6.83,5.48-2,11.07-3.72,16.73-5.17,11.33-2.83,23.06-4.57,34.89-3.94,5.9,.31,11.81,1.23,17.51,3.04,2.9,.9,5.51,1.93,8.25,2.9l8.14,2.96,16.26,5.93c2.71,.98,5.42,1.95,8.11,2.81,2.72,.87,5.28,1.55,7.94,1.65,1.1,.04,1.97,.96,1.93,2.07-.04,1.1-.96,1.97-2.07,1.93h-.04c-1.53-.06-3.13-.28-4.63-.62-1.5-.34-2.94-.76-4.34-1.21-2.8-.9-5.53-1.88-8.25-2.86l-16.28-5.94-8.13-2.96c-2.7-.95-5.46-2.04-8.09-2.84-5.32-1.7-10.9-2.57-16.53-2.86-11.27-.61-22.65,1.06-33.69,3.82-5.52,1.42-10.98,3.09-16.35,5.05-5.35,1.95-10.69,4.14-15.72,6.63l1.09-1.72c-.37,9.39-2.13,18.73-5.31,27.55-.38,1.11-.77,2.21-1.23,3.29-.44,1.08-.86,2.18-1.33,3.25-.97,2.13-1.92,4.27-3.02,6.33-2.13,4.16-4.5,8.19-7.11,12.06-5.18,7.76-11.18,14.93-17.72,21.53-3.27,3.3-6.68,6.47-10.22,9.48-3.56,3.02-7.17,5.87-11.11,8.55-.9,.61-2.13,.38-2.74-.52-.09-.13-.16-.27-.22-.41v-.03c-3.63-9.78-6.95-19.6-9.95-29.57-1.5-4.98-2.92-9.99-4.18-15.05-1.29-5.05-2.41-10.16-3.26-15.35-1.85-10.38-1.54-21.48,2.14-31.64,1.81-5.07,4.48-9.89,8.03-14.02,3.52-4.14,7.88-7.61,12.8-10.02l-.22,.13c12.57-8.22,25.08-16.58,37.46-25.08,6.18-4.26,12.35-8.55,18.42-12.95,3.02-2.21,6.06-4.42,9-6.7,2.97-2.26,5.86-4.61,8.53-7.04l.06-.06c.31-.28,.69-.44,1.08-.49,9.23-.96,18.37-1.23,27.57-1.06,9.19,.18,18.38,.94,27.49,2.44,9.09,1.57,18.14,3.86,26.68,7.67,4.28,1.87,8.4,4.18,12.2,6.98,3.8,2.79,7.29,6.09,10.19,9.89,.18,.23,.29,.49,.35,.75v.02c1.92,8.84,3.75,17.67,5.44,26.55,.84,4.44,1.65,8.89,2.36,13.38,.35,2.24,.68,4.5,.94,6.78,.13,1.15,.24,2.3,.3,3.49,.03,.6,.05,1.21,.02,1.87-.02,.34-.04,.69-.12,1.12-.05,.23-.09,.45-.23,.8-.13,.27-.33,.94-1.36,1.43l1.2-2.32h0c2.8,12.1,4.57,24.23,5.88,36.48,.65,6.11,1.1,12.27,1.47,18.38,.36,6.11,.68,12.22,.97,18.34,.58,12.23,.96,24.51,1,36.77,.07,6.11-.09,12.35-.36,18.45-.28,6.12-.6,12.2-.65,18.24-.04,3.02,.03,6.03,.17,9.03,.08,1.5,.18,2.99,.33,4.47,.06,.74,.14,1.48,.24,2.22l.27,2.27c.37,3.33,.23,6.56-.22,9.76-.46,3.19-1.26,6.32-2.39,9.34-1.13,3.02-2.57,5.93-4.32,8.65-1.8,2.69-3.89,5.18-6.23,7.43-4.77,4.38-10.49,7.68-16.55,9.66-6.06,2.02-12.39,2.88-18.65,3.11l-4.7,.02-4.67-.26c-1.56-.05-3.1-.29-4.65-.45-1.54-.17-3.09-.32-4.62-.62-12.26-1.95-24.11-5.54-35.53-10.04-.43-.17-.65-.66-.48-1.1,.16-.41,.62-.62,1.03-.5Z"/><path class="q" d="M1162,374.72v49.85c-73.29,33.43-133.54-11.14-133.54-11.14,0,0-1.03-20.14-.32-47.57,.71-27.43,0-46.29,0-46.29-6,13.43-35.14-13.14-44.57-35.71-9.43-22.57,9.14-29.43,9.14-29.43"/><path d="M1090.43,231.29c3.37-.29,6.56-.76,9.63-1.52,1.53-.39,3.03-.81,4.47-1.36,.73-.25,1.43-.57,2.14-.86l2.14-1.01c1.63-.8,3.4-1.33,5.2-1.64,1.81-.24,3.65-.23,5.43,.09,1.77,.32,3.47,.91,5,1.76,1.5,.89,2.97,1.91,3.93,3.35-1.52-.74-3.08-1.19-4.63-1.51-1.55-.32-3.09-.48-4.61-.47-1.51,.02-2.99,.19-4.43,.51-.71,.22-1.43,.35-2.11,.65-.7,.22-1.37,.54-2.04,.86l-1.14,.52c-.41,.18-.8,.38-1.21,.54-.84,.28-1.65,.63-2.51,.83-1.69,.48-3.43,.74-5.16,.86-1.73,.11-3.46,.04-5.16-.21-1.69-.27-3.37-.65-4.93-1.36Z"/><path d="M1162,224.43c1.43-1,2.87-1.64,4.3-2.2,1.42-.55,2.85-.99,4.2-1.4,.65-.2,1.34-.4,1.87-.6l.11-.03,.19-.07,.38-.14c.25-.1,.52-.15,.79-.19,.53-.1,1.09-.11,1.6-.03,2.11,.33,3.56,1.74,4.14,3.38-1.68-.42-3.14-.56-4.13-.23-.12,.03-.24,.07-.35,.13-.11,.04-.22,.08-.32,.15-.1,.06-.2,.11-.3,.18l-.15,.1-.23,.14c-.84,.51-1.63,.78-2.44,1.05-1.6,.47-3.2,.66-4.8,.65-1.6-.03-3.22-.23-4.84-.88Z"/><path d="M1152.14,229.06c-1.21,.64-2.45,1.23-3.69,1.82-1.24,.59-2.5,1.14-3.75,1.71l.68-1.02,2.98,14.22c.99,4.73,2,9.44,3.09,14.13,1.1,4.68,2.25,9.34,3.63,13.94,1.42,4.58,2.94,9.12,5.42,13.36-1.84-1.64-3.36-3.66-4.68-5.76-1.31-2.11-2.45-4.33-3.45-6.59-2.01-4.53-3.53-9.24-4.76-14-1.22-4.76-2.16-9.59-2.86-14.44-.35-2.42-.62-4.86-.84-7.3-.24-2.44-.36-4.88-.44-7.35v-.14c-.02-.43,.28-.8,.68-.89,1.32-.3,2.63-.62,3.96-.9,1.33-.28,2.67-.56,4.03-.79Z"/><path d="M1122.14,328.14c3.14,1.39,6.39,2.48,9.67,3.37,3.29,.89,6.63,1.53,9.98,1.92,3.35,.41,6.72,.42,10.02,.18,3.31-.25,6.52-1.02,9.59-2.03l.1-.03c1.05-.35,2.18,.22,2.53,1.28,.35,1.05-.22,2.18-1.28,2.53-.06,.02-.12,.04-.18,.05-3.54,.81-7.11,1.28-10.66,1.21-3.54-.09-7.04-.45-10.45-1.21-3.41-.74-6.74-1.73-9.97-2.95-3.23-1.23-6.38-2.63-9.37-4.32Z"/><path d="M1100.29,331.65c-.53,1.36-.92,2.65-1.19,3.96-.26,1.3-.41,2.6-.37,3.89-.03,.32,.04,.65,.05,.97,0,.32,.03,.65,.09,.97l.12,.98c.08,.32,.15,.64,.21,.97,.05,.33,.14,.66,.24,.98l.26,1c.18,.67,.44,1.32,.59,2.05-.53-.49-1.03-1.04-1.47-1.62-.37-.62-.84-1.22-1.09-1.92-.65-1.34-.94-2.86-.99-4.36-.05-1.52,.3-3.03,.89-4.4,.59-1.36,1.48-2.62,2.67-3.48Z"/><path d="M1163.88,423.9c.56,1.48,1.3,3.08,2.07,4.58,.77,1.52,1.62,3,2.53,4.44,1.81,2.88,3.87,5.61,6.19,8.06,2.32,2.47,4.89,4.6,7.74,6.44,2.91,1.89,5.95,3.68,8.96,5.47,12.12,7.13,24.44,13.98,36.75,20.86l18.48,10.3c6.18,3.44,12.27,6.95,18.47,10.19,6.21,3.26,12.52,6.28,18.94,9.1,3.21,1.42,6.46,2.78,9.72,4.29,3.25,1.46,6.57,3.36,9.45,5.66,2.91,2.29,5.47,4.97,7.74,7.82l.86,1.06,.8,1.11c.52,.74,1.08,1.47,1.57,2.23,.96,1.54,1.99,3.04,2.83,4.63,3.57,6.28,6.33,12.93,8.64,19.68l.87,2.53c.28,.85,.52,1.71,.78,2.56,.5,1.7,1.04,3.42,1.52,5.12l2.87,10.17,5.82,20.33c1.95,6.78,3.86,13.61,5.56,20.48,.85,3.44,1.69,6.85,2.45,10.37,.7,3.51,1.31,7.04,1.74,10.59,.86,7.1,1.23,14.27,.9,21.44-.16,3.59-.47,7.17-1.05,10.74-.56,3.57-1.33,7.12-2.46,10.6h0c-.18,.57-.6,1-1.11,1.22-4.74,1.98-9.49,3.7-14.32,5.31-4.82,1.6-9.7,3.06-14.66,4.26-4.96,1.2-9.96,2.26-15.09,2.81-5.11,.56-10.33,.81-15.6,.05h0l2.15-1.18c-2.12,5.2-3.79,10.79-4.93,16.37-.56,2.8-.98,5.62-1.22,8.45-.25,2.82-.3,5.71-.36,8.63-.09,5.84-.31,11.81-1.08,17.71-.78,5.91-2.06,11.74-3.71,17.43-1.65,5.7-3.73,11.25-5.98,16.71l-3.43,8.07c-1.16,2.64-2.13,5.37-3.15,8.07-3.96,10.88-6.95,22.14-9.63,33.46-5.31,22.68-9.02,45.74-12.85,68.81-4.05,22.94-5.95,46.2-6.15,69.48-.09,11.64,.33,23.28,1.26,34.86l.36,4.34c.13,1.45,.3,2.89,.45,4.34,.16,1.44,.3,2.89,.47,4.33l.56,4.32c.75,5.76,1.64,11.56,2.45,17.35,.81,5.8,1.63,11.6,2.2,17.49,.28,2.95,.48,5.92,.46,8.96-.03,1.53-.11,3.07-.35,4.65-.24,1.57-.64,3.2-1.43,4.76-.77,1.56-2,3.03-3.46,4.02-1.48,1-3,1.62-4.62,2.04-3.34,.8-6.42,.54-9.42,.25-5.99-.67-11.71-1.94-17.45-3.08-11.43-2.35-22.85-4.54-34.36-5.14-2.87-.16-5.75-.21-8.62-.14-2.86,.07-5.82,.21-8.72,.33-5.83,.26-11.64,.57-17.44,1.03-11.6,.9-23.15,2.38-34.68,4.12-11.53,1.74-23.05,3.68-34.57,5.66-11.52,1.99-23.15,3.88-34.9,4.84-5.87,.48-11.81,.67-17.66,.68-2.91,.03-5.77,.07-8.51,.42-2.74,.38-5.41,1.13-8.07,2.06-1.32,.51-2.64,1.04-3.96,1.59l-3.94,1.78-4.13,1.8-4.24,1.52c-5.71,1.86-11.66,3-17.64,3.41-5.98,.42-11.98,.14-17.88-.59-2.95-.38-5.88-.85-8.78-1.42-1.45-.27-2.89-.57-4.33-.86l-2.14-.43-2.04-.33c-5.56-.64-11.39-.51-17.14-.16-5.76,.38-11.53,1.04-17.21,1.99-2.84,.48-5.67,1.04-8.39,1.77-.68,.19-1.37,.35-2.01,.59-.64,.23-1.35,.41-1.9,.69l-.88,.38-.58,.27c-.21,.1-.41,.2-.67,.27-.47,.17-1.02,.29-1.65,.32-.65,0-1.42-.12-2.07-.53-.16-.1-.33-.2-.47-.31-.13-.12-.26-.24-.38-.37-.27-.26-.41-.51-.58-.77-.3-.51-.49-1.01-.62-1.47-.25-.93-.35-1.78-.39-2.6-.08-1.64,.03-3.17,.19-4.68,.33-3.02,.87-5.94,1.47-8.83,.6-2.9,1.27-5.76,1.96-8.61,.36-1.43,.68-2.84,1.08-4.28,.42-1.44,.8-2.92,1.29-4.3,1.82-5.64,3.89-11.11,5.95-16.6l12.51-32.77c4.12-10.93,8.16-21.88,11.76-32.94,.88-2.77,1.8-5.53,2.58-8.32,.4-1.39,.83-2.78,1.21-4.18l1.08-4.19c1.34-5.61,2.44-11.29,3.26-17.04,1.71-11.48,2.68-23.09,3.19-34.71,.48-11.62,.57-23.27-.11-34.86-.29-5.8-.86-11.57-1.64-17.28l-.68-4.26-.87-4.24c-.59-2.83-1.29-5.66-1.96-8.48-2.8-11.3-5.95-22.55-9.13-33.79l-9.73-33.69-4.83-16.87c-.79-2.82-1.58-5.64-2.32-8.49-.39-1.41-.74-2.85-1.09-4.3-.17-.73-.37-1.41-.51-2.19-.14-.77-.28-1.54-.51-2.3v-.03l3.38,1.19c-.31,.28-.6,.48-1.19,.57-.29,.03-.6,0-.87-.09-.27-.09-.51-.25-.53-.27-.29-.21-.57-.55-.7-.9-.09-.23-.07-.21-.08-.24l-.02-.09-.03-.18c-.03-.32,0-.28,0-.39,.01-.19,.03-.25,.05-.34,.03-.2,.07-.3,.11-.45,.08-.26,.15-.5,.23-.73,.16-.46,.32-.9,.49-1.34l1.03-2.59,2.15-5.09c.12-.28,.44-.41,.73-.3,.24,.1,.37,.34,.33,.58h0l-.74,5.45-.31,2.7c-.05,.45-.09,.89-.11,1.32-.02,.22-.02,.42-.03,.61,0,.08,0,.2,.01,.23,0,.02,0,.07,.02,0,0-.05,.02,.05,0-.22l-.02-.14-.02-.07s0,0-.07-.22c-.13-.33-.39-.67-.68-.86-.02-.01-.25-.18-.52-.27-.26-.09-.57-.13-.86-.09-.59,.09-.87,.29-1.18,.56l3.39,1.19v.03c.1,1.34,.42,2.66,.77,4.09,.33,1.4,.68,2.8,1.06,4.2,.73,2.81,1.52,5.62,2.3,8.43l4.83,16.84,9.74,33.7c3.19,11.26,6.34,22.53,9.17,33.92,.68,2.86,1.38,5.71,1.99,8.6l.89,4.35,.7,4.4c.81,5.87,1.39,11.74,1.68,17.62,.68,11.76,.6,23.51,.11,35.25-.51,11.74-1.48,23.46-3.22,35.11-.82,5.83-1.95,11.64-3.32,17.39l-1.11,4.3c-.38,1.43-.82,2.83-1.23,4.25-.8,2.84-1.73,5.62-2.61,8.43-3.63,11.17-7.69,22.16-11.81,33.11l-12.5,32.77c-2.05,5.46-4.11,10.93-5.88,16.42-.48,1.37-.82,2.73-1.23,4.1-.38,1.37-.71,2.82-1.06,4.22-.69,2.83-1.35,5.66-1.93,8.48-.58,2.83-1.1,5.66-1.41,8.46-.15,1.39-.24,2.78-.17,4.07,.02,.65,.11,1.25,.24,1.73,.12,.5,.35,.73,.28,.65-.04,0-.05-.02,.02,0,.1-.01,.26-.03,.48-.11,.1-.02,.22-.09,.34-.14l.42-.18,1.13-.49c.76-.36,1.48-.54,2.22-.8,.74-.26,1.46-.44,2.19-.64,2.92-.79,5.83-1.36,8.75-1.86,5.84-.98,11.71-1.65,17.61-2.04,5.91-.35,11.83-.51,17.89,.18l2.29,.37,2.16,.44c1.43,.29,2.85,.59,4.27,.85,2.84,.56,5.68,1.01,8.53,1.38,5.7,.71,11.43,.97,17.12,.57,5.68-.39,11.3-1.48,16.71-3.24l4.01-1.44,3.91-1.7,4.05-1.83c1.37-.58,2.77-1.14,4.17-1.68,2.85-1.01,5.83-1.84,8.89-2.27,3.06-.39,6.06-.42,8.99-.45,5.84-.02,11.6-.2,17.38-.68l4.33-.39c1.44-.14,2.88-.32,4.33-.48,2.89-.3,5.76-.73,8.64-1.13,2.88-.37,5.75-.88,8.62-1.34,2.87-.46,5.75-.95,8.63-1.45,11.53-1.98,23.07-3.93,34.65-5.68,11.58-1.75,23.24-3.24,34.96-4.16,5.86-.47,11.72-.78,17.57-1.04,2.94-.13,5.82-.26,8.8-.34,2.98-.07,5.95-.02,8.91,.14,11.86,.62,23.49,2.85,34.94,5.2,5.72,1.14,11.44,2.4,17.08,3.02,2.79,.29,5.66,.44,8.02-.15,1.2-.31,2.42-.82,3.36-1.47,.95-.66,1.66-1.51,2.19-2.55,1.06-2.11,1.3-4.93,1.36-7.69,.02-2.8-.18-5.67-.45-8.54-.56-5.75-1.37-11.53-2.18-17.31-.81-5.79-1.7-11.55-2.46-17.38l-.57-4.37c-.18-1.46-.32-2.92-.48-4.38-.15-1.46-.32-2.92-.46-4.39l-.37-4.39c-.95-11.72-1.37-23.47-1.28-35.21,.2-23.47,2.11-46.99,6.19-70.1,3.82-23.05,7.54-46.2,12.89-69.07,2.7-11.42,5.72-22.8,9.76-33.9,1.04-2.77,2.02-5.55,3.22-8.26l3.43-8.07c2.2-5.35,4.23-10.76,5.83-16.29,1.6-5.53,2.83-11.15,3.59-16.83,.75-5.7,.96-11.43,1.05-17.27,.06-2.92,.1-5.88,.37-8.89,.26-3,.7-5.97,1.28-8.9,1.21-5.88,2.88-11.54,5.18-17.17,.33-.81,1.15-1.28,1.98-1.2l.17,.02h0c4.72,.69,9.64,.47,14.52-.07,4.89-.53,9.76-1.56,14.59-2.72,4.83-1.17,9.62-2.6,14.35-4.17,4.72-1.58,9.45-3.29,14-5.19l-1.11,1.22c1.04-3.23,1.77-6.59,2.31-9.98,.55-3.4,.85-6.84,1-10.3,.32-6.92-.04-13.88-.87-20.77-.42-3.45-1.01-6.87-1.69-10.28-.73-3.37-1.57-6.81-2.41-10.21-1.69-6.82-3.58-13.57-5.53-20.35l-5.82-20.34-2.87-10.18c-.47-1.7-.99-3.35-1.49-5.03-.26-.83-.49-1.67-.76-2.5l-.84-2.47c-2.25-6.58-4.93-13.01-8.33-18.99-.81-1.52-1.78-2.93-2.69-4.39-.47-.72-.99-1.39-1.48-2.09l-.75-1.04-.8-.99c-2.12-2.66-4.47-5.11-7.1-7.19-2.65-2.09-5.48-3.73-8.66-5.17-3.14-1.46-6.4-2.82-9.64-4.25-6.49-2.85-12.91-5.92-19.18-9.22-6.3-3.28-12.43-6.82-18.57-10.24l-18.47-10.3c-12.31-6.88-24.64-13.74-36.83-20.91-3.04-1.82-6.08-3.61-9.09-5.56-3.08-1.98-5.97-4.38-8.48-7.05-2.52-2.67-4.73-5.6-6.67-8.68-.97-1.54-1.87-3.13-2.7-4.75-.84-1.64-1.58-3.24-2.27-5.05-.39-1.03,.13-2.19,1.16-2.58,1.03-.39,2.19,.13,2.58,1.16l.03,.07Z"/><path d="M889.44,735.86c-1.4-.19-2.72-.56-4-1-1.29-.43-2.53-.96-3.74-1.54l-7.27-3.53c-4.84-2.39-9.65-4.82-14.42-7.4-2.38-1.3-4.76-2.62-7.11-4.07-.59-.37-1.17-.72-1.76-1.11l-1.76-1.21-1.55-1.06c-.53-.34-1.09-.66-1.64-1-4.46-2.58-9.36-4.69-14.27-6.69-4.93-1.99-9.95-3.8-15.01-5.5-2.53-.86-5.07-1.67-7.62-2.48l-1.91-.59c-.66-.22-1.36-.48-2.03-.72-.69-.22-1.34-.53-1.99-.83-.65-.3-1.32-.57-1.93-.93-5.04-2.67-9.39-6.25-13.29-10.2-1.95-1.98-3.75-4.09-5.43-6.32-1.66-2.26-3.21-4.55-4.41-7.36h0c-.16-.37-.2-.76-.12-1.12v-.05c3.4-15.48,7.55-30.69,12.46-45.73,2.45-7.52,5.19-14.94,8.15-22.29l2.35-5.46,1.18-2.73,1.3-2.69c.88-1.78,1.7-3.59,2.62-5.36l2.87-5.25,.72-1.31,.8-1.27,1.61-2.54,1.61-2.54,1.67-2.44c2.23-3.24,4.49-6.47,6.76-9.7,4.56-6.44,9.27-12.8,14.25-18.96,9.95-12.32,21.21-23.72,33.74-33.47,6.23-4.91,12.69-9.52,19.36-13.79,6.64-4.31,13.34-8.42,20.16-12.42,6.8-4,13.82-7.78,20.94-11.18,3.55-1.71,7.01-3.42,10.38-5.33,3.37-1.91,6.68-3.95,9.95-6.09,6.59-4.39,13.71-8.31,21.23-11.13,3.75-1.43,7.6-2.58,11.36-3.68,3.76-1.12,7.44-2.2,10.74-3.89,.82-.42,1.65-.84,2.42-1.36,.39-.25,.8-.48,1.17-.73,.35-.27,.71-.5,1.05-.79,1.37-1.12,2.63-2.47,3.81-3.92,2.36-2.92,4.41-6.22,6.52-9.54,2.13-3.32,4.24-6.74,7.15-9.85,1.46-1.53,3.19-3.01,5.41-3.92,2.19-.98,4.89-.98,7.11-.3,1.06,.32,1.65,1.44,1.32,2.5-.32,1.04-1.41,1.63-2.45,1.34h-.05c-1.52-.44-3-.46-4.43,.16-1.43,.58-2.8,1.68-4.03,2.99-2.49,2.63-4.56,5.93-6.67,9.23-2.11,3.31-4.21,6.71-6.79,9.92-1.3,1.6-2.73,3.14-4.4,4.51-.41,.35-.87,.65-1.31,.98-.44,.3-.89,.56-1.33,.84-.87,.58-1.8,1.05-2.72,1.53-3.72,1.9-7.64,3.03-11.4,4.15-3.78,1.11-7.48,2.21-11.08,3.59-7.22,2.71-13.97,6.41-20.47,10.74-3.31,2.17-6.7,4.25-10.17,6.22-3.47,1.97-7.07,3.74-10.6,5.44-7.07,3.38-13.92,7.06-20.67,11.03-6.74,3.96-13.45,8.07-20.01,12.33-6.58,4.21-12.93,8.75-19.06,13.57-12.31,9.58-23.3,20.71-33.11,32.85-4.91,6.06-9.57,12.35-14.1,18.75l-6.73,9.66-1.67,2.42-1.55,2.44-1.55,2.44-.77,1.22-.7,1.28-2.79,5.1c-.89,1.72-1.7,3.49-2.56,5.24l-1.27,2.63-1.16,2.68-2.31,5.37c-2.91,7.24-5.63,14.58-8.05,22.02-4.85,14.87-8.99,30.04-12.33,45.29l-.11-1.16h0c.97,2.13,2.47,4.3,4.05,6.33,1.59,2.03,3.31,4,5.16,5.82,3.69,3.65,7.81,6.89,12.31,9.2,.55,.32,1.13,.54,1.7,.81,.57,.26,1.14,.53,1.73,.71l1.77,.62,1.94,.59c2.58,.8,5.16,1.62,7.72,2.48,5.13,1.7,10.24,3.53,15.29,5.54,5.05,2.01,10.04,4.24,14.87,7.07,.6,.37,1.2,.72,1.8,1.12l1.77,1.23,1.56,1.09c.53,.36,1.09,.7,1.64,1.05,2.21,1.39,4.53,2.71,6.85,4,4.67,2.57,9.42,5.03,14.21,7.43l7.2,3.57c1.2,.59,2.39,1.22,3.52,1.95,1.14,.71,2.26,1.49,3.29,2.45h0c.47,.44,.5,1.17,.06,1.64-.26,.28-.65,.41-1,.36Z"/><path class="q" d="M783.96,677.88s-29.54,125.54-12.82,178.26"/><path d="M779.42,844.06c-4.86,10.22-9.1,20.71-12.91,31.32-3.77,10.62-7.08,21.41-9.56,32.39-2.52,10.99-4.11,22.11-5.21,33.39-1.14,11.25-1.79,22.57-2.22,33.89-.85,22.64-.54,45.34,.5,68,.52,11.33,1.28,22.65,2.25,33.94,.96,11.29,2.23,22.56,3.56,33.84l4.16,33.86c1.35,11.31,2.61,22.66,3.24,34.12,.27,5.74,.47,11.49,.2,17.29-.25,5.8-.91,11.55-1.74,17.22-1.7,11.35-3.94,22.46-5.4,33.65-1.48,11.18-2.41,22.42-2.42,33.69-.03,11.26,.59,22.57,1.96,33.73l.54,4.18,.68,4.16c.22,1.39,.45,2.77,.75,4.14l.84,4.11c1.26,5.45,2.82,10.81,4.92,15.92,1.03,2.56,2.27,5.01,3.62,7.38,1.41,2.32,2.98,4.52,4.8,6.45,1.81,1.9,3.92,3.6,6.19,4.86,1.13,.64,2.31,1.17,3.5,1.52,.6,.17,1.2,.32,1.78,.4,.29,.04,.58,.07,.86,.08,.14,.01,.27,0,.4,0,.1,0,.29-.02,.26-.01l1.4,.28h0c1.12,.67,2.53,1.31,3.87,1.79,1.37,.48,2.77,.83,4.16,1.02,1.4,.2,2.79,.16,4.13-.03,1.35-.18,2.6-.69,3.79-1.27h.03c.58-.3,1.23-.29,1.78-.06,.19,.08,.63,.23,.97,.33,.37,.1,.75,.21,1.14,.28,.78,.17,1.58,.27,2.39,.35,1.62,.14,3.27,.09,4.92-.07,1.65-.19,3.28-.51,4.9-.96,.81-.2,1.6-.51,2.4-.75l2.36-.92h0l-.5,3.37c-3.88-3.27-7.25-6.81-10.38-10.7-3.11-3.88-5.89-8.08-7.98-12.72-2.08-4.62-3.47-9.72-3.42-15.01,0-.66,.01-1.32,.09-1.97,.06-.66,.1-1.32,.23-1.97,.21-1.35,.48-2.52,.74-3.7,.53-2.37,1.09-4.74,1.68-7.11,.59-2.36,1.21-4.73,1.86-7.06,.63-2.34,1.29-4.6,1.63-6.78,.35-2.2,.41-4.49,.44-6.9,.02-2.56,.31-5.06,.72-7.55,.39-2.48,1.01-4.92,1.75-7.31,.74-2.4,1.72-4.73,2.88-6.98,.31-.56,.59-1.12,.92-1.66l1.02-1.62c.76-1.04,1.5-2.08,2.4-3.01,1.75-1.87,3.86-3.54,6.32-4.43,.47-.17,.98,.07,1.15,.54,.15,.4-.01,.84-.36,1.06l-.02,.02c-1.9,1.23-3.46,2.88-4.77,4.73-1.31,1.84-2.39,3.87-3.27,6-.9,2.12-1.65,4.31-2.24,6.56-.62,2.23-1.09,4.52-1.43,6.81-.34,2.29-.57,4.61-.55,6.88,0,2.42,0,4.97-.38,7.56-.36,2.61-1.05,5-1.66,7.33-.63,2.33-1.22,4.64-1.79,6.97-.56,2.33-1.11,4.66-1.61,7.01l-.4,1.76c-.14,.6-.2,1.09-.31,1.64-.12,.53-.14,1.08-.2,1.63-.07,.54-.08,1.09-.09,1.64-.08,4.4,1.06,8.86,2.92,13.05,3.78,8.35,9.88,15.94,16.68,22.25l.12,.11c.79,.74,.84,1.98,.1,2.77-.2,.22-.46,.39-.72,.49h0c-.87,.34-1.72,.69-2.6,1.01-.89,.28-1.76,.6-2.67,.83-1.8,.5-3.65,.86-5.53,1.08-1.88,.19-3.79,.25-5.7,.08-.96-.09-1.91-.21-2.87-.42-.48-.09-.96-.22-1.44-.36-.5-.15-.92-.27-1.54-.54l1.81-.06c-1.61,.82-3.33,1.47-5.11,1.72-1.77,.25-3.55,.28-5.27,.04-1.72-.24-3.38-.65-4.98-1.22-.8-.28-1.59-.6-2.35-.96-.79-.36-1.49-.72-2.32-1.22h0l1.4,.28c-.39,.06-.55,.06-.81,.07-.22,0-.45,0-.66,0-.43-.01-.85-.06-1.26-.11-.82-.11-1.61-.29-2.38-.51-1.54-.44-2.97-1.08-4.33-1.82-2.71-1.48-5.1-3.36-7.23-5.55-2.11-2.19-3.87-4.62-5.44-7.15-1.49-2.56-2.86-5.18-3.97-7.89-2.27-5.4-3.92-10.98-5.26-16.6l-.9-4.23c-.32-1.41-.57-2.83-.8-4.25l-.72-4.26-.58-4.27c-1.47-11.4-2.17-22.84-2.22-34.32-.05-11.48,.77-22.97,2.28-34.33,1.46-11.37,3.7-22.58,5.34-33.73,.8-5.58,1.42-11.14,1.65-16.7,.25-5.56,.04-11.19-.23-16.81-.64-11.25-1.91-22.52-3.27-33.78l-4.23-33.85c-2.79-22.61-4.72-45.39-5.71-68.17-.98-22.78-1.24-45.61-.32-68.42,.47-11.4,1.15-22.81,2.33-34.18,1.14-11.35,2.8-22.78,5.39-33.96,2.57-11.19,5.87-22.22,10.09-32.89,2.15-5.32,4.46-10.57,7.1-15.66,1.31-2.55,2.67-5.07,4.13-7.54,1.45-2.48,2.97-4.9,4.65-7.25,.21-.29,.62-.36,.92-.15,.26,.19,.35,.53,.21,.82v.02Z"/><path d="M816.99,1273.65c.37,5.63,1.92,11.34,5.08,15.75,.37,.57,.82,1.08,1.26,1.6,.41,.54,.93,.98,1.42,1.46,.44,.42,1.09,1.06,1.68,1.66,.63,.57,1.1,1.27,1.6,1.95,1.94,2.76,2.97,5.89,3.66,8.91,.69,3.04,1.08,6.05,1.48,9.01,.39,2.95,.8,5.86,1.36,8.71,.56,2.85,1.34,5.62,2.31,8.3,1.04,2.65,2.31,5.19,3.87,7.52,1.6,2.28,3.51,4.33,5.71,5.89,2.2,1.54,4.72,2.66,7.27,2.82l.95,.06c.31,0,.62-.05,.93-.06l.47-.03,.45-.1c.29-.07,.6-.11,.89-.2,1.17-.36,2.13-.96,3-1.77,.98-.94,1.65-1.85,1.84-2.76,.23-.92,.08-2.18-.21-3.55-.61-2.74-1.5-5.69-2.19-8.61-.73-2.93-1.32-5.93-1.87-8.86-1.06-5.85-2.4-11.61-3.42-17.61-1.01-6.03-1.26-12.15-1.27-18.15-.03-5.73-1.07-11.43-2.9-16.94-1.77-5.52-4.3-10.82-7.13-15.95-2.86-5.13-6.11-10.01-9.58-14.83-3.56-5.07-6.31-10.56-8.65-16.15-2.33-5.6-4.24-11.34-5.92-17.13-1.63-5.8-3.02-11.66-4.24-17.55-1.16-5.9-2.22-11.81-3.04-17.75l-.63-4.46-.54-4.47c-.39-2.97-.65-5.96-.97-8.94-.33-2.98-.47-6-.71-9-.2-3-.24-6.01-.37-9.02-.26-12.03,.31-24.04,1.44-35.99,2.29-23.89,6.73-47.51,12.54-70.74,.73-2.9,1.52-5.79,2.27-8.69l2.41-8.65c1.65-5.73,3.28-11.46,4.86-17.2,3.16-11.48,6.14-23,8.71-34.6,2.57-11.6,4.75-23.27,6.18-35.03,1.39-11.75,2.03-23.59,1.42-35.36h0v-.03c-.02-.47,.12-.91,.37-1.26,3.71-5.28,7.2-10.87,10.49-16.49,3.27-5.65,6.41-11.39,9.2-17.28,2.78-5.89,5.42-11.86,7.51-18.01l.82-2.29c.25-.77,.47-1.55,.71-2.32,.46-1.55,.95-3.1,1.38-4.66,.73-3.14,1.59-6.27,2.01-9.45,.59-3.13,.88-6.44,1.27-9.68,.33-3.26,.67-6.52,.95-9.79,.57-6.53,1.04-13.08,1.42-19.63l1.05-19.71c.19-3.3,.37-6.59,.65-9.91,.29-3.32,.57-6.62,1.36-10.08,.25-1.08,1.32-1.75,2.4-1.5,1.08,.25,1.75,1.32,1.5,2.4h0v.05c-.7,2.96-1,6.24-1.27,9.47-.27,3.24-.46,6.52-.64,9.79l-1.05,19.72c-.38,6.58-.85,13.17-1.43,19.75-.28,3.29-.62,6.58-.96,9.87-.4,3.29-.68,6.55-1.3,9.89-.45,3.35-1.33,6.58-2.09,9.85-.45,1.61-.95,3.2-1.43,4.81-.25,.8-.47,1.6-.73,2.4l-.84,2.36c-2.15,6.32-4.84,12.41-7.68,18.42-2.84,6.01-6.02,11.83-9.35,17.57-3.36,5.73-6.85,11.33-10.7,16.81l.37-1.28h0c.66,12.07,.03,24.14-1.35,36.08-1.42,11.94-3.6,23.75-6.16,35.45-2.57,11.7-5.53,23.3-8.67,34.83-1.58,5.76-3.2,11.52-4.83,17.26l-2.37,8.59-2.24,8.63c-5.8,23.04-10.22,46.46-12.52,70.08-1.13,11.81-1.71,23.66-1.46,35.49,.12,2.95,.16,5.91,.35,8.86,.24,2.95,.36,5.89,.68,8.84,.31,2.95,.56,5.91,.95,8.85l.53,4.42,.61,4.4c.81,5.88,1.84,11.71,2.98,17.52,1.19,5.8,2.55,11.55,4.14,17.24,1.64,5.67,3.5,11.27,5.74,16.68,2.25,5.4,4.88,10.65,8.18,15.35,7,9.74,13.41,20.23,17.23,31.91,1.93,5.81,3.06,11.98,3.08,18.19,0,5.92,.23,11.76,1.19,17.51,.97,5.76,2.32,11.63,3.38,17.52,.55,2.94,1.1,5.79,1.81,8.65,.67,2.88,1.52,5.65,2.2,8.73,.31,1.54,.64,3.31,.18,5.31-.08,.5-.32,.95-.49,1.42-.2,.45-.47,.84-.72,1.26-.27,.37-.55,.71-.83,1.06-.29,.32-.58,.61-.88,.91-1.29,1.24-2.93,2.22-4.63,2.73-.42,.14-.86,.2-1.29,.3l-.65,.13-.65,.05c-.43,.03-.87,.07-1.3,.08l-1.28-.07c-3.43-.24-6.56-1.68-9.22-3.54-2.67-1.89-4.87-4.29-6.69-6.88-1.76-2.64-3.17-5.45-4.3-8.36-1.06-2.93-1.89-5.92-2.48-8.92-1.2-5.99-1.56-12.04-2.79-17.61-.63-2.77-1.54-5.41-3.04-7.54-.39-.52-.74-1.08-1.23-1.5-.46-.46-.86-.89-1.5-1.49-.58-.57-1.19-1.11-1.7-1.75-.53-.62-1.07-1.23-1.5-1.92-1.85-2.67-3.12-5.69-3.77-8.78-.64-3.11-.83-6.22-.3-9.4,.1-.59,.66-.99,1.25-.89,.51,.08,.87,.51,.9,1v.09Z"/><path d="M920.53,842.65c4.01,5.94,7.29,12.13,10.21,18.56,2.93,6.41,5.4,13.02,7.48,19.74,1.12,3.34,1.95,6.77,2.88,10.16,.77,3.44,1.63,6.85,2.18,10.32,1.34,6.9,1.94,13.93,2.27,20.92,.02,.46-.34,.86-.8,.88-.43,.02-.8-.28-.87-.7v-.03c-1.2-6.84-2.41-13.63-4.21-20.29-.76-3.36-1.85-6.64-2.75-9.96-1.08-3.27-2.06-6.56-3.25-9.79-1.1-3.26-2.41-6.44-3.62-9.65l-1.97-4.77c-.66-1.59-1.36-3.16-2.04-4.73-2.77-6.27-5.73-12.55-8.9-18.53l-.04-.08c-.52-.98-.15-2.19,.83-2.7,.91-.48,2.03-.18,2.59,.65Z"/><path class="q" d="M1339.02,675.63s29.7,109.65,18.27,161.08c0,0,18.86,48.57,29.14,100.57,10.29,52,16.57,108,27.43,159.43,10.86,51.43,13.71,52,32,76,18.29,24,35.43,37.71,33.71,69.71-1.71,32-11.43,48.57-36,61.71-24.57,13.14-51.14,14-57.43,7.43-6.29-6.57-11.14-14-4.86-16.57,6.29-2.57,25.56-8.29,28.07-19.43,2.5-11.14-.07-20.43-12.07-39.71-12-19.29-20.14-30-20.57-49.29-.43-19.29-6.43-30,.86-35.14,0,0-39.86-75.43-58.29-96s-21.43-25.71-36-74.14c-14.57-48.43-23.57-86.14-19.29-107.57,0,0-14.83-15.64-16.63-37.61"/><path d="M896.94,1089.51c-1.93,10.47-3.22,21.19-4.2,31.87-.97,10.7-1.56,21.43-1.76,32.16-.2,10.74,0,21.48,.59,32.2,.71,10.63,2.41,21.2,4.83,31.61l1.94,7.78,2.26,7.71,.56,1.93,.63,1.91,1.27,3.81,1.27,3.81,1.38,3.78c3.64,10.09,7.76,20.02,12.16,29.83,4.38,9.82,9.02,19.54,13.63,29.31,1.16,2.44,2.3,4.89,3.43,7.35,1.15,2.45,2.25,4.93,3.34,7.41,1.13,2.46,2.08,5.03,3.13,7.54,1.01,2.53,1.91,5.08,2.88,7.62,7.34,20.39,13.64,41.04,19.86,61.72,6.19,20.68,12.15,41.43,18.11,62.17l4.47,15.55,2.25,7.77,1.13,3.88,1.19,3.83c3.15,10.23,6.98,20.24,11.4,29.99,4.38,9.78,9.45,19.25,14.34,28.92,2.42,4.85,4.77,9.77,6.83,14.85,2.05,5.07,3.65,10.43,4.82,15.77,2.31,10.53,4.5,21.19,5.96,31.96,1.44,10.77,2.32,21.58,2.9,32.39,.58,10.81,.93,21.61,1.15,32.41,.05,2.71,.21,5.36,.31,8.05,.14,2.68,.18,5.35,.39,8.04,.39,5.37,.74,10.73,1.17,16.1,3.7,42.93,8.94,85.76,14.77,128.49,5.86,42.73,12.41,85.37,19.89,127.83l2.82,15.92c.96,5.3,2,10.59,3,15.89l3.02,15.88,3.25,15.83c4.26,21.13,9.2,42.1,14.5,62.96h0l-2.97-1.2c2.39-1.39,4.72-2.45,7.2-3.38,2.47-.91,5.02-1.66,7.66-2.1,2.64-.45,5.35-.61,8.09-.38l2.05,.26,2.03,.47c.72,.16,1.22,.32,1.84,.48,.59,.17,1.18,.32,1.78,.45,4.75,1.16,9.65,1.72,14.56,1.85,4.92,.09,9.85-.24,14.75-.93,4.91-.69,9.75-1.75,14.57-3.03,4.95-1.32,9.99-2.38,15.06-3.17,2.53-.39,5.08-.71,7.56-1.03,1.24-.16,2.47-.32,3.6-.55,1.12-.23,2.18-.52,2.82-.92,.13-.12,.3-.19,.41-.31,.05-.06,.1-.12,.16-.18,.05-.05,.14-.12,.12-.13,.03-.06,.05-.03,.03-.3-.04-.54-.53-1.61-1.1-2.58-1.19-2.01-2.68-4.1-4.07-6.26-2.81-4.32-5.34-9.05-6.85-14.19-1.44-4.53-3.55-9.23-5.38-13.94-3.77-9.43-7.13-19.08-9.94-28.86-2.81-9.78-5.28-19.66-7.21-29.64-.49-2.49-1.02-4.98-1.47-7.48l-1.26-7.51c-.91-5-1.53-10.04-2.23-15.07-2.67-20.13-4.12-40.39-4.91-60.64-.76-20.24-.86-40.53-.07-60.8l.13-3.8,.22-3.8,.45-7.6c.12-2.53,.38-5.06,.58-7.59l.64-7.59c1.05-10.1,2.23-20.2,3.83-30.22,3.08-20.07,7.3-39.85,10.37-59.72,6.23-39.71,6.74-80.23,2.4-120.19-1.15-9.98-2.53-19.94-4.29-29.83-1.81-9.88-3.79-19.74-6.28-29.47-2.43-9.76-5.1-19.51-7.8-29.22-2.7-9.72-5.51-19.42-8.34-29.1-5.69-19.37-11.59-38.69-17.5-58.01-5.9-19.3-11.74-38.73-17.41-58.05-5.96-19.19-13.33-37.98-20.92-56.68-3.8-9.35-7.68-18.68-11.38-28.1-1.85-4.71-3.68-9.43-5.35-14.23-.82-2.41-1.63-4.81-2.28-7.29-.64-2.47-1.27-4.97-1.3-7.65,0-.35,.28-.65,.63-.65,.34,0,.63,.26,.65,.61v.04c.13,2.39,.84,4.82,1.57,7.19,.75,2.38,1.65,4.73,2.53,7.08,1.82,4.69,3.79,9.33,5.8,13.96l12.2,27.75c8.05,18.55,15.79,37.3,22.04,56.65,11.77,38.72,23.94,77.19,35.42,116,2.86,9.7,5.68,19.41,8.4,29.16,2.73,9.75,5.41,19.49,7.88,29.34,2.54,9.84,4.56,19.81,6.4,29.8,1.8,10,3.2,20.07,4.38,30.15,4.45,40.37,3.99,81.36-2.25,121.55-1.54,10.03-3.35,20.01-5.16,29.95-1.85,9.94-3.64,19.85-5.2,29.79-1.6,9.93-2.78,19.92-3.83,29.91l-.64,7.51c-.2,2.51-.46,5.01-.58,7.52l-.45,7.53-.23,3.76-.14,3.77c-.81,20.11-.74,40.26-.01,60.41,.76,20.13,2.17,40.22,4.79,60.17,.69,4.98,1.3,9.97,2.19,14.92l1.24,7.43c.44,2.47,.96,4.93,1.44,7.39,1.9,9.86,4.28,19.62,7.02,29.27,2.73,9.65,5.99,19.13,9.68,28.47l2.79,7.03,1.38,3.58c.46,1.2,.86,2.51,1.28,3.74,1.33,4.58,3.57,8.87,6.25,13.02,1.33,2.1,2.78,4.12,4.15,6.46,.65,1.22,1.41,2.43,1.68,4.42,.13,.98-.1,2.33-.8,3.31-.17,.28-.33,.42-.49,.6l-.49,.51c-.34,.32-.73,.56-1.1,.82-1.54,.91-2.98,1.2-4.32,1.48-1.35,.26-2.63,.42-3.89,.58-2.53,.31-5,.61-7.46,.98-4.92,.74-9.79,1.74-14.6,3.01-4.94,1.29-9.99,2.38-15.1,3.08-5.11,.7-10.29,1.03-15.47,.89-5.18-.18-10.38-.8-15.44-2.07-.64-.14-1.26-.32-1.89-.5-.61-.16-1.31-.38-1.82-.49l-1.66-.4-1.71-.22c-2.3-.21-4.66-.09-7.01,.29-2.35,.38-4.67,1.04-6.94,1.86-2.25,.82-4.54,1.86-6.52,3l-.07,.04c-.95,.54-2.16,.21-2.7-.74-.09-.16-.16-.33-.2-.5h0c-5.32-20.96-10.28-42-14.55-63.18l-3.26-15.87-3.03-15.91c-1-5.31-2.04-10.6-3-15.92l-2.83-15.95c-7.49-42.53-14.04-85.21-19.91-127.99-5.84-42.78-11.07-85.64-14.79-128.7-.43-5.39-.78-10.79-1.18-16.18-.21-2.69-.26-5.42-.39-8.12-.1-2.71-.26-5.43-.31-8.12-.22-10.77-.57-21.54-1.15-32.28-.57-10.74-1.44-21.45-2.87-32.07-1.44-10.62-3.59-21.12-5.9-31.65-1.15-5.19-2.64-10.2-4.63-15.14-2-4.91-4.3-9.74-6.69-14.54-4.84-9.59-9.96-19.15-14.41-29.07-4.48-9.89-8.39-20.07-11.58-30.46l-1.21-3.9-1.13-3.89-2.25-7.78-4.47-15.55c-5.96-20.74-11.91-41.47-18.1-62.12-6.21-20.64-12.51-41.28-19.79-61.5-.95-2.51-1.85-5.04-2.84-7.52-1.03-2.47-1.95-4.97-3.08-7.41-1.08-2.45-2.16-4.9-3.31-7.34-1.12-2.44-2.26-4.88-3.41-7.32-4.6-9.75-9.26-19.5-13.66-29.38-4.43-9.87-8.59-19.89-12.27-30.1l-1.4-3.82-1.28-3.86-1.28-3.86-.64-1.93-.57-1.96-2.29-7.82-1.98-7.92c-2.46-10.6-4.2-21.39-4.93-32.3-.6-10.83-.8-21.67-.6-32.5,.2-10.83,.79-21.66,1.77-32.45,1-10.8,2.28-21.53,4.26-32.28,.2-1.09,1.24-1.8,2.33-1.6s1.8,1.24,1.6,2.33v.05Z"/><path class="q" d="M1131.5,1403.05s34.93-54.91,57.79-114.91c22.86-60,47.43-174.86,42.57-218.29"/><path class="q" d="M976.46,1448.12s-17.6,65.03-33.89,105.31c-16.29,40.29-53.29,109.57-76.71,142.14,0,0-3.86,4.43,1.93,16,5.79,11.57,3.5,12.86,7.5,22.86s6.86,17.43,15.71,22.57,8,14,19.43,10,56.29-65.43,78-95.71c21.71-30.29,42.53-68.29,42.53-68.29"/><path class="q" d="M864.6,1705.14s-19.31,37.29-10.74,54c8.57,16.71,29.57,24.86,32.14,52.29s-3.43,60.86,10.29,74.14,32.14,27.43,45.43,33.43,35.14-2.57,42.86-17.57c7.71-15-2.14-25.29-11.57-38.57-9.43-13.29-24.43-36.43-28.71-66.86-4.29-30.43-5.27-58.73-5.27-58.73"/><path class="q" d="M1099.86,2093.86s-16.71,12-3.43,32.57c13.29,20.57,46.29,40.29,72.43,60,26.14,19.71,31.29,30,59.57,33.43,28.29,3.43,53.57-19.29,62.57-22.29s9-8.57-12.86-25.71c-21.86-17.14-58.29-46.71-67.29-60-9-13.29-15.79-27.88-19.45-27.34"/></g><path d="M801.8,1372.48c-2.31-2.85-4.15-5.71-5.95-8.71-1.77-2.98-3.39-6.05-4.87-9.17-1.47-3.12-2.84-6.29-4.03-9.52-.64-1.58-1.12-3.3-1.66-4.95-.4-1.7-.85-3.39-1.07-5.13-1.14-6.91-.38-13.89,.74-20.6,1.13-6.73,2.53-13.41,2.61-20.25,.26,6.83-.82,13.65-1.62,20.39-.79,6.74-1.17,13.57,.24,20.11,.28,1.64,.8,3.23,1.25,4.83,.6,1.56,1.1,3.12,1.82,4.66,1.32,3.11,2.81,6.14,4.39,9.11,1.59,2.97,3.3,5.87,5.15,8.66,.92,1.4,1.89,2.76,2.88,4.1,.99,1.31,2.06,2.67,3.09,3.8l.05,.06c.75,.82,.69,2.08-.13,2.83-.82,.75-2.08,.69-2.83-.13-.02-.03-.05-.06-.08-.09Z"/><path d="M783.72,1370.82c-2.06-2.8-3.79-5.61-5.44-8.56-1.63-2.93-3.1-5.95-4.38-9.06-2.59-6.18-4.25-12.86-4.58-19.53-.41-6.67,.05-13.29,.65-19.85,.3-3.28,.65-6.56,.91-9.83,.25-3.27,.48-6.57,.12-9.84,.52,3.26,.46,6.58,.38,9.87-.1,3.3-.28,6.59-.41,9.87-.26,6.57-.38,13.15,.35,19.61,.66,6.47,2.55,12.66,5.33,18.5,1.38,2.92,2.94,5.75,4.65,8.49,1.7,2.72,3.58,5.43,5.55,7.84l.04,.05c.7,.86,.57,2.12-.29,2.82-.86,.7-2.12,.57-2.82-.29-.02-.02-.04-.06-.06-.08Z"/></g><path class="p" d="M588.22,1729.8c-.88,.07-1.77,.11-2.67,.11,.33-.61,.66-1.22,.99-1.84,.83,.62,1.06,.71,1.68,1.73Z"/><g class="r"><path class="x" d="M1165.86,148.14c.88-9.91-1.82-19.47-7.6-26.31-2.85-3.45-6.36-6.32-10.26-8.66-.94-.63-1.98-1.13-2.98-1.67l-1.51-.81-1.59-.7c-1.07-.44-2.07-1.01-3.18-1.38l-3.27-1.22c-8.86-3.02-18.3-4.86-27.87-6.26-9.59-1.41-19.35-2.28-29.26-3.56,9.77-2.05,19.74-2.92,29.79-2.71,10.03,.26,20.19,1.62,29.98,4.97,4.87,1.75,9.64,3.99,14.03,6.98,4.37,2.99,8.33,6.8,11.22,11.35,1.48,2.25,2.61,4.72,3.48,7.23,.86,2.53,1.34,5.15,1.58,7.75,.2,2.61,.07,5.21-.35,7.73-.21,1.26-.5,2.5-.84,3.72-.39,1.21-.79,2.4-1.36,3.52Z"/></g><g class="r"><path class="x" d="M1001.71,222.88c5.4-3.26,10.31-7.14,14.5-11.58,2.05-2.27,3.91-4.67,5.56-7.19,1.63-2.53,3.05-5.19,4.23-7.93,2.29-5.53,3.74-11.36,4.33-17.29,.28-2.97,.41-5.95,.31-8.92-.05-1.49-.15-2.97-.29-4.44-.07-.73-.15-1.47-.25-2.18-.09-.7-.22-1.49-.34-2.04l1.75,2.49c.11,.07,0,0-.01,0l-.15-.06c-.1-.05-.24-.09-.36-.14-.26-.09-.53-.19-.83-.26-.57-.17-1.2-.28-1.83-.38-1.27-.19-2.6-.24-3.94-.19-1.35,.05-2.71,.25-4.08,.51-.68,.13-1.36,.33-2.04,.47l-2.04,.6-26.56,7.79,23.17-14.88c2.17-1.39,4.18-2.54,6.3-3.71,2.09-1.16,4.23-2.23,6.38-3.27,4.29-2.08,8.67-3.96,13.14-5.62,8.92-3.33,18.14-5.9,27.56-7.42,9.4-1.57,18.99-2.04,28.45-1.31,9.46,.71,18.8,2.78,27.5,6.21-2.33-.31-4.59-.83-6.91-1.05l-3.45-.44-3.46-.27-1.72-.14-1.73-.08-3.45-.14c-2.3,0-4.59-.02-6.88,.08-4.58,.09-9.13,.55-13.65,1.16-4.52,.57-9,1.45-13.44,2.45-2.22,.5-4.42,1.08-6.62,1.65-2.19,.62-4.37,1.25-6.54,1.95-4.34,1.36-8.62,2.92-12.85,4.6-4.22,1.7-8.38,3.55-12.46,5.54-2.04,1-4.05,2.05-6.04,3.12-1.97,1.06-4.01,2.22-5.77,3.33l-3.39-7.09,2.49-.71c.85-.19,1.69-.4,2.56-.55,1.73-.29,3.49-.51,5.29-.54,1.8-.03,3.62,.07,5.46,.39,.92,.17,1.83,.38,2.76,.68,.46,.14,.93,.32,1.4,.5,.24,.1,.47,.19,.73,.32,.27,.13,.44,.2,.89,.47l1.47,.86,.28,1.63c.17,.99,.26,1.76,.34,2.62,.09,.84,.15,1.67,.2,2.5,.11,1.66,.13,3.31,.09,4.96-.07,3.3-.33,6.59-.88,9.84-1.07,6.5-3.12,12.86-6.25,18.65-1.59,2.88-3.43,5.61-5.46,8.17-2.05,2.55-4.42,4.8-6.85,6.92-4.99,4.11-10.66,7.24-16.58,9.38Z"/></g><polygon class="p" points="819 2246 2263 2246 2263 0 0 0 0 2246 137.29 2246 430.43 2246 511.43 2246 819 2246"/></svg>